<svg xmlns="http://www.w3.org/2000/svg" xmlns:svg="http://www.w3.org/2000/svg" id="Layer_1" x="0" y="0" enable-background="new 0 0 256 256" version="1.1" viewBox="82.2 81.2 91.6 91.5" xml:space="preserve"><metadata id="metadata53"/><style id="style3" type="text/css">.st0{opacity:.8}.st1{fill:#fff}.st2,.st3,.st4{fill:none;stroke:#646665;stroke-width:2;stroke-miterlimit:10}.st3{stroke-dasharray:1.7096,1.7096}.st4{stroke-dasharray:2.0355,2.0355}.st5{fill:#ea2127}</style><g id="g5" class="st0"><path id="path7" d="M128,82.2c-17.3,0-32.9,6.9-44.4,18.1c-0.3,0.3-0.4,0.6-0.4,1v69c0,0.8,0.6,1.4,1.4,1.4h86.8 c0.8,0,1.4-0.6,1.4-1.4v-69c0-0.4-0.2-0.7-0.4-1C160.9,89.1,145.3,82.2,128,82.2z" class="st1"/><g id="g9"><g id="g11"><line id="line13" x1="83.2" x2="84.2" y1="131" y2="131" class="st2"/><line id="line15" x1="85.9" x2="91.9" y1="131" y2="131" class="st3"/><polyline id="polyline17" points="92.7 131 93.7 131 93.7 132" class="st2"/><line id="line19" x1="93.7" x2="93.7" y1="134.1" y2="161.5" class="st4"/><polyline id="polyline21" points="93.7 162.6 93.7 163.6 92.7 163.6" class="st2"/><line id="line23" x1="91" x2="85.1" y1="163.6" y2="163.6" class="st3"/><line id="line25" x1="84.2" x2="83.2" y1="163.6" y2="163.6" class="st2"/></g></g><g id="g27"><g id="g29"><line id="line31" x1="172.8" x2="171.8" y1="163.6" y2="163.6" class="st2"/><line id="line33" x1="170.1" x2="164.1" y1="163.6" y2="163.6" class="st3"/><polyline id="polyline35" points="163.2 163.6 162.2 163.6 162.2 162.6" class="st2"/><line id="line37" x1="162.2" x2="162.2" y1="160.5" y2="133.1" class="st4"/><polyline id="polyline39" points="162.2 132 162.2 131 163.2 131" class="st2"/><line id="line41" x1="164.9" x2="170.9" y1="131" y2="131" class="st3"/><line id="line43" x1="171.8" x2="172.8" y1="131" y2="131" class="st2"/></g></g></g><circle id="circle45" cx="128" cy="126.8" r="20" class="st1" opacity=".3"/><rect id="rect47" width="16.1" height="16.1" x="119.9" y="118.7" class="st5" opacity=".3"/></svg>