<svg xmlns="http://www.w3.org/2000/svg" xmlns:svg="http://www.w3.org/2000/svg" id="Layer_1" x="0" y="0" enable-background="new 0 0 80 80" version="1.1" viewBox="0 0 80 80" xml:space="preserve"><metadata id="metadata5448"/><style id="style5408" type="text/css">.st0{fill:#fff}.st1,.st2{fill:none;stroke:#646565;stroke-miterlimit:10}.st2{stroke-dasharray:1.173,1.173}</style><g id="g5410" transform="matrix(1.2,0,0,1.2,-7.8100002,-8.3)"><path id="path5412" fill="#fff" d="m 48.2,44.1 c -2.4,0 -4.6,1 -6.2,2.5 0,0 -0.1,0.1 -0.1,0.1 l 0,9.6 c 0,0.1 0.1,0.2 0.2,0.2 l 12.1,0 c 0.1,0 0.2,-0.1 0.2,-0.2 l 0,-9.6 c 0,-0.1 0,-0.1 -0.1,-0.1 -1.5,-1.5 -3.7,-2.5 -6.1,-2.5 z" class="st0"/><g id="g5414"><g id="g5416"><line id="line5418" x1="42" x2="42.5" y1="50.9" y2="50.9" fill="none" stroke="#646565" stroke-miterlimit="10" class="st1"/><polyline id="polyline5420" fill="none" stroke="#646565" stroke-miterlimit="10" points="42.9 50.9 43.4 50.9 43.4 51.4" class="st1"/><line id="line5422" x1="43.4" x2="43.4" y1="52.5" y2="54.3" fill="none" stroke="#646565" stroke-dasharray="1.173 1.173" stroke-miterlimit="10" class="st2"/><polyline id="polyline5424" fill="none" stroke="#646565" stroke-miterlimit="10" points="43.4 54.9 43.4 55.4 42.9 55.4" class="st1"/><line id="line5426" x1="42.5" x2="42" y1="55.4" y2="55.4" fill="none" stroke="#646565" stroke-miterlimit="10" class="st1"/></g></g><g id="g5428"><g id="g5430"><line id="line5432" x1="54.4" x2="53.9" y1="55.4" y2="55.4" fill="none" stroke="#646565" stroke-miterlimit="10" class="st1"/><polyline id="polyline5434" fill="none" stroke="#646565" stroke-miterlimit="10" points="53.5 55.4 53 55.4 53 54.9" class="st1"/><line id="line5436" x1="53" x2="53" y1="53.7" y2="52" fill="none" stroke="#646565" stroke-dasharray="1.173 1.173" stroke-miterlimit="10" class="st2"/><polyline id="polyline5438" fill="none" stroke="#646565" stroke-miterlimit="10" points="53 51.4 53 50.9 53.5 50.9" class="st1"/><line id="line5440" x1="53.9" x2="54.4" y1="50.9" y2="50.9" fill="none" stroke="#646565" stroke-miterlimit="10" class="st1"/></g></g></g><path id="path5442" fill="#fff" d="m 31.79,31.3 -1.32,-1.2 3.12,-3.12 -12.96,-3.48 3.48,12.96 3.12,-3.12 1.32,1.32 c 3.24,3.24 5.04,7.56 5.04,12.24 l 0,5.4 4.44,0 0,-5.4 c 0.12,-6 -2.16,-11.52 -6.24,-15.6 z" class="st0"/></svg>