<svg xmlns="http://www.w3.org/2000/svg" xmlns:svg="http://www.w3.org/2000/svg" id="Layer_1" x="0" y="0" enable-background="new 0 0 80 80" version="1.1" viewBox="0 0 80 80" xml:space="preserve"><metadata id="metadata5322"/><style id="style5282" type="text/css">.st0{fill:#fff}.st1,.st2{fill:none;stroke:#646565;stroke-miterlimit:10}.st2{stroke-dasharray:1.173,1.173}</style><g id="g5284" transform="matrix(1.2,0,0,1.2,-7.9999999,-8.08)"><path id="path5286" fill="#fff" d="m 40,46.7 c -2.4,0 -4.6,1 -6.2,2.5 0,0 -0.1,0.1 -0.1,0.1 l 0,9.6 c 0,0.1 0.1,0.2 0.2,0.2 l 12.1,0 c 0.1,0 0.2,-0.1 0.2,-0.2 l 0,-9.6 c 0,-0.1 0,-0.1 -0.1,-0.1 -1.5,-1.5 -3.7,-2.5 -6.1,-2.5 z" class="st0"/><g id="g5288"><g id="g5290"><line id="line5292" x1="33.8" x2="34.3" y1="53.5" y2="53.5" fill="none" stroke="#646565" stroke-miterlimit="10" class="st1"/><polyline id="polyline5294" fill="none" stroke="#646565" stroke-miterlimit="10" points="34.8 53.5 35.3 53.5 35.3 54" class="st1"/><line id="line5296" x1="35.3" x2="35.3" y1="55.1" y2="56.9" fill="none" stroke="#646565" stroke-dasharray="1.173 1.173" stroke-miterlimit="10" class="st2"/><polyline id="polyline5298" fill="none" stroke="#646565" stroke-miterlimit="10" points="35.3 57.5 35.3 58 34.8 58" class="st1"/><line id="line5300" x1="34.3" x2="33.8" y1="58" y2="58" fill="none" stroke="#646565" stroke-miterlimit="10" class="st1"/></g></g><g id="g5302"><g id="g5304"><line id="line5306" x1="46.3" x2="45.8" y1="58" y2="58" fill="none" stroke="#646565" stroke-miterlimit="10" class="st1"/><polyline id="polyline5308" fill="none" stroke="#646565" stroke-miterlimit="10" points="45.3 58 44.8 58 44.8 57.5" class="st1"/><line id="line5310" x1="44.8" x2="44.8" y1="56.3" y2="54.6" fill="none" stroke="#646565" stroke-dasharray="1.173 1.173" stroke-miterlimit="10" class="st2"/><polyline id="polyline5312" fill="none" stroke="#646565" stroke-miterlimit="10" points="44.8 54 44.8 53.5 45.3 53.5" class="st1"/><line id="line5314" x1="45.8" x2="46.3" y1="53.5" y2="53.5" fill="none" stroke="#646565" stroke-miterlimit="10" class="st1"/></g></g></g><polygon id="polygon5316" fill="#fff" points="40 21.7 35.5 29.5 38.2 29.5 38.2 41.8 41.9 41.8 41.9 29.5 44.6 29.5" class="st0" transform="matrix(1.2,0,0,1.2,-7.9999999,-8.08)"/></svg>