<svg xmlns="http://www.w3.org/2000/svg" xmlns:svg="http://www.w3.org/2000/svg" id="Layer_1" x="0" y="0" enable-background="new 0 0 80 80" version="1.1" viewBox="0 0 80 80" xml:space="preserve"><metadata id="metadata4397"/><style id="style4357" type="text/css">.st0{fill:#fff}.st1,.st2{fill:none;stroke:#646565;stroke-miterlimit:10}.st2{stroke-dasharray:1.173,1.173}</style><path id="path4359" fill="#fff" d="m 31.77,48.21 -1.2,1.32 3.12,3.12 -12.96,3.48 3.48,-12.96 3.12,3.12 1.32,-1.32 c 3.24,-3.24 5.04,-7.56 5.04,-12.24 l 0,-5.4 4.44,0 0,5.4 c 0,5.88 -2.28,11.4 -6.36,15.48 z" class="st0"/><g id="g4361" transform="matrix(1.2,0,0,1.2,-7.83,-7.47)"><path id="path4363" fill="#fff" d="m 48.3,21.7 c -2.4,0 -4.6,1 -6.2,2.5 0,0 -0.1,0.1 -0.1,0.1 l 0,9.6 c 0,0.1 0.1,0.2 0.2,0.2 l 12.1,0 c 0.1,0 0.2,-0.1 0.2,-0.2 l 0,-9.6 c 0,-0.1 0,-0.1 -0.1,-0.1 -1.6,-1.6 -3.7,-2.5 -6.1,-2.5 z" class="st0"/><g id="g4365"><g id="g4367"><line id="line4369" x1="42" x2="42.5" y1="28.5" y2="28.5" fill="none" stroke="#646565" stroke-miterlimit="10" class="st1"/><polyline id="polyline4371" fill="none" stroke="#646565" stroke-miterlimit="10" points="43 28.5 43.5 28.5 43.5 29" class="st1"/><line id="line4373" x1="43.5" x2="43.5" y1="30.1" y2="31.9" fill="none" stroke="#646565" stroke-dasharray="1.173 1.173" stroke-miterlimit="10" class="st2"/><polyline id="polyline4375" fill="none" stroke="#646565" stroke-miterlimit="10" points="43.5 32.5 43.5 33 43 33" class="st1"/><line id="line4377" x1="42.5" x2="42" y1="33" y2="33" fill="none" stroke="#646565" stroke-miterlimit="10" class="st1"/></g></g><g id="g4379"><g id="g4381"><line id="line4383" x1="54.5" x2="54" y1="33" y2="33" fill="none" stroke="#646565" stroke-miterlimit="10" class="st1"/><polyline id="polyline4385" fill="none" stroke="#646565" stroke-miterlimit="10" points="53.5 33 53 33 53 32.5" class="st1"/><line id="line4387" x1="53" x2="53" y1="31.3" y2="29.5" fill="none" stroke="#646565" stroke-dasharray="1.173 1.173" stroke-miterlimit="10" class="st2"/><polyline id="polyline4389" fill="none" stroke="#646565" stroke-miterlimit="10" points="53 29 53 28.5 53.5 28.5" class="st1"/><line id="line4391" x1="54" x2="54.5" y1="28.5" y2="28.5" fill="none" stroke="#646565" stroke-miterlimit="10" class="st1"/></g></g></g></svg>