<svg xmlns="http://www.w3.org/2000/svg" xmlns:svg="http://www.w3.org/2000/svg" id="Layer_1" x="0" y="0" enable-background="new 0 0 80 80" version="1.1" viewBox="0 0 80 80" xml:space="preserve"><metadata id="metadata4271"/><style id="style4231" type="text/css">.st0{fill:#fff}.st1,.st2{fill:none;stroke:#646565;stroke-miterlimit:10}.st2{stroke-dasharray:1.173,1.173}</style><g id="g4233" transform="matrix(1.2,0,0,1.2,-8.13,-8.34)"><path id="path4235" fill="#fff" d="m 54.3,33 c -2.4,0 -4.6,1 -6.2,2.5 0,0 -0.1,0.1 -0.1,0.1 l 0,9.6 c 0,0.1 0.1,0.2 0.2,0.2 l 12.1,0 c 0.1,0 0.2,-0.1 0.2,-0.2 l 0,-9.6 c 0,-0.1 0,-0.1 -0.1,-0.1 C 58.8,34 56.7,33 54.3,33 Z" class="st0"/><g id="g4237"><g id="g4239"><line id="line4241" x1="48" x2="48.5" y1="39.8" y2="39.8" fill="none" stroke="#646565" stroke-miterlimit="10" class="st1"/><polyline id="polyline4243" fill="none" stroke="#646565" stroke-miterlimit="10" points="49 39.8 49.5 39.8 49.5 40.3" class="st1"/><line id="line4245" x1="49.5" x2="49.5" y1="41.5" y2="43.2" fill="none" stroke="#646565" stroke-dasharray="1.173 1.173" stroke-miterlimit="10" class="st2"/><polyline id="polyline4247" fill="none" stroke="#646565" stroke-miterlimit="10" points="49.5 43.8 49.5 44.3 49 44.3" class="st1"/><line id="line4249" x1="48.5" x2="48" y1="44.3" y2="44.3" fill="none" stroke="#646565" stroke-miterlimit="10" class="st1"/></g></g><g id="g4251"><g id="g4253"><line id="line4255" x1="60.5" x2="60" y1="44.3" y2="44.3" fill="none" stroke="#646565" stroke-miterlimit="10" class="st1"/><polyline id="polyline4257" fill="none" stroke="#646565" stroke-miterlimit="10" points="59.5 44.3 59 44.3 59 43.8" class="st1"/><line id="line4259" x1="59" x2="59" y1="42.6" y2="40.9" fill="none" stroke="#646565" stroke-dasharray="1.173 1.173" stroke-miterlimit="10" class="st2"/><polyline id="polyline4261" fill="none" stroke="#646565" stroke-miterlimit="10" points="59 40.3 59 39.8 59.5 39.8" class="st1"/><line id="line4263" x1="60" x2="60.5" y1="39.8" y2="39.8" fill="none" stroke="#646565" stroke-miterlimit="10" class="st1"/></g></g></g><path id="path4265" fill="#fff" d="m 16.83,40.14 c 0,-6.96 5.64,-12.72 12.72,-12.72 7.08,0 12.72,5.64 12.72,12.72 l -4.44,0 c 0,-4.56 -3.72,-8.16 -8.16,-8.16 -4.44,0 -8.16,3.72 -8.16,8.16 0,3.96 2.88,7.32 6.6,8.04 l 0,-3 9.36,5.4 -9.6,5.4 0,-3.24 C 21.63,51.9 16.83,46.62 16.83,40.14 Z" class="st0"/></svg>