<svg xmlns="http://www.w3.org/2000/svg" xmlns:svg="http://www.w3.org/2000/svg" id="Layer_1" x="0" y="0" enable-background="new 0 0 80 80" version="1.1" viewBox="0 0 80 80" xml:space="preserve"><metadata id="metadata5574"/><style id="style5534" type="text/css">.st0{fill:#fff}.st1,.st2{fill:none;stroke:#646565;stroke-miterlimit:10}.st2{stroke-dasharray:1.173,1.173}</style><g id="g5536" transform="matrix(1.2,0,0,1.2,-7.67,-8.29)"><path id="path5538" fill="#fff" d="m 28.9,44.1 c 2.4,0 4.6,1 6.2,2.5 0,0 0.1,0.1 0.1,0.1 l 0,9.6 c 0,0.1 -0.1,0.2 -0.2,0.2 l -12.1,0 c -0.1,0 -0.2,-0.1 -0.2,-0.2 l 0,-9.6 c 0,-0.1 0,-0.1 0.1,-0.1 1.6,-1.5 3.7,-2.5 6.1,-2.5 z" class="st0"/><g id="g5540"><g id="g5542"><line id="line5544" x1="35.2" x2="34.7" y1="50.9" y2="50.9" fill="none" stroke="#646565" stroke-miterlimit="10" class="st1"/><polyline id="polyline5546" fill="none" stroke="#646565" stroke-miterlimit="10" points="34.2 50.9 33.7 50.9 33.7 51.4" class="st1"/><line id="line5548" x1="33.7" x2="33.7" y1="52.5" y2="54.3" fill="none" stroke="#646565" stroke-dasharray="1.173 1.173" stroke-miterlimit="10" class="st2"/><polyline id="polyline5550" fill="none" stroke="#646565" stroke-miterlimit="10" points="33.7 54.9 33.7 55.4 34.2 55.4" class="st1"/><line id="line5552" x1="34.7" x2="35.2" y1="55.4" y2="55.4" fill="none" stroke="#646565" stroke-miterlimit="10" class="st1"/></g></g><g id="g5554"><g id="g5556"><line id="line5558" x1="22.7" x2="23.2" y1="55.4" y2="55.4" fill="none" stroke="#646565" stroke-miterlimit="10" class="st1"/><polyline id="polyline5560" fill="none" stroke="#646565" stroke-miterlimit="10" points="23.7 55.4 24.2 55.4 24.2 54.9" class="st1"/><line id="line5562" x1="24.2" x2="24.2" y1="53.7" y2="52" fill="none" stroke="#646565" stroke-dasharray="1.173 1.173" stroke-miterlimit="10" class="st2"/><polyline id="polyline5564" fill="none" stroke="#646565" stroke-miterlimit="10" points="24.2 51.4 24.2 50.9 23.7 50.9" class="st1"/><line id="line5566" x1="23.2" x2="22.7" y1="50.9" y2="50.9" fill="none" stroke="#646565" stroke-miterlimit="10" class="st1"/></g></g></g><path id="path5568" fill="#fff" d="m 45.97,31.31 1.32,-1.32 -3.12,-3.12 12.96,-3.48 -3.6,12.96 -3.12,-3.12 -1.32,1.32 c -3.24,3.24 -5.04,7.56 -5.04,12.24 l 0,5.4 -4.44,0 0,-5.4 c 0,-5.88 2.28,-11.4 6.36,-15.48 z" class="st0"/></svg>