<svg xmlns="http://www.w3.org/2000/svg" xmlns:svg="http://www.w3.org/2000/svg" id="Layer_1" x="0" y="0" enable-background="new 0 0 80 80" version="1.1" viewBox="0 0 80 80" xml:space="preserve"><metadata id="metadata5055"/><style id="style5015" type="text/css">.st0{fill:#fff}.st1,.st2{fill:none;stroke:#646565;stroke-miterlimit:10}.st2{stroke-dasharray:1.173,1.173}</style><g id="g5017" transform="matrix(1.2,0,0,1.2,-8.12,-8.34)"><path id="path5019" fill="#fff" d="m 27,33 c -2.4,0 -4.6,1 -6.2,2.5 0,0 -0.1,0.1 -0.1,0.1 l 0,9.6 c 0,0.1 0.1,0.2 0.2,0.2 l 12.1,0 c 0.1,0 0.2,-0.1 0.2,-0.2 l 0,-9.6 c 0,-0.1 0,-0.1 -0.1,-0.1 C 31.6,34 29.4,33 27,33 Z" class="st0"/><g id="g5021"><g id="g5023"><line id="line5025" x1="20.8" x2="21.3" y1="39.8" y2="39.8" fill="none" stroke="#646565" stroke-miterlimit="10" class="st1"/><polyline id="polyline5027" fill="none" stroke="#646565" stroke-miterlimit="10" points="21.7 39.8 22.2 39.8 22.2 40.3" class="st1"/><line id="line5029" x1="22.2" x2="22.2" y1="41.5" y2="43.2" fill="none" stroke="#646565" stroke-dasharray="1.173 1.173" stroke-miterlimit="10" class="st2"/><polyline id="polyline5031" fill="none" stroke="#646565" stroke-miterlimit="10" points="22.2 43.8 22.2 44.3 21.7 44.3" class="st1"/><line id="line5033" x1="21.3" x2="20.8" y1="44.3" y2="44.3" fill="none" stroke="#646565" stroke-miterlimit="10" class="st1"/></g></g><g id="g5035"><g id="g5037"><line id="line5039" x1="33.2" x2="32.7" y1="44.3" y2="44.3" fill="none" stroke="#646565" stroke-miterlimit="10" class="st1"/><polyline id="polyline5041" fill="none" stroke="#646565" stroke-miterlimit="10" points="32.2 44.3 31.7 44.3 31.7 43.8" class="st1"/><line id="line5043" x1="31.7" x2="31.7" y1="42.6" y2="40.9" fill="none" stroke="#646565" stroke-dasharray="1.173 1.173" stroke-miterlimit="10" class="st2"/><polyline id="polyline5045" fill="none" stroke="#646565" stroke-miterlimit="10" points="31.7 40.3 31.7 39.8 32.2 39.8" class="st1"/><line id="line5047" x1="32.7" x2="33.2" y1="39.8" y2="39.8" fill="none" stroke="#646565" stroke-miterlimit="10" class="st1"/></g></g></g><path id="path5049" fill="#fff" d="m 64.48,40.14 c 0,-6.96 -5.64,-12.72 -12.72,-12.72 -7.08,0 -12.72,5.64 -12.72,12.72 l 4.44,0 c 0,-4.56 3.72,-8.16 8.16,-8.16 4.44,0 8.16,3.72 8.16,8.16 0,3.96 -2.88,7.32 -6.6,8.04 l 0,-3 -9.36,5.4 9.36,5.4 0,-3.24 c 6.48,-0.84 11.28,-6.12 11.28,-12.6 z" class="st0"/></svg>