<svg xmlns="http://www.w3.org/2000/svg" xmlns:svg="http://www.w3.org/2000/svg" id="Layer_1" x="0" y="0" enable-background="new 0 0 80 80" version="1.1" viewBox="0 0 80 80" xml:space="preserve"><metadata id="metadata5137"/><style id="style5119" type="text/css">.st0{fill:#fff}.st1,.st2{fill:none;stroke-miterlimit:10}.st1{stroke:#646565;stroke-dasharray:1}.st2{stroke:#c7c7c7}.st3{fill:#ea2127}</style><g id="g5121" transform="matrix(1.2,0,0,1.2,-8.01,-8)"><path id="path5123" fill="#fff" d="m 40,25.1 c -5.8,0 -11,2.3 -14.8,6 -0.1,0.1 -0.1,0.2 -0.1,0.3 l 0,23 c 0,0.3 0.2,0.5 0.5,0.5 l 28.9,0 c 0.3,0 0.5,-0.2 0.5,-0.5 l 0,-23 c 0,-0.1 -0.1,-0.2 -0.1,-0.3 -3.9,-3.7 -9.1,-6 -14.9,-6 z" class="st0"/><polyline id="polyline5125" fill="none" stroke="#646565" stroke-dasharray="1" stroke-miterlimit="10" points="25.1 41.4 28.6 41.4 28.6 52.2 25.1 52.2" class="st1"/><polyline id="polyline5127" fill="none" stroke="#646565" stroke-dasharray="1" stroke-miterlimit="10" points="55 52.2 51.5 52.2 51.5 41.4 55 41.4" class="st1"/></g><circle id="circle5129" cx="39.99" cy="40" r="7.44" fill="none" stroke="#c7c7c7" stroke-miterlimit="10" stroke-width="1.2" class="st2"/><rect id="rect5131" width="6" height="6" x="37.11" y="37" fill="#ea2127" class="st3"/></svg>