<svg xmlns="http://www.w3.org/2000/svg" xmlns:svg="http://www.w3.org/2000/svg" id="Layer_1" x="0" y="0" enable-background="new 0 0 80 80" version="1.1" viewBox="0 0 80 80" xml:space="preserve"><metadata id="metadata4271"/><style id="style4231" type="text/css">.st0{fill:#fff}.st1,.st2{fill:none;stroke:#646565;stroke-miterlimit:10}.st2{stroke-dasharray:1.173,1.173}</style><g id="g4233" transform="matrix(1.2,0,0,1.2,-7.9999999,-8.08)"><path id="path4235" fill="#fff" d="m 40,21.7 c -2.4,0 -4.6,1 -6.2,2.5 0,0 -0.1,0.1 -0.1,0.1 l 0,9.6 c 0,0.1 0.1,0.2 0.2,0.2 l 12.1,0 c 0.1,0 0.2,-0.1 0.2,-0.2 l 0,-9.6 c 0,-0.1 0,-0.1 -0.1,-0.1 -1.5,-1.6 -3.7,-2.5 -6.1,-2.5 z" class="st0"/><g id="g4237"><g id="g4239"><line id="line4241" x1="33.8" x2="34.3" y1="28.5" y2="28.5" fill="none" stroke="#646565" stroke-miterlimit="10" class="st1"/><polyline id="polyline4243" fill="none" stroke="#646565" stroke-miterlimit="10" points="34.8 28.5 35.3 28.5 35.3 29" class="st1"/><line id="line4245" x1="35.3" x2="35.3" y1="30.1" y2="31.9" fill="none" stroke="#646565" stroke-dasharray="1.173 1.173" stroke-miterlimit="10" class="st2"/><polyline id="polyline4247" fill="none" stroke="#646565" stroke-miterlimit="10" points="35.3 32.5 35.3 33 34.8 33" class="st1"/><line id="line4249" x1="34.3" x2="33.8" y1="33" y2="33" fill="none" stroke="#646565" stroke-miterlimit="10" class="st1"/></g></g><g id="g4251"><g id="g4253"><line id="line4255" x1="46.3" x2="45.8" y1="33" y2="33" fill="none" stroke="#646565" stroke-miterlimit="10" class="st1"/><polyline id="polyline4257" fill="none" stroke="#646565" stroke-miterlimit="10" points="45.3 33 44.8 33 44.8 32.5" class="st1"/><line id="line4259" x1="44.8" x2="44.8" y1="31.3" y2="29.5" fill="none" stroke="#646565" stroke-dasharray="1.173 1.173" stroke-miterlimit="10" class="st2"/><polyline id="polyline4261" fill="none" stroke="#646565" stroke-miterlimit="10" points="44.8 29 44.8 28.5 45.3 28.5" class="st1"/><line id="line4263" x1="45.8" x2="46.3" y1="28.5" y2="28.5" fill="none" stroke="#646565" stroke-miterlimit="10" class="st1"/></g></g></g><polygon id="polygon4265" fill="#fff" points="40 59.1 44.6 51.3 41.9 51.3 41.9 39 38.2 39 38.2 51.3 35.5 51.3" class="st0" transform="matrix(1.2,0,0,1.2,-7.9999999,-8.08)"/></svg>