<svg xmlns="http://www.w3.org/2000/svg" xmlns:svg="http://www.w3.org/2000/svg" id="Layer_1" x="0" y="0" enable-background="new 0 0 80 80" version="1.1" viewBox="0 0 80 80" xml:space="preserve"><metadata id="metadata4191"/><style id="style4137" type="text/css">.st0{fill:#fff}.st1,.st2{fill:none;stroke:#646565;stroke-miterlimit:10}.st2{stroke-dasharray:1.173,1.173}</style><g id="g4139" transform="matrix(1.2,0,0,1.2,-8.01,-8)"><path id="path4141" fill="#fff" d="m 40,33.8 c -2.4,0 -4.6,1 -6.2,2.5 0,0 -0.1,0.1 -0.1,0.1 l 0,9.6 c 0,0.1 0.1,0.2 0.2,0.2 l 12.1,0 c 0.1,0 0.2,-0.1 0.2,-0.2 l 0,-9.6 c 0,-0.1 0,-0.1 -0.1,-0.1 -1.5,-1.6 -3.7,-2.5 -6.1,-2.5 z" class="st0"/><g id="g4143"><g id="g4145"><line id="line4147" x1="33.8" x2="34.3" y1="40.6" y2="40.6" fill="none" stroke="#646565" stroke-miterlimit="10" class="st1"/><polyline id="polyline4149" fill="none" stroke="#646565" stroke-miterlimit="10" points="34.8 40.6 35.3 40.6 35.3 41.1" class="st1"/><line id="line4151" x1="35.3" x2="35.3" y1="42.2" y2="44" fill="none" stroke="#646565" stroke-dasharray="1.173 1.173" stroke-miterlimit="10" class="st2"/><polyline id="polyline4153" fill="none" stroke="#646565" stroke-miterlimit="10" points="35.3 44.6 35.3 45.1 34.8 45.1" class="st1"/><line id="line4155" x1="34.3" x2="33.8" y1="45.1" y2="45.1" fill="none" stroke="#646565" stroke-miterlimit="10" class="st1"/></g></g><g id="g4157"><g id="g4159"><line id="line4161" x1="46.3" x2="45.8" y1="45.1" y2="45.1" fill="none" stroke="#646565" stroke-miterlimit="10" class="st1"/><polyline id="polyline4163" fill="none" stroke="#646565" stroke-miterlimit="10" points="45.3 45.1 44.8 45.1 44.8 44.6" class="st1"/><line id="line4165" x1="44.8" x2="44.8" y1="43.4" y2="41.6" fill="none" stroke="#646565" stroke-dasharray="1.173 1.173" stroke-miterlimit="10" class="st2"/><polyline id="polyline4167" fill="none" stroke="#646565" stroke-miterlimit="10" points="44.8 41.1 44.8 40.6 45.3 40.6" class="st1"/><line id="line4169" x1="45.8" x2="46.3" y1="40.6" y2="40.6" fill="none" stroke="#646565" stroke-miterlimit="10" class="st1"/></g></g></g><polygon id="polygon4171" fill="#fff" points="40 16.5 37.6 20.7 39 20.7 39 27.3 41.1 27.3 41.1 20.7 42.5 20.7" class="st0" transform="matrix(1.2,0,0,1.2,-8.01,-8)"/><polygon id="polygon4173" fill="#fff" points="41.1 52.7 39 52.7 39 59.3 37.6 59.3 40 63.5 42.5 59.3 41.1 59.3" class="st0" transform="matrix(1.2,0,0,1.2,-8.01,-8)"/><path id="path4175" fill="#fff" d="m 69.51,40.12 c 0,-3.72 -3.12,-6.84 -6.84,-6.84 -3.72,0 -6.84,3.12 -6.84,6.84 l 2.4,0 c 0,-2.4 2.04,-4.44 4.44,-4.44 2.4,0 4.44,2.04 4.44,4.44 0,2.16 -1.56,3.96 -3.6,4.32 l 0,-1.68 -5.04,2.88 5.04,2.88 0,-1.8 c 3.36,-0.24 6,-3.12 6,-6.6 z" class="st0"/><path id="path4177" fill="#fff" d="m 17.43,36.16 c 2.4,0 4.44,2.04 4.44,4.44 l 2.4,0 c 0,-3.72 -3.12,-6.84 -6.84,-6.84 -3.72,0 -6.84,3.12 -6.84,6.84 0,3.48 2.64,6.36 6,6.72 l 0,1.8 5.04,-2.88 -5.04,-2.88 0,1.68 c -2.04,-0.36 -3.6,-2.16 -3.6,-4.32 0.12,-2.52 2.04,-4.56 4.44,-4.56 z" class="st0"/><path id="path4179" fill="#fff" d="m 58.47,19.96 -5.64,1.56 1.2,1.2 -0.48,0.48 c -1.8,1.8 -2.88,4.32 -2.88,6.84 l 0,2.4 2.4,0 0,-2.4 c 0,-1.92 0.72,-3.84 2.16,-5.16 l 0.6,-0.6 1.2,1.2 1.44,-5.52 z" class="st0"/><path id="path4181" fill="#fff" d="m 26.67,23.08 -0.6,-0.6 1.2,-1.2 -5.64,-1.56 1.56,5.64 1.2,-1.2 0.6,0.6 c 1.32,1.32 2.16,3.24 2.16,5.16 l 0,2.4 2.4,0 0,-2.4 c 0,-2.52 -1.08,-5.04 -2.88,-6.84 z" class="st0"/><path id="path4183" fill="#fff" d="m 30.39,51.04 0,-2.4 -2.4,0 0,2.4 c 0,1.92 -0.72,3.84 -2.16,5.16 l -0.6,0.6 -1.2,-1.2 -1.56,5.64 5.64,-1.56 -1.2,-1.2 0.6,-0.6 c 1.8,-1.8 2.88,-4.2 2.88,-6.84 z" class="st0"/><path id="path4185" fill="#fff" d="m 57.75,61 -1.56,-5.64 -1.2,1.2 -0.6,-0.48 c -1.32,-1.32 -2.16,-3.24 -2.16,-5.16 l 0,-2.4 -2.4,0 0,2.4 c 0,2.64 0.96,5.04 2.88,6.84 l 0.6,0.6 -1.2,1.2 5.64,1.44 z" class="st0"/></svg>