<svg xmlns="http://www.w3.org/2000/svg" xmlns:svg="http://www.w3.org/2000/svg" id="Layer_1" x="0" y="0" enable-background="new 0 0 80 80" version="1.1" viewBox="0 0 80 80" xml:space="preserve"><metadata id="metadata4523"/><style id="style4483" type="text/css">.st0{fill:#fff}.st1,.st2{fill:none;stroke:#646565;stroke-miterlimit:10}.st2{stroke-dasharray:1.173,1.173}</style><path id="path4485" fill="#fff" d="m 45.92,48.21 1.32,1.32 -3.12,3.12 12.84,3.48 -3.48,-12.96 -3.12,3.12 -1.32,-1.32 C 45.8,41.73 44,37.41 44,32.73 l 0,-5.4 -4.44,0 0,5.4 c 0,5.88 2.28,11.4 6.36,15.48 z" class="st0"/><g id="g4487" transform="matrix(1.2,0,0,1.2,-7.7199999,-7.47)"><path id="path4489" fill="#fff" d="m 29.5,21.7 c 2.4,0 4.6,1 6.2,2.5 0,0 0.1,0.1 0.1,0.1 l 0,9.6 c 0,0.1 -0.1,0.2 -0.2,0.2 l -12.1,0 c -0.1,0 -0.2,-0.1 -0.2,-0.2 l 0,-9.6 c 0,-0.1 0,-0.1 0.1,-0.1 1.5,-1.6 3.7,-2.5 6.1,-2.5 z" class="st0"/><g id="g4491"><g id="g4493"><line id="line4495" x1="35.7" x2="35.2" y1="28.5" y2="28.5" fill="none" stroke="#646565" stroke-miterlimit="10" class="st1"/><polyline id="polyline4497" fill="none" stroke="#646565" stroke-miterlimit="10" points="34.7 28.5 34.2 28.5 34.2 29" class="st1"/><line id="line4499" x1="34.2" x2="34.2" y1="30.1" y2="31.9" fill="none" stroke="#646565" stroke-dasharray="1.173 1.173" stroke-miterlimit="10" class="st2"/><polyline id="polyline4501" fill="none" stroke="#646565" stroke-miterlimit="10" points="34.2 32.5 34.2 33 34.7 33" class="st1"/><line id="line4503" x1="35.2" x2="35.7" y1="33" y2="33" fill="none" stroke="#646565" stroke-miterlimit="10" class="st1"/></g></g><g id="g4505"><g id="g4507"><line id="line4509" x1="23.3" x2="23.8" y1="33" y2="33" fill="none" stroke="#646565" stroke-miterlimit="10" class="st1"/><polyline id="polyline4511" fill="none" stroke="#646565" stroke-miterlimit="10" points="24.2 33 24.7 33 24.7 32.5" class="st1"/><line id="line4513" x1="24.7" x2="24.7" y1="31.3" y2="29.5" fill="none" stroke="#646565" stroke-dasharray="1.173 1.173" stroke-miterlimit="10" class="st2"/><polyline id="polyline4515" fill="none" stroke="#646565" stroke-miterlimit="10" points="24.7 29 24.7 28.5 24.2 28.5" class="st1"/><line id="line4517" x1="23.8" x2="23.3" y1="28.5" y2="28.5" fill="none" stroke="#646565" stroke-miterlimit="10" class="st1"/></g></g></g></svg>