<svg xmlns="http://www.w3.org/2000/svg" xmlns:svg="http://www.w3.org/2000/svg" xmlns:xlink="http://www.w3.org/1999/xlink" id="svg7110" width="320" height="320" version="1.1"><defs id="defs7112"><linearGradient id="white-0"><stop id="stop4290" offset="0" stop-color="#fff" stop-opacity="1"/><stop id="stop4292" offset="1" stop-color="#fff" stop-opacity="0"/></linearGradient><linearGradient id="gradient4-8-4" x1="0" x2="1" y1="0" y2="0" gradientUnits="objectBoundingBox"><stop id="stop4284" offset="0" stop-color="#000" stop-opacity="1"/><stop id="stop4286" offset="1" stop-color="#00f" stop-opacity="1"/></linearGradient><linearGradient id="linearGradient7104" x1="0" x2="98.468" y1="0" y2="0" gradientTransform="matrix(2.0514223,0,0,0.48746668,1980.1973,75.1436)" gradientUnits="userSpaceOnUse" xlink:href="#gradient2-1"/><linearGradient id="gradient2-1" x1="0" x2="1" y1="0" y2="0" gradientUnits="objectBoundingBox"><stop id="stop115-7" offset="0" stop-color="#000" stop-opacity="1"/><stop id="stop117-4" offset="1" stop-color="red" stop-opacity="1"/></linearGradient><linearGradient id="linearGradient7106" x1="0" x2="98.468" y1="0" y2="0" gradientTransform="matrix(2.0514223,0,0,0.48746668,1980.1973,139.1436)" gradientUnits="userSpaceOnUse" xlink:href="#gradient3-0"/><linearGradient id="gradient3-0" x1="0" x2="1" y1="0" y2="0" gradientUnits="objectBoundingBox"><stop id="stop120-9" offset="0" stop-color="#000" stop-opacity="1"/><stop id="stop122-4" offset="1" stop-color="#0f0" stop-opacity="1"/></linearGradient><linearGradient id="linearGradient7108" x1="0" x2="98.468" y1="0" y2="0" gradientTransform="matrix(2.0514223,0,0,0.48746668,1980.1973,203.1436)" gradientUnits="userSpaceOnUse" xlink:href="#gradient4-8"/><linearGradient id="gradient4-8" x1="0" x2="1" y1="0" y2="0" gradientUnits="objectBoundingBox"><stop id="stop125-8" offset="0" stop-color="#000" stop-opacity="1"/><stop id="stop127-2" offset="1" stop-color="#00f" stop-opacity="1"/></linearGradient><radialGradient id="radialGradient4294" cx="2081.197" cy="55.144" r="15" fx="2081.197" fy="55.144" gradientUnits="userSpaceOnUse" xlink:href="#white-0"/></defs><metadata id="metadata7115"/><g id="layer1" transform="translate(208.21396,-569.14767)"><g id="g7075" transform="matrix(1.2499996,0,0,1.2499996,-2649.7098,550.21818)"><path id="path658-2" fill="#0096db" fill-opacity="1" fill-rule="evenodd" stroke="none" d="m 1953.1973,20.1436 c 0,-2.76142 2.2386,-5 5,-5 l 246,0 c 2.761,0 5,2.23858 5,5 l 0,246 c 0,2.761 -2.239,5 -5,5 l -246,0 c -2.7614,0 -5,-2.239 -5,-5 l 0,-246" font-family="MS Shell Dlg 2" font-size="8.25" font-style="normal" font-weight="400" vector-effect="non-scaling-stroke"/><path id="path662-0" fill="#505050" fill-opacity="1" fill-rule="evenodd" stroke="none" d="m 2205.1973,97.1436 c 0,-39.7645 -55.517,-72 -124,-72 -68.4833,0 -124,32.2355 -124,72 l 248,0" font-family="MS Shell Dlg 2" font-size="8.25" font-style="normal" font-weight="400" vector-effect="non-scaling-stroke"/><path id="path664-3" fill="#505050" fill-opacity="1" fill-rule="evenodd" stroke="none" d="m 1957.1973,96.1436 c 0,-2.7614 2.2386,-5 5,-5 l 238,0 c 2.761,0 5,2.2386 5,5 l 0,166 c 0,2.761 -2.239,5 -5,5 l -238,0 c -2.7614,0 -5,-2.239 -5,-5 l 0,-166" font-family="MS Shell Dlg 2" font-size="8.25" font-style="normal" font-weight="400" vector-effect="non-scaling-stroke"/><path id="path668-1" fill="#000" fill-opacity="1" fill-rule="evenodd" stroke="none" d="m 1953.1973,173.1436 18,0 0,80 -18,0 0,-80" font-family="MS Shell Dlg 2" font-size="8.25" font-style="normal" font-weight="400" vector-effect="non-scaling-stroke"/><path id="path670-8" fill="#000" fill-opacity="1" fill-rule="evenodd" stroke="none" d="m 2191.1973,173.1436 18,0 0,80 -18,0 0,-80" font-family="MS Shell Dlg 2" font-size="8.25" font-style="normal" font-weight="400" vector-effect="non-scaling-stroke"/><path id="path674-9" fill="url(#radialGradient4294)" fill-opacity="1" fill-rule="evenodd" stroke="none" d="m 2066.1973,40.1436 30,0 0,30 -30,0 0,-30" font-family="MS Shell Dlg 2" font-size="8.25" font-style="normal" font-weight="400" vector-effect="non-scaling-stroke"/><path id="path684-2" fill="#f0f0f0" fill-opacity="1" fill-rule="evenodd" stroke="none" d="m 1980.1973,75.1436 202,0 0,48 -202,0 0,-48" font-family="MS Shell Dlg 2" font-size="8.25" font-style="normal" font-weight="400" vector-effect="non-scaling-stroke"/><path id="path690-6" fill="url(#linearGradient7104)" fill-rule="evenodd" stroke="none" d="m 1980.1973,75.1436 202,0 0,48 -202,0 0,-48" font-family="MS Shell Dlg 2" font-size="8.25" font-style="normal" font-weight="400" vector-effect="non-scaling-stroke"/><path id="path694-7" fill="#fff" fill-opacity="1" fill-rule="evenodd" stroke="none" d="m 1980.1973,75.1436 48,0 0,48 -48,0 0,-48" font-family="MS Shell Dlg 2" font-size="8.25" font-style="normal" font-weight="400" vector-effect="non-scaling-stroke"/><path id="path700-9" fill="#000" fill-opacity="1" fill-rule="evenodd" stroke="none" d="m 1980.1973,119.1436 48,0 0,4 -48,0 0,-4" font-family="MS Shell Dlg 2" font-size="8.25" font-style="normal" font-weight="400" vector-effect="non-scaling-stroke"/><path id="path706-9" fill="#000" fill-opacity="1" fill-rule="evenodd" stroke="none" d="m 2024.1973,75.1436 4,0 0,48 -4,0 0,-48" font-family="MS Shell Dlg 2" font-size="8.25" font-style="normal" font-weight="400" vector-effect="non-scaling-stroke"/><path id="path712-8" fill="#000" fill-opacity="1" fill-rule="evenodd" stroke="none" d="m 1980.1973,75.1436 4,0 0,48 -4,0 0,-48" font-family="MS Shell Dlg 2" font-size="8.25" font-style="normal" font-weight="400" vector-effect="non-scaling-stroke"/><path id="path718-5" fill="#000" fill-opacity="1" fill-rule="evenodd" stroke="none" d="m 1980.1973,75.1436 48,0 0,4 -48,0 0,-4" font-family="MS Shell Dlg 2" font-size="8.25" font-style="normal" font-weight="400" vector-effect="non-scaling-stroke"/><path id="path732-8" fill="#f0f0f0" fill-opacity="1" fill-rule="evenodd" stroke="none" d="m 1980.1973,139.1436 202,0 0,48 -202,0 0,-48" font-family="MS Shell Dlg 2" font-size="8.25" font-style="normal" font-weight="400" vector-effect="non-scaling-stroke"/><path id="path738-3" fill="url(#linearGradient7106)" fill-rule="evenodd" stroke="none" d="m 1980.1973,139.1436 202,0 0,48 -202,0 0,-48" font-family="MS Shell Dlg 2" font-size="8.25" font-style="normal" font-weight="400" vector-effect="non-scaling-stroke"/><path id="path742-6" fill="#fff" fill-opacity="1" fill-rule="evenodd" stroke="none" d="m 1980.1973,139.1436 48,0 0,48 -48,0 0,-48" font-family="MS Shell Dlg 2" font-size="8.25" font-style="normal" font-weight="400" vector-effect="non-scaling-stroke"/><path id="path748-9" fill="#000" fill-opacity="1" fill-rule="evenodd" stroke="none" d="m 1980.1973,183.1436 48,0 0,4 -48,0 0,-4" font-family="MS Shell Dlg 2" font-size="8.25" font-style="normal" font-weight="400" vector-effect="non-scaling-stroke"/><path id="path754-9" fill="#000" fill-opacity="1" fill-rule="evenodd" stroke="none" d="m 2024.1973,139.1436 4,0 0,48 -4,0 0,-48" font-family="MS Shell Dlg 2" font-size="8.25" font-style="normal" font-weight="400" vector-effect="non-scaling-stroke"/><path id="path760-7" fill="#000" fill-opacity="1" fill-rule="evenodd" stroke="none" d="m 1980.1973,139.1436 4,0 0,48 -4,0 0,-48" font-family="MS Shell Dlg 2" font-size="8.25" font-style="normal" font-weight="400" vector-effect="non-scaling-stroke"/><path id="path766-5" fill="#000" fill-opacity="1" fill-rule="evenodd" stroke="none" d="m 1980.1973,139.1436 48,0 0,4 -48,0 0,-4" font-family="MS Shell Dlg 2" font-size="8.25" font-style="normal" font-weight="400" vector-effect="non-scaling-stroke"/><path id="path780-6" fill="#f0f0f0" fill-opacity="1" fill-rule="evenodd" stroke="none" d="m 1980.1973,203.1436 202,0 0,48 -202,0 0,-48" font-family="MS Shell Dlg 2" font-size="8.25" font-style="normal" font-weight="400" vector-effect="non-scaling-stroke"/><path id="path786-3" fill="url(#linearGradient7108)" fill-rule="evenodd" stroke="none" d="m 1980.1973,203.1436 202,0 0,48 -202,0 0,-48" font-family="MS Shell Dlg 2" font-size="8.25" font-style="normal" font-weight="400" vector-effect="non-scaling-stroke"/><path id="path790-5" fill="#fff" fill-opacity="1" fill-rule="evenodd" stroke="none" d="m 1980.1973,203.1436 48,0 0,48 -48,0 0,-48" font-family="MS Shell Dlg 2" font-size="8.25" font-style="normal" font-weight="400" vector-effect="non-scaling-stroke"/><path id="path796-2" fill="#000" fill-opacity="1" fill-rule="evenodd" stroke="none" d="m 1980.1973,247.1436 48,0 0,4 -48,0 0,-4" font-family="MS Shell Dlg 2" font-size="8.25" font-style="normal" font-weight="400" vector-effect="non-scaling-stroke"/><path id="path802-5" fill="#000" fill-opacity="1" fill-rule="evenodd" stroke="none" d="m 2024.1973,203.1436 4,0 0,48 -4,0 0,-48" font-family="MS Shell Dlg 2" font-size="8.25" font-style="normal" font-weight="400" vector-effect="non-scaling-stroke"/><path id="path808-1" fill="#000" fill-opacity="1" fill-rule="evenodd" stroke="none" d="m 1980.1973,203.1436 4,0 0,48 -4,0 0,-48" font-family="MS Shell Dlg 2" font-size="8.25" font-style="normal" font-weight="400" vector-effect="non-scaling-stroke"/><path id="path814-2" fill="#000" fill-opacity="1" fill-rule="evenodd" stroke="none" d="m 1980.1973,203.1436 48,0 0,4 -48,0 0,-4" font-family="MS Shell Dlg 2" font-size="8.25" font-style="normal" font-weight="400" vector-effect="non-scaling-stroke"/></g></g></svg>