<svg xmlns="http://www.w3.org/2000/svg" xmlns:svg="http://www.w3.org/2000/svg" xmlns:xlink="http://www.w3.org/1999/xlink" id="svg7110" width="320" height="320" version="1.1"><defs id="defs7112"><linearGradient id="gradient2-1" x1="0" x2="1" y1="0" y2="0" gradientUnits="objectBoundingBox"><stop id="stop115-7" offset="0" stop-color="#000" stop-opacity="1"/><stop id="stop117-4" offset="1" stop-color="red" stop-opacity="1"/></linearGradient><linearGradient id="gradient3-0" x1="0" x2="1" y1="0" y2="0" gradientUnits="objectBoundingBox"><stop id="stop120-9" offset="0" stop-color="#000" stop-opacity="1"/><stop id="stop122-4" offset="1" stop-color="#0f0" stop-opacity="1"/></linearGradient><linearGradient id="gradient4-8" x1="0" x2="1" y1="0" y2="0" gradientUnits="objectBoundingBox"><stop id="stop125-8" offset="0" stop-color="#000" stop-opacity="1"/><stop id="stop127-2" offset="1" stop-color="#00f" stop-opacity="1"/></linearGradient><linearGradient id="linearGradient7069" x1="0" x2="98.468" y1="0" y2="0" gradientTransform="matrix(2.0514223,0,0,0.48746668,1980.1973,515.1436)" gradientUnits="userSpaceOnUse" xlink:href="#gradient5-4"/><linearGradient id="gradient5-4" x1="0" x2="1" y1="0" y2="0" gradientUnits="objectBoundingBox"><stop id="stop130-5" offset="0" stop-color="#000" stop-opacity="1"/><stop id="stop132-5" offset="1" stop-color="red" stop-opacity="1"/></linearGradient><linearGradient id="linearGradient7071" x1="0" x2="98.468" y1="0" y2="0" gradientTransform="matrix(2.0514223,0,0,0.48746668,1980.1973,579.1436)" gradientUnits="userSpaceOnUse" xlink:href="#gradient6-1"/><linearGradient id="gradient6-1" x1="0" x2="1" y1="0" y2="0" gradientUnits="objectBoundingBox"><stop id="stop135-7" offset="0" stop-color="#000" stop-opacity="1"/><stop id="stop137-1" offset="1" stop-color="#0f0" stop-opacity="1"/></linearGradient><linearGradient id="linearGradient7073" x1="0" x2="98.468" y1="0" y2="0" gradientTransform="matrix(2.0514223,0,0,0.48746668,1980.1973,643.1436)" gradientUnits="userSpaceOnUse" xlink:href="#gradient7-1"/><linearGradient id="gradient7-1" x1="0" x2="1" y1="0" y2="0" gradientUnits="objectBoundingBox"><stop id="stop140-5" offset="0" stop-color="#000" stop-opacity="1"/><stop id="stop142-2" offset="1" stop-color="#00f" stop-opacity="1"/></linearGradient></defs><metadata id="metadata7115"/><g id="layer1" transform="translate(311.07094,-72.004762)"><g id="g11257" transform="matrix(1.2499996,0,0,1.2499996,-6065.9706,1048.2327)"><path id="path8258" fill="#0096db" fill-opacity="1" fill-rule="evenodd" stroke="none" d="m 4603.9212,-775.9826 c 0,-2.76142 2.2386,-5 5,-5 l 246,0 c 2.761,0 5,2.23858 5,5 l 0,246 c 0,2.761 -2.239,5 -5,5 l -246,0 c -2.7614,0 -5,-2.239 -5,-5 l 0,-246" font-family="MS Shell Dlg 2" font-size="8.25" font-style="normal" font-weight="400" vector-effect="non-scaling-stroke"/><path id="path8262" fill="#fff" fill-opacity="1" fill-rule="evenodd" stroke="none" d="m 4855.9212,-698.9826 c 0,-39.7645 -55.517,-72 -124,-72 -68.4833,0 -124,32.2355 -124,72 l 248,0" font-family="MS Shell Dlg 2" font-size="8.25" font-style="normal" font-weight="400" vector-effect="non-scaling-stroke"/><path id="path8264" fill="#fff" fill-opacity="1" fill-rule="evenodd" stroke="none" d="m 4607.9212,-699.9826 c 0,-2.7614 2.2386,-5 5,-5 l 238,0 c 2.761,0 5,2.2386 5,5 l 0,166 c 0,2.761 -2.239,5 -5,5 l -238,0 c -2.7614,0 -5,-2.239 -5,-5 l 0,-166" font-family="MS Shell Dlg 2" font-size="8.25" font-style="normal" font-weight="400" vector-effect="non-scaling-stroke"/><path id="path8272" fill="none" stroke="silver" stroke-linecap="round" stroke-linejoin="round" stroke-opacity="1" stroke-width="35" d="m 4701.3629,-720.9458 c -20.6379,5.5257 -36.8886,21.78016 -42.4089,42.4202" font-family="MS Shell Dlg 2" font-size="8.25" font-style="normal" font-weight="400" vector-effect="none"/><path id="path8276" fill="none" stroke="#dcdcdc" stroke-linecap="round" stroke-linejoin="round" stroke-opacity="1" stroke-width="25" d="m 4701.3629,-720.9458 c -20.6379,5.5257 -36.8886,21.78016 -42.4089,42.4202" font-family="MS Shell Dlg 2" font-size="8.25" font-style="normal" font-weight="400" vector-effect="none"/><path id="path8284" fill="none" stroke="silver" stroke-linecap="round" stroke-linejoin="round" stroke-opacity="1" stroke-width="35" d="m 4804.8844,-678.5409 c -5.5257,-20.63787 -21.7802,-36.8886 -42.4202,-42.4089" font-family="MS Shell Dlg 2" font-size="8.25" font-style="normal" font-weight="400" vector-effect="none"/><path id="path8288" fill="none" stroke="#dcdcdc" stroke-linecap="round" stroke-linejoin="round" stroke-opacity="1" stroke-width="25" d="m 4804.8844,-678.5409 c -5.5257,-20.63787 -21.7802,-36.8886 -42.4202,-42.4089" font-family="MS Shell Dlg 2" font-size="8.25" font-style="normal" font-weight="400" vector-effect="none"/><path id="path8296" fill="none" stroke="silver" stroke-linecap="round" stroke-linejoin="round" stroke-opacity="1" stroke-width="35" d="m 4658.958,-617.4243 c 5.5257,20.63787 21.7802,36.8886 42.4202,42.4089" font-family="MS Shell Dlg 2" font-size="8.25" font-style="normal" font-weight="400" vector-effect="none"/><path id="path8300" fill="none" stroke="#dcdcdc" stroke-linecap="round" stroke-linejoin="round" stroke-opacity="1" stroke-width="25" d="m 4658.958,-617.4243 c 5.5257,20.63787 21.7802,36.8886 42.4202,42.4089" font-family="MS Shell Dlg 2" font-size="8.25" font-style="normal" font-weight="400" vector-effect="none"/><path id="path8308" fill="none" stroke="silver" stroke-linecap="round" stroke-linejoin="round" stroke-opacity="1" stroke-width="35" d="m 4762.4795,-575.0194 c 20.6379,-5.5257 36.8886,-21.78016 42.4089,-42.4202" font-family="MS Shell Dlg 2" font-size="8.25" font-style="normal" font-weight="400" vector-effect="none"/><path id="path8312" fill="none" stroke="#dcdcdc" stroke-linecap="round" stroke-linejoin="round" stroke-opacity="1" stroke-width="25" d="m 4762.4795,-575.0194 c 20.6379,-5.5257 36.8886,-21.78016 42.4089,-42.4202" font-family="MS Shell Dlg 2" font-size="8.25" font-style="normal" font-weight="400" vector-effect="none"/></g></g></svg>