<svg xmlns="http://www.w3.org/2000/svg" xmlns:svg="http://www.w3.org/2000/svg" xmlns:xlink="http://www.w3.org/1999/xlink" id="svg7110" width="320" height="320" version="1.1"><defs id="defs7112"><linearGradient id="linearGradient7104" x1="0" x2="98.468" y1="0" y2="0" gradientTransform="matrix(2.0514223,0,0,0.48746668,1980.1973,75.1436)" gradientUnits="userSpaceOnUse" xlink:href="#gradient2-1"/><linearGradient id="gradient2-1" x1="0" x2="1" y1="0" y2="0" gradientUnits="objectBoundingBox"><stop id="stop115-7" offset="0" stop-color="#000" stop-opacity="1"/><stop id="stop117-4" offset="1" stop-color="red" stop-opacity="1"/></linearGradient><linearGradient id="linearGradient7106" x1="0" x2="98.468" y1="0" y2="0" gradientTransform="matrix(2.0514223,0,0,0.48746668,1980.1973,139.1436)" gradientUnits="userSpaceOnUse" xlink:href="#gradient3-0"/><linearGradient id="gradient3-0" x1="0" x2="1" y1="0" y2="0" gradientUnits="objectBoundingBox"><stop id="stop120-9" offset="0" stop-color="#000" stop-opacity="1"/><stop id="stop122-4" offset="1" stop-color="#0f0" stop-opacity="1"/></linearGradient><linearGradient id="linearGradient7108" x1="0" x2="98.468" y1="0" y2="0" gradientTransform="matrix(2.0514223,0,0,0.48746668,1980.1973,203.1436)" gradientUnits="userSpaceOnUse" xlink:href="#gradient4-8"/><linearGradient id="gradient4-8" x1="0" x2="1" y1="0" y2="0" gradientUnits="objectBoundingBox"><stop id="stop125-8" offset="0" stop-color="#000" stop-opacity="1"/><stop id="stop127-2" offset="1" stop-color="#00f" stop-opacity="1"/></linearGradient><linearGradient id="linearGradient7069" x1="0" x2="98.468" y1="0" y2="0" gradientTransform="matrix(2.0514223,0,0,0.48746668,1980.1973,515.1436)" gradientUnits="userSpaceOnUse" xlink:href="#gradient5-4"/><linearGradient id="gradient5-4" x1="0" x2="1" y1="0" y2="0" gradientUnits="objectBoundingBox"><stop id="stop130-5" offset="0" stop-color="#000" stop-opacity="1"/><stop id="stop132-5" offset="1" stop-color="red" stop-opacity="1"/></linearGradient><linearGradient id="linearGradient7071" x1="0" x2="98.468" y1="0" y2="0" gradientTransform="matrix(2.0514223,0,0,0.48746668,1980.1973,579.1436)" gradientUnits="userSpaceOnUse" xlink:href="#gradient6-1"/><linearGradient id="gradient6-1" x1="0" x2="1" y1="0" y2="0" gradientUnits="objectBoundingBox"><stop id="stop135-7" offset="0" stop-color="#000" stop-opacity="1"/><stop id="stop137-1" offset="1" stop-color="#0f0" stop-opacity="1"/></linearGradient><linearGradient id="linearGradient7073" x1="0" x2="98.468" y1="0" y2="0" gradientTransform="matrix(2.0514223,0,0,0.48746668,1980.1973,643.1436)" gradientUnits="userSpaceOnUse" xlink:href="#gradient7-1"/><linearGradient id="gradient7-1" x1="0" x2="1" y1="0" y2="0" gradientUnits="objectBoundingBox"><stop id="stop140-5" offset="0" stop-color="#000" stop-opacity="1"/><stop id="stop142-2" offset="1" stop-color="#00f" stop-opacity="1"/></linearGradient></defs><metadata id="metadata7115"/><g id="layer1" transform="translate(285.35676,-77.719058)"><g id="g7043" transform="matrix(1.2499996,0,0,1.2499996,-2726.8526,-491.21026)"><path id="path892-2" fill="#0096db" fill-opacity="1" fill-rule="evenodd" stroke="none" d="m 1953.1973,460.1436 c 0,-2.76142 2.2386,-5 5,-5 l 246,0 c 2.761,0 5,2.23858 5,5 l 0,246 c 0,2.761 -2.239,5 -5,5 l -246,0 c -2.7614,0 -5,-2.239 -5,-5 l 0,-246" font-family="MS Shell Dlg 2" font-size="8.25" font-style="normal" font-weight="400" vector-effect="non-scaling-stroke"/><path id="path896-3" fill="#505050" fill-opacity="1" fill-rule="evenodd" stroke="none" d="m 2205.1973,537.1436 c 0,-39.7645 -55.517,-72 -124,-72 -68.4833,0 -124,32.2355 -124,72 l 248,0" font-family="MS Shell Dlg 2" font-size="8.25" font-style="normal" font-weight="400" vector-effect="non-scaling-stroke"/><path id="path898-0" fill="#505050" fill-opacity="1" fill-rule="evenodd" stroke="none" d="m 1957.1973,536.1436 c 0,-2.7614 2.2386,-5 5,-5 l 238,0 c 2.761,0 5,2.2386 5,5 l 0,166 c 0,2.761 -2.239,5 -5,5 l -238,0 c -2.7614,0 -5,-2.239 -5,-5 l 0,-166" font-family="MS Shell Dlg 2" font-size="8.25" font-style="normal" font-weight="400" vector-effect="non-scaling-stroke"/><path id="path908-3" fill="#f0f0f0" fill-opacity="1" fill-rule="evenodd" stroke="none" d="m 1980.1973,515.1436 202,0 0,48 -202,0 0,-48" font-family="MS Shell Dlg 2" font-size="8.25" font-style="normal" font-weight="400" vector-effect="non-scaling-stroke"/><path id="path914-8" fill="url(#linearGradient7069)" fill-rule="evenodd" stroke="none" d="m 1980.1973,515.1436 202,0 0,48 -202,0 0,-48" font-family="MS Shell Dlg 2" font-size="8.25" font-style="normal" font-weight="400" vector-effect="non-scaling-stroke"/><path id="path918-5" fill="#fff" fill-opacity="1" fill-rule="evenodd" stroke="none" d="m 1980.1973,515.1436 48,0 0,48 -48,0 0,-48" font-family="MS Shell Dlg 2" font-size="8.25" font-style="normal" font-weight="400" vector-effect="non-scaling-stroke"/><path id="path924-3" fill="#000" fill-opacity="1" fill-rule="evenodd" stroke="none" d="m 1980.1973,559.1436 48,0 0,4 -48,0 0,-4" font-family="MS Shell Dlg 2" font-size="8.25" font-style="normal" font-weight="400" vector-effect="non-scaling-stroke"/><path id="path930-9" fill="#000" fill-opacity="1" fill-rule="evenodd" stroke="none" d="m 2024.1973,515.1436 4,0 0,48 -4,0 0,-48" font-family="MS Shell Dlg 2" font-size="8.25" font-style="normal" font-weight="400" vector-effect="non-scaling-stroke"/><path id="path936-3" fill="#000" fill-opacity="1" fill-rule="evenodd" stroke="none" d="m 1980.1973,515.1436 4,0 0,48 -4,0 0,-48" font-family="MS Shell Dlg 2" font-size="8.25" font-style="normal" font-weight="400" vector-effect="non-scaling-stroke"/><path id="path942-2" fill="#000" fill-opacity="1" fill-rule="evenodd" stroke="none" d="m 1980.1973,515.1436 48,0 0,4 -48,0 0,-4" font-family="MS Shell Dlg 2" font-size="8.25" font-style="normal" font-weight="400" vector-effect="non-scaling-stroke"/><path id="path956-5" fill="#f0f0f0" fill-opacity="1" fill-rule="evenodd" stroke="none" d="m 1980.1973,579.1436 202,0 0,48 -202,0 0,-48" font-family="MS Shell Dlg 2" font-size="8.25" font-style="normal" font-weight="400" vector-effect="non-scaling-stroke"/><path id="path962-2" fill="url(#linearGradient7071)" fill-rule="evenodd" stroke="none" d="m 1980.1973,579.1436 202,0 0,48 -202,0 0,-48" font-family="MS Shell Dlg 2" font-size="8.25" font-style="normal" font-weight="400" vector-effect="non-scaling-stroke"/><path id="path966-6" fill="#fff" fill-opacity="1" fill-rule="evenodd" stroke="none" d="m 1980.1973,579.1436 48,0 0,48 -48,0 0,-48" font-family="MS Shell Dlg 2" font-size="8.25" font-style="normal" font-weight="400" vector-effect="non-scaling-stroke"/><path id="path972-7" fill="#000" fill-opacity="1" fill-rule="evenodd" stroke="none" d="m 1980.1973,623.1436 48,0 0,4 -48,0 0,-4" font-family="MS Shell Dlg 2" font-size="8.25" font-style="normal" font-weight="400" vector-effect="non-scaling-stroke"/><path id="path978-4" fill="#000" fill-opacity="1" fill-rule="evenodd" stroke="none" d="m 2024.1973,579.1436 4,0 0,48 -4,0 0,-48" font-family="MS Shell Dlg 2" font-size="8.25" font-style="normal" font-weight="400" vector-effect="non-scaling-stroke"/><path id="path984-5" fill="#000" fill-opacity="1" fill-rule="evenodd" stroke="none" d="m 1980.1973,579.1436 4,0 0,48 -4,0 0,-48" font-family="MS Shell Dlg 2" font-size="8.25" font-style="normal" font-weight="400" vector-effect="non-scaling-stroke"/><path id="path990-0" fill="#000" fill-opacity="1" fill-rule="evenodd" stroke="none" d="m 1980.1973,579.1436 48,0 0,4 -48,0 0,-4" font-family="MS Shell Dlg 2" font-size="8.25" font-style="normal" font-weight="400" vector-effect="non-scaling-stroke"/><path id="path1004-5" fill="#f0f0f0" fill-opacity="1" fill-rule="evenodd" stroke="none" d="m 1980.1973,643.1436 202,0 0,48 -202,0 0,-48" font-family="MS Shell Dlg 2" font-size="8.25" font-style="normal" font-weight="400" vector-effect="non-scaling-stroke"/><path id="path1010-5" fill="url(#linearGradient7073)" fill-rule="evenodd" stroke="none" d="m 1980.1973,643.1436 202,0 0,48 -202,0 0,-48" font-family="MS Shell Dlg 2" font-size="8.25" font-style="normal" font-weight="400" vector-effect="non-scaling-stroke"/><path id="path1014-4" fill="#fff" fill-opacity="1" fill-rule="evenodd" stroke="none" d="m 1980.1973,643.1436 48,0 0,48 -48,0 0,-48" font-family="MS Shell Dlg 2" font-size="8.25" font-style="normal" font-weight="400" vector-effect="non-scaling-stroke"/><path id="path1020-1" fill="#000" fill-opacity="1" fill-rule="evenodd" stroke="none" d="m 1980.1973,687.1436 48,0 0,4 -48,0 0,-4" font-family="MS Shell Dlg 2" font-size="8.25" font-style="normal" font-weight="400" vector-effect="non-scaling-stroke"/><path id="path1026-3" fill="#000" fill-opacity="1" fill-rule="evenodd" stroke="none" d="m 2024.1973,643.1436 4,0 0,48 -4,0 0,-48" font-family="MS Shell Dlg 2" font-size="8.25" font-style="normal" font-weight="400" vector-effect="non-scaling-stroke"/><path id="path1032-8" fill="#000" fill-opacity="1" fill-rule="evenodd" stroke="none" d="m 1980.1973,643.1436 4,0 0,48 -4,0 0,-48" font-family="MS Shell Dlg 2" font-size="8.25" font-style="normal" font-weight="400" vector-effect="non-scaling-stroke"/><path id="path1038-2" fill="#000" fill-opacity="1" fill-rule="evenodd" stroke="none" d="m 1980.1973,643.1436 48,0 0,4 -48,0 0,-4" font-family="MS Shell Dlg 2" font-size="8.25" font-style="normal" font-weight="400" vector-effect="non-scaling-stroke"/></g></g></svg>