<svg xmlns="http://www.w3.org/2000/svg" xmlns:svg="http://www.w3.org/2000/svg" id="svg7110" width="320" height="320" version="1.1"><metadata id="metadata7115"/><g id="layer1" transform="translate(97.142706,-238.07645)"><g id="g7002" transform="matrix(1.2499996,0,0,1.2499996,-2068.6387,219.14696)"><path id="path622-6" fill="#f6871f" fill-opacity="1" fill-rule="evenodd" stroke="none" d="m 1577.1973,20.1436 c 0,-2.76142 2.2386,-5 5,-5 l 246,0 c 2.761,0 5,2.23858 5,5 l 0,246 c 0,2.761 -2.239,5 -5,5 l -246,0 c -2.7614,0 -5,-2.239 -5,-5 l 0,-246" font-family="MS Shell Dlg 2" font-size="8.25" font-style="normal" font-weight="400" vector-effect="non-scaling-stroke"/><path id="path626-3" fill="#fff" fill-opacity="1" fill-rule="evenodd" stroke="none" d="m 1829.1973,97.1436 c 0,-39.7645 -55.517,-72 -124,-72 -68.4833,0 -124,32.2355 -124,72 l 248,0" font-family="MS Shell Dlg 2" font-size="8.25" font-style="normal" font-weight="400" vector-effect="non-scaling-stroke"/><path id="path628-9" fill="#fff" fill-opacity="1" fill-rule="evenodd" stroke="none" d="m 1581.1973,96.1436 c 0,-2.7614 2.2386,-5 5,-5 l 238,0 c 2.761,0 5,2.2386 5,5 l 0,166 c 0,2.761 -2.239,5 -5,5 l -238,0 c -2.7614,0 -5,-2.239 -5,-5 l 0,-166" font-family="MS Shell Dlg 2" font-size="8.25" font-style="normal" font-weight="400" vector-effect="non-scaling-stroke"/><path id="path632-4" fill="#000" fill-opacity="1" fill-rule="evenodd" stroke="none" d="m 1577.1973,173.1436 18,0 0,80 -18,0 0,-80" font-family="MS Shell Dlg 2" font-size="8.25" font-style="normal" font-weight="400" vector-effect="non-scaling-stroke"/><path id="path634-6" fill="#000" fill-opacity="1" fill-rule="evenodd" stroke="none" d="m 1815.1973,173.1436 18,0 0,80 -18,0 0,-80" font-family="MS Shell Dlg 2" font-size="8.25" font-style="normal" font-weight="400" vector-effect="non-scaling-stroke"/><path id="path642-1" fill="#dcdcdc" fill-opacity="1" fill-rule="evenodd" stroke="silver" stroke-linecap="round" stroke-linejoin="round" stroke-opacity="1" stroke-width="5" d="m 1659.1973,39.1436 32,0 0,32 -32,0 0,-32" font-family="MS Shell Dlg 2" font-size="8.25" font-style="normal" font-weight="400" vector-effect="none"/><path id="path650-6" fill="#dcdcdc" fill-opacity="1" fill-rule="evenodd" stroke="silver" stroke-linecap="round" stroke-linejoin="round" stroke-opacity="1" stroke-width="5" d="m 1719.1973,39.1436 32,0 0,32 -32,0 0,-32" font-family="MS Shell Dlg 2" font-size="8.25" font-style="normal" font-weight="400" vector-effect="none"/></g></g></svg>