<svg xmlns="http://www.w3.org/2000/svg" xmlns:svg="http://www.w3.org/2000/svg" id="svg7110" width="320" height="320" version="1.1"><metadata id="metadata7115"/><g id="layer1" transform="translate(111.42851,-215.21935)"><g id="g6941" transform="matrix(1.2499996,0,0,1.2499996,-2082.9245,1296.2895)"><path id="path202-1" fill="#f6871f" fill-opacity="1" fill-rule="evenodd" stroke="none" d="m 1577.1973,-859.8564 c 0,-2.76142 2.2386,-5 5,-5 l 246,0 c 2.761,0 5,2.23858 5,5 l 0,246 c 0,2.761 -2.239,5 -5,5 l -246,0 c -2.7614,0 -5,-2.239 -5,-5 l 0,-246" font-family="MS Shell Dlg 2" font-size="8.25" font-style="normal" font-weight="400" vector-effect="non-scaling-stroke"/><path id="path206-8" fill="#fff" fill-opacity="1" fill-rule="evenodd" stroke="none" d="m 1829.1973,-782.8564 c 0,-39.7645 -55.517,-72 -124,-72 -68.4833,0 -124,32.2355 -124,72 l 248,0" font-family="MS Shell Dlg 2" font-size="8.25" font-style="normal" font-weight="400" vector-effect="non-scaling-stroke"/><path id="path208-7" fill="#fff" fill-opacity="1" fill-rule="evenodd" stroke="none" d="m 1581.1973,-783.8564 c 0,-2.7614 2.2386,-5 5,-5 l 238,0 c 2.761,0 5,2.2386 5,5 l 0,166 c 0,2.761 -2.239,5 -5,5 l -238,0 c -2.7614,0 -5,-2.239 -5,-5 l 0,-166" font-family="MS Shell Dlg 2" font-size="8.25" font-style="normal" font-weight="400" vector-effect="non-scaling-stroke"/><path id="path216-7" fill="#dcdcdc" fill-opacity="1" fill-rule="evenodd" stroke="silver" stroke-linecap="round" stroke-linejoin="round" stroke-opacity="1" stroke-width="5" d="m 1705.1973,-828.3564 -25,43 50,0 -25,-43" font-family="MS Shell Dlg 2" font-size="8.25" font-style="normal" font-weight="400" vector-effect="none"/><path id="path224-9" fill="#dcdcdc" fill-opacity="1" fill-rule="evenodd" stroke="silver" stroke-linecap="round" stroke-linejoin="round" stroke-opacity="1" stroke-width="5" d="m 1613.6973,-736.8564 43,25 0,-50 -43,25" font-family="MS Shell Dlg 2" font-size="8.25" font-style="normal" font-weight="400" vector-effect="none"/><path id="path232-0" fill="#dcdcdc" fill-opacity="1" fill-rule="evenodd" stroke="silver" stroke-linecap="round" stroke-linejoin="round" stroke-opacity="1" stroke-width="5" d="m 1705.1973,-645.3564 25,-43 -50,0 25,43" font-family="MS Shell Dlg 2" font-size="8.25" font-style="normal" font-weight="400" vector-effect="none"/><path id="path240-0" fill="#dcdcdc" fill-opacity="1" fill-rule="evenodd" stroke="silver" stroke-linecap="round" stroke-linejoin="round" stroke-opacity="1" stroke-width="5" d="m 1796.6973,-736.8564 -43,-25 0,50 43,-25" font-family="MS Shell Dlg 2" font-size="8.25" font-style="normal" font-weight="400" vector-effect="none"/><path id="path248-6" fill="#dcdcdc" fill-opacity="1" fill-rule="evenodd" stroke="silver" stroke-linecap="round" stroke-linejoin="round" stroke-opacity="1" stroke-width="5" d="m 1730.1973,-736.8564 c 0,13.8071 -11.1929,25 -25,25 -13.8071,0 -25,-11.1929 -25,-25 0,-13.8071 11.1929,-25 25,-25 13.8071,0 25,11.1929 25,25" font-family="MS Shell Dlg 2" font-size="8.25" font-style="normal" font-weight="400" vector-effect="none"/></g></g></svg>