<svg xmlns="http://www.w3.org/2000/svg" xmlns:svg="http://www.w3.org/2000/svg" xmlns:xlink="http://www.w3.org/1999/xlink" id="svg7110" width="320" height="320" version="1.1"><defs id="defs7112"><linearGradient id="gradient2-1" x1="0" x2="1" y1="0" y2="0" gradientUnits="objectBoundingBox"><stop id="stop115-7" offset="0" stop-color="#000" stop-opacity="1"/><stop id="stop117-4" offset="1" stop-color="red" stop-opacity="1"/></linearGradient><linearGradient id="gradient3-0" x1="0" x2="1" y1="0" y2="0" gradientUnits="objectBoundingBox"><stop id="stop120-9" offset="0" stop-color="#000" stop-opacity="1"/><stop id="stop122-4" offset="1" stop-color="#0f0" stop-opacity="1"/></linearGradient><linearGradient id="gradient4-8" x1="0" x2="1" y1="0" y2="0" gradientUnits="objectBoundingBox"><stop id="stop125-8" offset="0" stop-color="#000" stop-opacity="1"/><stop id="stop127-2" offset="1" stop-color="#00f" stop-opacity="1"/></linearGradient><linearGradient id="linearGradient7069" x1="0" x2="98.468" y1="0" y2="0" gradientTransform="matrix(2.0514223,0,0,0.48746668,1980.1973,515.1436)" gradientUnits="userSpaceOnUse" xlink:href="#gradient5-4"/><linearGradient id="gradient5-4" x1="0" x2="1" y1="0" y2="0" gradientUnits="objectBoundingBox"><stop id="stop130-5" offset="0" stop-color="#000" stop-opacity="1"/><stop id="stop132-5" offset="1" stop-color="red" stop-opacity="1"/></linearGradient><linearGradient id="linearGradient7071" x1="0" x2="98.468" y1="0" y2="0" gradientTransform="matrix(2.0514223,0,0,0.48746668,1980.1973,579.1436)" gradientUnits="userSpaceOnUse" xlink:href="#gradient6-1"/><linearGradient id="gradient6-1" x1="0" x2="1" y1="0" y2="0" gradientUnits="objectBoundingBox"><stop id="stop135-7" offset="0" stop-color="#000" stop-opacity="1"/><stop id="stop137-1" offset="1" stop-color="#0f0" stop-opacity="1"/></linearGradient><linearGradient id="linearGradient7073" x1="0" x2="98.468" y1="0" y2="0" gradientTransform="matrix(2.0514223,0,0,0.48746668,1980.1973,643.1436)" gradientUnits="userSpaceOnUse" xlink:href="#gradient7-1"/><linearGradient id="gradient7-1" x1="0" x2="1" y1="0" y2="0" gradientUnits="objectBoundingBox"><stop id="stop140-5" offset="0" stop-color="#000" stop-opacity="1"/><stop id="stop142-2" offset="1" stop-color="#00f" stop-opacity="1"/></linearGradient></defs><metadata id="metadata7115"/><g id="layer1" transform="translate(330.71347,-297.36176)"><g id="g11270" transform="matrix(1.2499996,0,0,1.2499996,-5245.6134,1273.5897)"><path id="path8320" fill="#f6871f" fill-opacity="1" fill-rule="evenodd" stroke="none" d="m 3931.9212,-775.9826 c 0,-2.76142 2.2386,-5 5,-5 l 246,0 c 2.761,0 5,2.23858 5,5 l 0,246 c 0,2.761 -2.239,5 -5,5 l -246,0 c -2.7614,0 -5,-2.239 -5,-5 l 0,-246" font-family="MS Shell Dlg 2" font-size="8.25" font-style="normal" font-weight="400" vector-effect="non-scaling-stroke"/><path id="path8324" fill="#fff" fill-opacity="1" fill-rule="evenodd" stroke="none" d="m 4183.9212,-698.9826 c 0,-39.7645 -55.517,-72 -124,-72 -68.4833,0 -124,32.2355 -124,72 l 248,0" font-family="MS Shell Dlg 2" font-size="8.25" font-style="normal" font-weight="400" vector-effect="non-scaling-stroke"/><path id="path8326" fill="#fff" fill-opacity="1" fill-rule="evenodd" stroke="none" d="m 3935.9212,-699.9826 c 0,-2.7614 2.2386,-5 5,-5 l 238,0 c 2.761,0 5,2.2386 5,5 l 0,166 c 0,2.761 -2.239,5 -5,5 l -238,0 c -2.7614,0 -5,-2.239 -5,-5 l 0,-166" font-family="MS Shell Dlg 2" font-size="8.25" font-style="normal" font-weight="400" vector-effect="non-scaling-stroke"/><path id="path8330" fill="#dcdcdc" fill-opacity="1" fill-rule="evenodd" stroke="none" d="m 3963.9212,-680.9826 192,0 0,96 -192,0 0,-96" font-family="MS Shell Dlg 2" font-size="8.25" font-style="normal" font-weight="400" vector-effect="non-scaling-stroke"/><path id="path8334" fill="none" stroke="silver" stroke-linecap="square" stroke-linejoin="round" stroke-opacity="1" stroke-width="4" d="m 3963.9212,-680.9826 192,0 0,48 -192,0 0,-48" font-family="MS Shell Dlg 2" font-size="8.25" font-style="normal" font-weight="400" vector-effect="none"/><path id="path8336" fill="none" stroke="silver" stroke-linecap="square" stroke-linejoin="round" stroke-opacity="1" stroke-width="4" d="m 3963.9212,-632.9826 192,0 0,48 -192,0 0,-48" font-family="MS Shell Dlg 2" font-size="8.25" font-style="normal" font-weight="400" vector-effect="none"/><path id="path8344" fill="#dcdcdc" fill-opacity="1" fill-rule="evenodd" stroke="silver" stroke-linecap="round" stroke-linejoin="round" stroke-opacity="1" stroke-width="5" d="m 3940.9619,-722.8617 24.5134,-20.56921 20.5692,24.51341 -24.5134,20.56921 -20.5692,-24.51341" font-family="MS Shell Dlg 2" font-size="8.25" font-style="normal" font-weight="400" vector-effect="none"/><path id="path8352" fill="#dcdcdc" fill-opacity="1" fill-rule="evenodd" stroke="silver" stroke-linecap="round" stroke-linejoin="round" stroke-opacity="1" stroke-width="5" d="m 3988.1108,-756.49937 30.0702,-10.94464 10.9446,30.07018 -30.0702,10.94464 -10.9446,-30.07018" font-family="MS Shell Dlg 2" font-size="8.25" font-style="normal" font-weight="400" vector-effect="none"/><path id="path8360" fill="#dcdcdc" fill-opacity="1" fill-rule="evenodd" stroke="silver" stroke-linecap="round" stroke-linejoin="round" stroke-opacity="1" stroke-width="5" d="m 4043.9212,-771.9826 32,0 0,32 -32,0 0,-32" font-family="MS Shell Dlg 2" font-size="8.25" font-style="normal" font-weight="400" vector-effect="none"/><path id="path8368" fill="#dcdcdc" fill-opacity="1" fill-rule="evenodd" stroke="silver" stroke-linecap="round" stroke-linejoin="round" stroke-opacity="1" stroke-width="5" d="m 4101.6614,-767.44401 30.0702,10.94464 -10.9446,30.07018 -30.0702,-10.94464 10.9446,-30.07018" font-family="MS Shell Dlg 2" font-size="8.25" font-style="normal" font-weight="400" vector-effect="none"/><path id="path8376" fill="#dcdcdc" fill-opacity="1" fill-rule="evenodd" stroke="silver" stroke-linecap="round" stroke-linejoin="round" stroke-opacity="1" stroke-width="5" d="m 4154.3671,-743.43091 24.5134,20.56921 -20.5692,24.51341 -24.5134,-20.56921 20.5692,-24.51341" font-family="MS Shell Dlg 2" font-size="8.25" font-style="normal" font-weight="400" vector-effect="none"/><path id="path8384" fill="#dcdcdc" fill-opacity="1" fill-rule="evenodd" stroke="silver" stroke-linecap="round" stroke-linejoin="round" stroke-opacity="1" stroke-width="5" d="m 3979.9212,-562.9826 32,0 0,32 -32,0 0,-32" font-family="MS Shell Dlg 2" font-size="8.25" font-style="normal" font-weight="400" vector-effect="none"/><path id="path8392" fill="#dcdcdc" fill-opacity="1" fill-rule="evenodd" stroke="silver" stroke-linecap="round" stroke-linejoin="round" stroke-opacity="1" stroke-width="5" d="m 4107.9212,-562.9826 32,0 0,32 -32,0 0,-32" font-family="MS Shell Dlg 2" font-size="8.25" font-style="normal" font-weight="400" vector-effect="none"/></g></g></svg>