<svg xmlns="http://www.w3.org/2000/svg" xmlns:svg="http://www.w3.org/2000/svg" id="svg7110" width="320" height="320" version="1.1"><metadata id="metadata7115"/><g id="layer1" transform="translate(459.99981,73.35216)"><g id="g6975" transform="matrix(1.2499996,0,0,1.2499996,-2431.4958,457.71817)"><path id="path442-1" fill="#f6871f" fill-opacity="1" fill-rule="evenodd" stroke="none" d="m 1577.1973,-419.8564 c 0,-2.76142 2.2386,-5 5,-5 l 246,0 c 2.761,0 5,2.23858 5,5 l 0,246 c 0,2.761 -2.239,5 -5,5 l -246,0 c -2.7614,0 -5,-2.239 -5,-5 l 0,-246" font-family="MS Shell Dlg 2" font-size="8.25" font-style="normal" font-weight="400" vector-effect="non-scaling-stroke"/><path id="path446-0" fill="#fff" fill-opacity="1" fill-rule="evenodd" stroke="none" d="m 1829.1973,-342.8564 c 0,-39.7645 -55.517,-72 -124,-72 -68.4833,0 -124,32.2355 -124,72 l 248,0" font-family="MS Shell Dlg 2" font-size="8.25" font-style="normal" font-weight="400" vector-effect="non-scaling-stroke"/><path id="path448-1" fill="#fff" fill-opacity="1" fill-rule="evenodd" stroke="none" d="m 1581.1973,-343.8564 c 0,-2.7614 2.2386,-5 5,-5 l 238,0 c 2.761,0 5,2.2386 5,5 l 0,166 c 0,2.761 -2.239,5 -5,5 l -238,0 c -2.7614,0 -5,-2.239 -5,-5 l 0,-166" font-family="MS Shell Dlg 2" font-size="8.25" font-style="normal" font-weight="400" vector-effect="non-scaling-stroke"/><path id="path456-6" fill="#dcdcdc" fill-opacity="1" fill-rule="evenodd" stroke="silver" stroke-linecap="round" stroke-linejoin="round" stroke-opacity="1" stroke-width="5" d="m 1586.238,-366.7355 24.5134,-20.56921 20.5692,24.51341 -24.5134,20.56921 -20.5692,-24.51341" font-family="MS Shell Dlg 2" font-size="8.25" font-style="normal" font-weight="400" vector-effect="none"/><path id="path464-8" fill="#dcdcdc" fill-opacity="1" fill-rule="evenodd" stroke="silver" stroke-linecap="round" stroke-linejoin="round" stroke-opacity="1" stroke-width="5" d="m 1633.3869,-400.37317 30.0702,-10.94464 10.9446,30.07018 -30.0702,10.94464 -10.9446,-30.07018" font-family="MS Shell Dlg 2" font-size="8.25" font-style="normal" font-weight="400" vector-effect="none"/><path id="path472-3" fill="#dcdcdc" fill-opacity="1" fill-rule="evenodd" stroke="silver" stroke-linecap="round" stroke-linejoin="round" stroke-opacity="1" stroke-width="5" d="m 1689.1973,-415.8564 32,0 0,32 -32,0 0,-32" font-family="MS Shell Dlg 2" font-size="8.25" font-style="normal" font-weight="400" vector-effect="none"/><path id="path480-0" fill="#dcdcdc" fill-opacity="1" fill-rule="evenodd" stroke="silver" stroke-linecap="round" stroke-linejoin="round" stroke-opacity="1" stroke-width="5" d="m 1746.9375,-411.31781 30.0702,10.94464 -10.9446,30.07018 -30.0702,-10.94464 10.9446,-30.07018" font-family="MS Shell Dlg 2" font-size="8.25" font-style="normal" font-weight="400" vector-effect="none"/><path id="path488-8" fill="#dcdcdc" fill-opacity="1" fill-rule="evenodd" stroke="silver" stroke-linecap="round" stroke-linejoin="round" stroke-opacity="1" stroke-width="5" d="m 1799.6432,-387.30471 24.5134,20.56921 -20.5692,24.51341 -24.5134,-20.56921 20.5692,-24.51341" font-family="MS Shell Dlg 2" font-size="8.25" font-style="normal" font-weight="400" vector-effect="none"/><path id="path496-7" fill="#dcdcdc" fill-opacity="1" fill-rule="evenodd" stroke="silver" stroke-linecap="round" stroke-linejoin="round" stroke-opacity="1" stroke-width="5" d="m 1625.1973,-206.8564 32,0 0,32 -32,0 0,-32" font-family="MS Shell Dlg 2" font-size="8.25" font-style="normal" font-weight="400" vector-effect="none"/><path id="path504-3" fill="#dcdcdc" fill-opacity="1" fill-rule="evenodd" stroke="silver" stroke-linecap="round" stroke-linejoin="round" stroke-opacity="1" stroke-width="5" d="m 1753.1973,-206.8564 32,0 0,32 -32,0 0,-32" font-family="MS Shell Dlg 2" font-size="8.25" font-style="normal" font-weight="400" vector-effect="none"/></g></g></svg>