<svg xmlns="http://www.w3.org/2000/svg" xmlns:svg="http://www.w3.org/2000/svg" id="svg2" width="1052.362" height="744.094" version="1.1"><defs id="defs4"><marker id="Arrow1Lend" orient="auto" overflow="visible" refX="0" refY="0"><path id="path4974" fill-rule="evenodd" stroke="#000" stroke-width="1pt" marker-start="none" d="M 0.0,0.0 L 5.0,-5.0 L -12.5,0.0 L 5.0,5.0 L 0.0,0.0 z" transform="scale(0.8) rotate(180) translate(12.5,0)"/></marker></defs><metadata id="metadata7"/><g id="layer1" transform="translate(0,-308.2677)"><rect id="rect3753" width="351.533" height="583.868" x="143" y="373.24" fill="#fff" fill-opacity="1" stroke="#000" stroke-dasharray="none" stroke-miterlimit="4" stroke-opacity="1" stroke-width="1.5"/><rect id="use4801" width="351.563" height="25.391" x="142.828" y="601.883" fill="#ffffc4" fill-opacity="1" stroke="#000" stroke-dasharray="none" stroke-dashoffset="0" stroke-linecap="round" stroke-linejoin="round" stroke-miterlimit="4" stroke-opacity="1" stroke-width="1"/><rect id="rect4685" width="351.563" height="25.391" x="142.828" y="627.331" fill="#fff" fill-opacity="1" stroke="#000" stroke-dasharray="none" stroke-dashoffset="0" stroke-linecap="round" stroke-linejoin="round" stroke-miterlimit="4" stroke-opacity="1" stroke-width="1"/><rect id="use4687" width="351.563" height="25.391" x="142.828" y="627.331" fill="#ffffc4" fill-opacity="1" stroke="#000" stroke-dasharray="none" stroke-dashoffset="0" stroke-linecap="round" stroke-linejoin="round" stroke-miterlimit="4" stroke-opacity="1" stroke-width="1"/><text id="text4689" x="319.05" y="620.91" fill="#000" fill-opacity="1" stroke="none" font-family="Sans" font-size="22" font-style="normal" font-weight="normal" letter-spacing="0" text-anchor="middle" word-spacing="0" xml:space="preserve" style="text-align:center;line-height:125%"><tspan id="tspan4691" x="319.05" y="620.91">...</tspan></text><rect id="use4695" width="351.563" height="25.391" x="142.828" y="652.722" fill="#ffffc4" fill-opacity="1" stroke="#000" stroke-dasharray="none" stroke-dashoffset="0" stroke-linecap="round" stroke-linejoin="round" stroke-miterlimit="4" stroke-opacity="1" stroke-width="1"/><rect id="use4697" width="351.563" height="25.391" x="142.828" y="678.112" fill="#ffffc4" fill-opacity="1" stroke="#000" stroke-dasharray="none" stroke-dashoffset="0" stroke-linecap="round" stroke-linejoin="round" stroke-miterlimit="4" stroke-opacity="1" stroke-width="1"/><rect id="use4699" width="351.563" height="25.391" x="142.828" y="703.503" fill="#ffffc4" fill-opacity="1" stroke="#000" stroke-dasharray="none" stroke-dashoffset="0" stroke-linecap="round" stroke-linejoin="round" stroke-miterlimit="4" stroke-opacity="1" stroke-width="1"/><rect id="use4701" width="351.563" height="25.391" x="142.828" y="728.893" fill="#f1c5ff" fill-opacity="1" stroke="#000" stroke-dasharray="none" stroke-dashoffset="0" stroke-linecap="round" stroke-linejoin="round" stroke-miterlimit="4" stroke-opacity="1" stroke-width="1"/><rect id="use4703" width="351.563" height="25.391" x="142.828" y="754.284" fill="#f1c5ff" fill-opacity="1" stroke="#000" stroke-dasharray="none" stroke-dashoffset="0" stroke-linecap="round" stroke-linejoin="round" stroke-miterlimit="4" stroke-opacity="1" stroke-width="1"/><rect id="use4705" width="351.563" height="25.391" x="142.828" y="779.675" fill="#f1c5ff" fill-opacity="1" stroke="#000" stroke-dasharray="none" stroke-dashoffset="0" stroke-linecap="round" stroke-linejoin="round" stroke-miterlimit="4" stroke-opacity="1" stroke-width="1"/><rect id="use4707" width="351.563" height="25.391" x="142.828" y="805.065" fill="#f1c5ff" fill-opacity="1" stroke="#000" stroke-dasharray="none" stroke-dashoffset="0" stroke-linecap="round" stroke-linejoin="round" stroke-miterlimit="4" stroke-opacity="1" stroke-width="1"/><rect id="use4709" width="351.563" height="25.391" x="142.828" y="830.456" fill="#f1c5ff" fill-opacity="1" stroke="#000" stroke-dasharray="none" stroke-dashoffset="0" stroke-linecap="round" stroke-linejoin="round" stroke-miterlimit="4" stroke-opacity="1" stroke-width="1"/><rect id="use4711" width="351.563" height="25.391" x="142.828" y="855.847" fill="#f1c5ff" fill-opacity="1" stroke="#000" stroke-dasharray="none" stroke-dashoffset="0" stroke-linecap="round" stroke-linejoin="round" stroke-miterlimit="4" stroke-opacity="1" stroke-width="1"/><rect id="use4713" width="351.563" height="25.391" x="142.828" y="881.237" fill="#f1c5ff" fill-opacity="1" stroke="#000" stroke-dasharray="none" stroke-dashoffset="0" stroke-linecap="round" stroke-linejoin="round" stroke-miterlimit="4" stroke-opacity="1" stroke-width="1"/><rect id="use4715" width="351.563" height="25.391" x="142.828" y="906.628" fill="#f1c5ff" fill-opacity="1" stroke="#000" stroke-dasharray="none" stroke-dashoffset="0" stroke-linecap="round" stroke-linejoin="round" stroke-miterlimit="4" stroke-opacity="1" stroke-width="1"/><rect id="use4717" width="351.563" height="25.391" x="142.828" y="932.018" fill="#f1c5ff" fill-opacity="1" stroke="#000" stroke-dasharray="none" stroke-dashoffset="0" stroke-linecap="round" stroke-linejoin="round" stroke-miterlimit="4" stroke-opacity="1" stroke-width="1"/><text id="text4738" x="319.05" y="646.128" fill="#000" fill-opacity="1" stroke="none" font-family="Sans" font-size="22" font-style="normal" font-weight="normal" letter-spacing="0" text-anchor="middle" word-spacing="0" xml:space="preserve" style="text-align:center;line-height:125%"><tspan id="tspan4740" x="319.05" y="646.128">Event 1 0x00</tspan></text><text id="text4742" x="319.05" y="671.738" fill="#000" fill-opacity="1" stroke="none" font-family="Sans" font-size="22" font-style="normal" font-weight="normal" letter-spacing="0" text-anchor="middle" word-spacing="0" xml:space="preserve" style="text-align:center;line-height:125%"><tspan id="tspan4744" x="319.05" y="671.738">...</tspan></text><text id="text4746" x="319.05" y="722.128" fill="#000" fill-opacity="1" stroke="none" font-family="Sans" font-size="22" font-style="normal" font-weight="normal" letter-spacing="0" text-anchor="middle" word-spacing="0" xml:space="preserve" style="text-align:center;line-height:125%"><tspan id="tspan4748" x="319.05" y="722.128">Event ASEBA_EVENT_INIT 0x00</tspan></text><text id="text4750" x="319.05" y="748.081" fill="#000" fill-opacity="1" stroke="none" font-family="Sans" font-size="22" font-style="normal" font-weight="normal" letter-spacing="0" text-anchor="middle" word-spacing="0" xml:space="preserve" style="text-align:center;line-height:125%"><tspan id="tspan4752" x="319.05" y="748.081">AddrOf k</tspan></text><text id="text4754" x="319.05" y="773.3" fill="#000" fill-opacity="1" stroke="none" font-family="Sans" font-size="22" font-style="normal" font-weight="normal" letter-spacing="0" text-anchor="middle" word-spacing="0" xml:space="preserve" style="text-align:center;line-height:125%"><tspan id="tspan4756" x="322.552" y="773.3">ID event k</tspan></text><text id="text4758" x="319.05" y="798.862" fill="#000" fill-opacity="1" stroke="none" font-family="Sans" font-size="22" font-style="normal" font-weight="normal" letter-spacing="0" text-anchor="middle" word-spacing="0" xml:space="preserve" style="text-align:center;line-height:125%"><tspan id="tspan4760" x="319.05" y="798.862">...</tspan></text><text id="text4762" x="319.05" y="824.081" fill="#000" fill-opacity="1" stroke="none" font-family="Sans" font-size="22" font-style="normal" font-weight="normal" letter-spacing="0" text-anchor="middle" word-spacing="0" xml:space="preserve" style="text-align:center;line-height:125%"><tspan id="tspan4764" x="319.05" y="824.081">...</tspan></text><text id="text4766" x="319.05" y="849.3" fill="#000" fill-opacity="1" stroke="none" font-family="Sans" font-size="22" font-style="normal" font-weight="normal" letter-spacing="0" text-anchor="middle" word-spacing="0" xml:space="preserve" style="text-align:center;line-height:125%"><tspan id="tspan4768" x="319.05" y="849.3">AddrOf 1</tspan></text><text id="text4770" x="319.05" y="874.518" fill="#000" fill-opacity="1" stroke="none" font-family="Sans" font-size="22" font-style="normal" font-weight="normal" letter-spacing="0" text-anchor="middle" word-spacing="0" xml:space="preserve" style="text-align:center;line-height:125%"><tspan id="tspan4772" x="319.05" y="874.518">ID event 1</tspan></text><text id="text4774" x="319.05" y="899.737" fill="#000" fill-opacity="1" stroke="none" font-family="Sans" font-size="22" font-style="normal" font-weight="normal" letter-spacing="0" text-anchor="middle" word-spacing="0" xml:space="preserve" style="text-align:center;line-height:125%"><tspan id="tspan4776" x="319.05" y="899.737">AddrOf ASEBA_EVENT_INIT</tspan></text><text id="text4778" x="319.05" y="925.347" fill="#000" fill-opacity="1" stroke="none" font-family="Sans" font-size="22" font-style="normal" font-weight="normal" letter-spacing="0" text-anchor="middle" word-spacing="0" xml:space="preserve" style="text-align:center;line-height:125%"><tspan id="tspan4780" x="319.05" y="925.347">ID event ASEBA_EVENT_INIT</tspan></text><text id="text4782" x="319.05" y="950.956" fill="#000" fill-opacity="1" stroke="none" font-family="Sans" font-size="22" font-style="normal" font-weight="normal" letter-spacing="0" text-anchor="middle" word-spacing="0" xml:space="preserve" style="text-align:center;line-height:125%"><tspan id="tspan4784" x="319.05" y="950.956">AddrOf ASEBA_EVENT_INIT</tspan></text><text id="text4786" x="319.05" y="402.081" fill="#000" fill-opacity="1" stroke="none" font-family="Sans" font-size="22" font-style="normal" font-weight="normal" letter-spacing="0" text-anchor="middle" word-spacing="0" xml:space="preserve" style="text-align:center;line-height:125%"><tspan id="tspan4788" x="319.05" y="402.081">Free space</tspan></text><text id="text4803" x="319.05" y="698.128" fill="#000" fill-opacity="1" stroke="none" font-family="Sans" font-size="22" font-style="normal" font-weight="normal" letter-spacing="0" text-anchor="middle" word-spacing="0" xml:space="preserve" style="text-align:center;line-height:125%"><tspan id="tspan4805" x="319.05" y="698.128">...</tspan></text><rect id="rect4983" width="129.457" height="583.868" x="10.631" y="373.24" fill="#fff" fill-opacity="1" stroke="#000" stroke-dasharray="none" stroke-miterlimit="4" stroke-opacity="1" stroke-width="1.5"/><text id="text4875" x="75.829" y="392.081" fill="#000" fill-opacity="1" stroke="none" font-family="Sans" font-size="22" font-stretch="normal" font-style="normal" font-variant="normal" font-weight="normal" letter-spacing="0" text-anchor="middle" word-spacing="0" writing-mode="lr-tb" xml:space="preserve" style="text-align:center;line-height:125%;-inkscape-font-specification:Sans"><tspan id="tspan4877" x="75.829" y="392.081">AddrMax</tspan></text><text id="text4879" x="76.291" y="418.081" fill="#000" fill-opacity="1" stroke="none" font-family="Sans" font-size="22" font-stretch="normal" font-style="normal" font-variant="normal" font-weight="normal" letter-spacing="0" text-anchor="middle" word-spacing="0" writing-mode="lr-tb" xml:space="preserve" style="text-align:center;line-height:125%;-inkscape-font-specification:Sans"><tspan id="tspan4881" x="76.291" y="418.081">...</tspan></text><text id="text4883" x="76.291" y="444.081" fill="#000" fill-opacity="1" stroke="none" font-family="Sans" font-size="22" font-stretch="normal" font-style="normal" font-variant="normal" font-weight="normal" letter-spacing="0" text-anchor="middle" word-spacing="0" writing-mode="lr-tb" xml:space="preserve" style="text-align:center;line-height:125%;-inkscape-font-specification:Sans"><tspan id="tspan4885" x="76.291" y="444.081">...</tspan></text><text id="text4907" x="76.291" y="773.3" fill="#000" fill-opacity="1" stroke="none" font-family="Sans" font-size="22" font-stretch="normal" font-style="normal" font-variant="normal" font-weight="normal" letter-spacing="0" text-anchor="middle" word-spacing="0" writing-mode="lr-tb" xml:space="preserve" style="text-align:center;line-height:125%;-inkscape-font-specification:Sans"><tspan id="tspan4909" x="76.291" y="773.3">...</tspan></text><text id="text4911" x="76.291" y="798.862" fill="#000" fill-opacity="1" stroke="none" font-family="Sans" font-size="22" font-stretch="normal" font-style="normal" font-variant="normal" font-weight="normal" letter-spacing="0" text-anchor="middle" word-spacing="0" writing-mode="lr-tb" xml:space="preserve" style="text-align:center;line-height:125%;-inkscape-font-specification:Sans"><tspan id="tspan4913" x="76.291" y="798.862">...</tspan></text><text id="text4915" x="76.291" y="824.081" fill="#000" fill-opacity="1" stroke="none" font-family="Sans" font-size="22" font-stretch="normal" font-style="normal" font-variant="normal" font-weight="normal" letter-spacing="0" text-anchor="middle" word-spacing="0" writing-mode="lr-tb" xml:space="preserve" style="text-align:center;line-height:125%;-inkscape-font-specification:Sans"><tspan id="tspan4917" x="76.291" y="824.081">...</tspan></text><text id="text4919" x="76.291" y="849.3" fill="#000" fill-opacity="1" stroke="none" font-family="Sans" font-size="22" font-stretch="normal" font-style="normal" font-variant="normal" font-weight="normal" letter-spacing="0" text-anchor="middle" word-spacing="0" writing-mode="lr-tb" xml:space="preserve" style="text-align:center;line-height:125%;-inkscape-font-specification:Sans"><tspan id="tspan4921" x="76.291" y="849.3">...</tspan></text><text id="text4923" x="76.291" y="874.518" fill="#000" fill-opacity="1" stroke="none" font-family="Sans" font-size="22" font-stretch="normal" font-style="normal" font-variant="normal" font-weight="normal" letter-spacing="0" text-anchor="middle" word-spacing="0" writing-mode="lr-tb" xml:space="preserve" style="text-align:center;line-height:125%;-inkscape-font-specification:Sans"><tspan id="tspan4925" x="76.291" y="874.518">...</tspan></text><text id="text4927" x="76.173" y="899.737" fill="#000" fill-opacity="1" stroke="none" font-family="Sans" font-size="22" font-stretch="normal" font-style="normal" font-variant="normal" font-weight="normal" letter-spacing="0" text-anchor="middle" word-spacing="0" writing-mode="lr-tb" xml:space="preserve" style="text-align:center;line-height:125%;-inkscape-font-specification:Sans"><tspan id="tspan4929" x="76.173" y="899.737">0x0004</tspan></text><text id="text4931" x="76.657" y="925.347" fill="#000" fill-opacity="1" stroke="none" font-family="Sans" font-size="22" font-stretch="normal" font-style="normal" font-variant="normal" font-weight="normal" letter-spacing="0" text-anchor="middle" word-spacing="0" writing-mode="lr-tb" xml:space="preserve" style="text-align:center;line-height:125%;-inkscape-font-specification:Sans"><tspan id="tspan4933" x="76.657" y="925.347">0x0002</tspan></text><text id="text4935" x="76.286" y="950.956" fill="#000" fill-opacity="1" stroke="none" font-family="Sans" font-size="22" font-stretch="normal" font-style="normal" font-variant="normal" font-weight="normal" letter-spacing="0" text-anchor="middle" word-spacing="0" writing-mode="lr-tb" xml:space="preserve" style="text-align:center;line-height:125%;-inkscape-font-specification:Sans"><tspan id="tspan4937" x="76.286" y="950.956">0x0000</tspan></text><text id="text4985" x="76.748" y="332.081" fill="#000" fill-opacity="1" stroke="none" font-family="Sans" font-size="22" font-stretch="normal" font-style="normal" font-variant="normal" font-weight="normal" letter-spacing="0" text-anchor="middle" word-spacing="0" writing-mode="lr-tb" xml:space="preserve" style="text-align:center;line-height:125%;-inkscape-font-specification:Sans"><tspan id="tspan4987" x="76.748" y="332.081" font-weight="bold">Address</tspan></text><text id="text4989" x="75.792" y="359.61" fill="#000" fill-opacity="1" stroke="none" font-family="Sans" font-size="22" font-stretch="normal" font-style="normal" font-variant="normal" font-weight="bold" letter-spacing="0" text-anchor="middle" word-spacing="0" writing-mode="lr-tb" xml:space="preserve" style="text-align:center;line-height:125%;-inkscape-font-specification:Sans Bold"><tspan id="tspan4991" x="75.792" y="359.61">Byte</tspan></text><g font-style="normal" style="line-height:125%;-inkscape-font-specification:OpenSymbol" id="g5032" fill="#000" fill-opacity="1" stroke="none" font-family="OpenSymbol" font-size="100" font-stretch="normal" font-variant="normal" font-weight="normal" letter-spacing="0" transform="matrix(1,0,0,0.75090569,-201.85146,567.08015)" word-spacing="0"><path style="-inkscape-font-specification:OpenSymbol" id="path5034" d="m 701.65527,215.99615 0,-1.61132 2.2461,-0.14649 c 5.04556,-0.84637 7.56834,-4.76889 7.56836,-11.76758 -2e-5,-3.125 -0.0977,-7.8125 -0.29297,-14.0625 -0.19533,-6.24998 -0.29298,-10.9212 -0.29297,-14.01367 -10e-6,-4.42706 2.1647,-7.76364 6.49414,-10.00976 -4.32944,-2.05075 -6.49415,-5.38734 -6.49414,-10.00977 -10e-6,-3.0924 0.0976,-7.79618 0.29297,-14.11133 0.1953,-6.31504 0.29295,-11.00254 0.29297,-14.0625 -2e-5,-7.81242 -3.2715,-11.71867 -9.81446,-11.71875 l 0,-1.61133 0.48828,0 c 4.29687,9e-5 7.56835,1.38355 9.81446,4.1504 2.27863,2.79955 3.41795,6.38027 3.41797,10.74218 -2e-5,2.70189 -0.21161,7.60097 -0.63477,14.69727 -0.39064,6.54301 -0.58595,11.4421 -0.58594,14.69726 -10e-6,4.26436 2.14842,6.39652 6.44532,6.39649 l 0.78125,0 0,1.61133 -2.14844,0.0977 c -3.38544,0.45576 -5.07814,2.55537 -5.07813,6.29883 -10e-6,3.28778 0.1953,8.18686 0.58594,14.69727 0.42316,7.0638 0.63475,11.96288 0.63477,14.69726 -2e-5,10.02603 -4.57358,15.03904 -13.72071,15.03906" font-family="OpenSymbol"/></g><g font-style="normal" style="line-height:125%;-inkscape-font-specification:OpenSymbol" id="g5040" fill="#000" fill-opacity="1" stroke="none" font-family="OpenSymbol" font-size="100" font-stretch="normal" font-variant="normal" font-weight="normal" letter-spacing="0" transform="matrix(1,0,0,0.26360871,-201.85146,902.50631)" word-spacing="0"><path style="-inkscape-font-specification:OpenSymbol" id="path5042" d="m 701.65527,215.99615 0,-1.61132 2.2461,-0.14649 c 5.04556,-0.84637 7.56834,-4.76889 7.56836,-11.76758 -2e-5,-3.125 -0.0977,-7.8125 -0.29297,-14.0625 -0.19533,-6.24998 -0.29298,-10.9212 -0.29297,-14.01367 -10e-6,-4.42706 2.1647,-7.76364 6.49414,-10.00976 -4.32944,-2.05075 -6.49415,-5.38734 -6.49414,-10.00977 -10e-6,-3.0924 0.0976,-7.79618 0.29297,-14.11133 0.1953,-6.31504 0.29295,-11.00254 0.29297,-14.0625 -2e-5,-7.81242 -3.2715,-11.71867 -9.81446,-11.71875 l 0,-1.61133 0.48828,0 c 4.29687,9e-5 7.56835,1.38355 9.81446,4.1504 2.27863,2.79955 3.41795,6.38027 3.41797,10.74218 -2e-5,2.70189 -0.21161,7.60097 -0.63477,14.69727 -0.39064,6.54301 -0.58595,11.4421 -0.58594,14.69726 -10e-6,4.26436 2.14842,6.39652 6.44532,6.39649 l 0.78125,0 0,1.61133 -2.14844,0.0977 c -3.38544,0.45576 -5.07814,2.55537 -5.07813,6.29883 -10e-6,3.28778 0.1953,8.18686 0.58594,14.69727 0.42316,7.0638 0.63475,11.96288 0.63477,14.69726 -2e-5,10.02603 -4.57358,15.03904 -13.72071,15.03906" font-family="OpenSymbol"/></g><text id="text5044" x="531.05" y="810.862" fill="#000" fill-opacity="1" stroke="none" font-family="Sans" font-size="20" font-stretch="normal" font-style="normal" font-variant="normal" font-weight="normal" letter-spacing="0" text-anchor="start" word-spacing="0" writing-mode="lr-tb" xml:space="preserve" style="text-align:start;line-height:125%;-inkscape-font-specification:Sans"><tspan id="tspan5052" x="531.05" y="810.862">ID / address vector of</tspan><tspan id="tspan4954" x="531.05" y="835.862">managed events</tspan><tspan id="tspan5412" x="531.05" y="860.862">(local and global)</tspan></text><g font-style="normal" style="line-height:125%;-inkscape-font-specification:OpenSymbol" id="g5048" fill="#000" fill-opacity="1" stroke="none" font-family="OpenSymbol" font-size="100" font-stretch="normal" font-variant="normal" font-weight="normal" letter-spacing="0" transform="matrix(1,0,0,1.9961869,-201.85146,502.07436)" word-spacing="0"><path style="-inkscape-font-specification:OpenSymbol" id="path5050" d="m 701.65527,215.99615 0,-1.61132 2.2461,-0.14649 c 5.04556,-0.84637 7.56834,-4.76889 7.56836,-11.76758 -2e-5,-3.125 -0.0977,-7.8125 -0.29297,-14.0625 -0.19533,-6.24998 -0.29298,-10.9212 -0.29297,-14.01367 -10e-6,-4.42706 2.1647,-7.76364 6.49414,-10.00976 -4.32944,-2.05075 -6.49415,-5.38734 -6.49414,-10.00977 -10e-6,-3.0924 0.0976,-7.79618 0.29297,-14.11133 0.1953,-6.31504 0.29295,-11.00254 0.29297,-14.0625 -2e-5,-7.81242 -3.2715,-11.71867 -9.81446,-11.71875 l 0,-1.61133 0.48828,0 c 4.29687,9e-5 7.56835,1.38355 9.81446,4.1504 2.27863,2.79955 3.41795,6.38027 3.41797,10.74218 -2e-5,2.70189 -0.21161,7.60097 -0.63477,14.69727 -0.39064,6.54301 -0.58595,11.4421 -0.58594,14.69726 -10e-6,4.26436 2.14842,6.39652 6.44532,6.39649 l 0.78125,0 0,1.61133 -2.14844,0.0977 c -3.38544,0.45576 -5.07814,2.55537 -5.07813,6.29883 -10e-6,3.28778 0.1953,8.18686 0.58594,14.69727 0.42316,7.0638 0.63475,11.96288 0.63477,14.69726 -2e-5,10.02603 -4.57358,15.03904 -13.72071,15.03906" font-family="OpenSymbol"/></g><rect id="rect4078" width="351.563" height="25.391" x="142.828" y="474.868" fill="#00f2d6" fill-opacity="1" stroke="#000" stroke-dasharray="none" stroke-dashoffset="0" stroke-linecap="round" stroke-linejoin="round" stroke-miterlimit="4" stroke-opacity="1" stroke-width="1"/><rect id="rect4080" width="351.563" height="25.391" x="142.828" y="500.315" fill="#fff" fill-opacity="1" stroke="#000" stroke-dasharray="none" stroke-dashoffset="0" stroke-linecap="round" stroke-linejoin="round" stroke-miterlimit="4" stroke-opacity="1" stroke-width="1"/><rect id="rect4082" width="351.563" height="25.391" x="142.828" y="500.315" fill="#00f2d6" fill-opacity="1" stroke="#000" stroke-dasharray="none" stroke-dashoffset="0" stroke-linecap="round" stroke-linejoin="round" stroke-miterlimit="4" stroke-opacity="1" stroke-width="1"/><text id="text4084" x="319.05" y="493.894" fill="#000" fill-opacity="1" stroke="none" font-family="Sans" font-size="22" font-style="normal" font-weight="normal" letter-spacing="0" text-anchor="middle" word-spacing="0" xml:space="preserve" style="text-align:center;line-height:125%"><tspan id="tspan4086" x="319.05" y="493.894">Subroutine 1</tspan></text><rect id="rect4088" width="351.563" height="25.391" x="142.828" y="525.706" fill="#00f2d6" fill-opacity="1" stroke="#000" stroke-dasharray="none" stroke-dashoffset="0" stroke-linecap="round" stroke-linejoin="round" stroke-miterlimit="4" stroke-opacity="1" stroke-width="1"/><rect id="rect4090" width="351.563" height="25.391" x="142.828" y="551.097" fill="#ffffc4" fill-opacity="1" stroke="#000" stroke-dasharray="none" stroke-dashoffset="0" stroke-linecap="round" stroke-linejoin="round" stroke-miterlimit="4" stroke-opacity="1" stroke-width="1"/><rect id="rect4092" width="351.563" height="25.391" x="142.828" y="576.487" fill="#ffffc4" fill-opacity="1" stroke="#000" stroke-dasharray="none" stroke-dashoffset="0" stroke-linecap="round" stroke-linejoin="round" stroke-miterlimit="4" stroke-opacity="1" stroke-width="1"/><text id="text4094" x="319.05" y="519.113" fill="#000" fill-opacity="1" stroke="none" font-family="Sans" font-size="22" font-style="normal" font-weight="normal" letter-spacing="0" text-anchor="middle" word-spacing="0" xml:space="preserve" style="text-align:center;line-height:125%"><tspan id="tspan4096" x="319.05" y="519.113">...</tspan></text><text id="text4098" x="319.05" y="544.722" fill="#000" fill-opacity="1" stroke="none" font-family="Sans" font-size="22" font-style="normal" font-weight="normal" letter-spacing="0" text-anchor="middle" word-spacing="0" xml:space="preserve" style="text-align:center;line-height:125%"><tspan id="tspan4100" x="319.05" y="544.722">Subroutine 0</tspan></text><text id="text4102" x="319.05" y="595.112" fill="#000" fill-opacity="1" stroke="none" font-family="Sans" font-size="22" font-style="normal" font-weight="normal" letter-spacing="0" text-anchor="middle" word-spacing="0" xml:space="preserve" style="text-align:center;line-height:125%"><tspan id="tspan4104" x="319.05" y="595.112">Event k 0x00</tspan></text><text id="text4106" x="319.05" y="571.112" fill="#000" fill-opacity="1" stroke="none" font-family="Sans" font-size="22" font-style="normal" font-weight="normal" letter-spacing="0" text-anchor="middle" word-spacing="0" xml:space="preserve" style="text-align:center;line-height:125%"><tspan id="tspan4108" x="319.05" y="571.112">...</tspan></text><rect id="rect4110" width="351.563" height="25.391" x="142.828" y="449.481" fill="#00f2d6" fill-opacity="1" stroke="#000" stroke-dasharray="none" stroke-dashoffset="0" stroke-linecap="round" stroke-linejoin="round" stroke-miterlimit="4" stroke-opacity="1" stroke-width="1"/><text id="text4112" x="319.05" y="468.507" fill="#000" fill-opacity="1" stroke="none" font-family="Sans" font-size="22" font-style="normal" font-weight="normal" letter-spacing="0" text-anchor="middle" word-spacing="0" xml:space="preserve" style="text-align:center;line-height:125%"><tspan id="tspan4114" x="319.05" y="468.507">...</tspan></text><g id="g4910" fill="#000" fill-opacity="1" stroke="none" font-family="OpenSymbol" font-size="100" font-stretch="normal" font-style="normal" font-variant="normal" font-weight="normal" letter-spacing="0" transform="matrix(1,0,0,1.0026784,-201.85146,436.69819)" word-spacing="0" style="line-height:125%;-inkscape-font-specification:OpenSymbol"><path id="path4912" d="m 701.65527,215.99615 0,-1.61132 2.2461,-0.14649 c 5.04556,-0.84637 7.56834,-4.76889 7.56836,-11.76758 -2e-5,-3.125 -0.0977,-7.8125 -0.29297,-14.0625 -0.19533,-6.24998 -0.29298,-10.9212 -0.29297,-14.01367 -10e-6,-4.42706 2.1647,-7.76364 6.49414,-10.00976 -4.32944,-2.05075 -6.49415,-5.38734 -6.49414,-10.00977 -10e-6,-3.0924 0.0976,-7.79618 0.29297,-14.11133 0.1953,-6.31504 0.29295,-11.00254 0.29297,-14.0625 -2e-5,-7.81242 -3.2715,-11.71867 -9.81446,-11.71875 l 0,-1.61133 0.48828,0 c 4.29687,9e-5 7.56835,1.38355 9.81446,4.1504 2.27863,2.79955 3.41795,6.38027 3.41797,10.74218 -2e-5,2.70189 -0.21161,7.60097 -0.63477,14.69727 -0.39064,6.54301 -0.58595,11.4421 -0.58594,14.69726 -10e-6,4.26436 2.14842,6.39652 6.44532,6.39649 l 0.78125,0 0,1.61133 -2.14844,0.0977 c -3.38544,0.45576 -5.07814,2.55537 -5.07813,6.29883 -10e-6,3.28778 0.1953,8.18686 0.58594,14.69727 0.42316,7.0638 0.63475,11.96288 0.63477,14.69726 -2e-5,10.02603 -4.57358,15.03904 -13.72071,15.03906" font-family="OpenSymbol" style="-inkscape-font-specification:OpenSymbol"/></g><g id="g4918" fill="#000" fill-opacity="1" stroke="none" font-family="OpenSymbol" font-size="100" font-stretch="normal" font-style="normal" font-variant="normal" font-weight="normal" letter-spacing="0" transform="matrix(1,0,0,1.0053569,-201.85146,334.88176)" word-spacing="0" style="line-height:125%;-inkscape-font-specification:OpenSymbol"><path id="path4920" d="m 701.65527,215.99615 0,-1.61132 2.2461,-0.14649 c 5.04556,-0.84637 7.56834,-4.76889 7.56836,-11.76758 -2e-5,-3.125 -0.0977,-7.8125 -0.29297,-14.0625 -0.19533,-6.24998 -0.29298,-10.9212 -0.29297,-14.01367 -10e-6,-4.42706 2.1647,-7.76364 6.49414,-10.00976 -4.32944,-2.05075 -6.49415,-5.38734 -6.49414,-10.00977 -10e-6,-3.0924 0.0976,-7.79618 0.29297,-14.11133 0.1953,-6.31504 0.29295,-11.00254 0.29297,-14.0625 -2e-5,-7.81242 -3.2715,-11.71867 -9.81446,-11.71875 l 0,-1.61133 0.48828,0 c 4.29687,9e-5 7.56835,1.38355 9.81446,4.1504 2.27863,2.79955 3.41795,6.38027 3.41797,10.74218 -2e-5,2.70189 -0.21161,7.60097 -0.63477,14.69727 -0.39064,6.54301 -0.58595,11.4421 -0.58594,14.69726 -10e-6,4.26436 2.14842,6.39652 6.44532,6.39649 l 0.78125,0 0,1.61133 -2.14844,0.0977 c -3.38544,0.45576 -5.07814,2.55537 -5.07813,6.29883 -10e-6,3.28778 0.1953,8.18686 0.58594,14.69727 0.42316,7.0638 0.63475,11.96288 0.63477,14.69726 -2e-5,10.02603 -4.57358,15.03904 -13.72071,15.03906" font-family="OpenSymbol" style="-inkscape-font-specification:OpenSymbol"/></g><text id="text4922" x="531.05" y="952.862" fill="#000" fill-opacity="1" stroke="none" font-family="Sans" font-size="20" font-stretch="normal" font-style="normal" font-variant="normal" font-weight="normal" letter-spacing="0" text-anchor="start" word-spacing="0" writing-mode="lr-tb" xml:space="preserve" style="text-align:start;line-height:125%;-inkscape-font-specification:Sans"><tspan id="tspan4926" x="531.05" y="952.862">Address of init event</tspan></text><text id="text4928" x="531.05" y="694.862" fill="#000" fill-opacity="1" stroke="none" font-family="Sans" font-size="20" font-stretch="normal" font-style="normal" font-variant="normal" font-weight="normal" letter-spacing="0" text-anchor="start" word-spacing="0" writing-mode="lr-tb" xml:space="preserve" style="text-align:start;line-height:125%;-inkscape-font-specification:Sans"><tspan id="tspan4932" x="531.05" y="694.862">Bytecode for init event</tspan></text><text id="text4934" x="531.05" y="606.862" fill="#000" fill-opacity="1" stroke="none" font-family="Sans" font-size="20" font-stretch="normal" font-style="normal" font-variant="normal" font-weight="normal" letter-spacing="0" text-anchor="start" word-spacing="0" writing-mode="lr-tb" xml:space="preserve" style="text-align:start;line-height:125%;-inkscape-font-specification:Sans"><tspan id="tspan4938" x="531.05" y="606.862">Bytecode for other events</tspan></text><text id="text4946" x="531.05" y="504.862" fill="#000" fill-opacity="1" stroke="none" font-family="Sans" font-size="20" font-stretch="normal" font-style="normal" font-variant="normal" font-weight="normal" letter-spacing="0" text-anchor="start" word-spacing="0" writing-mode="lr-tb" xml:space="preserve" style="text-align:start;line-height:125%;-inkscape-font-specification:Sans"><tspan id="tspan4950" x="531.05" y="504.862">Bytecode for subroutines</tspan></text><path id="path4966" fill="none" stroke="#000" stroke-linecap="butt" stroke-linejoin="miter" stroke-opacity="1" stroke-width="1" marker-end="url(#Arrow1Lend)" d="m 748.1194,947.19131 132.0301,0 0,-258.53592 -108.27573,0"/></g></svg>