<svg xmlns="http://www.w3.org/2000/svg" xmlns:svg="http://www.w3.org/2000/svg" id="svg2" width="1052.362" height="744.094" version="1.1"><metadata id="metadata7"/><g id="layer1" transform="translate(0,-308.2677)"><g id="g5086"><rect id="rect3753" width="351.533" height="583.868" x="299" y="373.24" fill="#fff" fill-opacity="1" stroke="#000" stroke-dasharray="none" stroke-miterlimit="4" stroke-opacity="1" stroke-width="1.5"/><rect id="use4801" width="351.563" height="25.391" x="298.828" y="601.883" fill="#00f2d6" fill-opacity="1" stroke="#000" stroke-dasharray="none" stroke-dashoffset="0" stroke-linecap="round" stroke-linejoin="round" stroke-miterlimit="4" stroke-opacity="1" stroke-width="1"/><rect id="rect4604" width="351.563" height="25.391" x="298.828" y="373.331" fill="#ff8f8f" fill-opacity="1" stroke="#000" stroke-dasharray="none" stroke-dashoffset="0" stroke-linecap="round" stroke-linejoin="round" stroke-miterlimit="4" stroke-opacity="1" stroke-width="1"/><rect id="use4634" width="351.563" height="25.391" x="298.828" y="398.722" fill="#ff8f8f" fill-opacity="1" stroke="#000" stroke-dasharray="none" stroke-dashoffset="0" stroke-linecap="round" stroke-linejoin="round" stroke-miterlimit="4" stroke-opacity="1" stroke-width="1"/><rect id="use4636" width="351.563" height="25.391" x="298.828" y="424.112" fill="#ff8f8f" fill-opacity="1" stroke="#000" stroke-dasharray="none" stroke-dashoffset="0" stroke-linecap="round" stroke-linejoin="round" stroke-miterlimit="4" stroke-opacity="1" stroke-width="1"/><text id="text4638" x="475.05" y="392.081" fill="#000" fill-opacity="1" stroke="none" font-family="Sans" font-size="22" font-style="normal" font-weight="normal" letter-spacing="0" text-anchor="middle" word-spacing="0" xml:space="preserve" style="text-align:center;line-height:125%"><tspan id="tspan4640" x="475.05" y="392.081">temp 0</tspan></text><text id="text4663" x="475.05" y="418.081" fill="#000" fill-opacity="1" stroke="none" font-family="Sans" font-size="22" font-style="normal" font-weight="normal" letter-spacing="0" text-anchor="middle" word-spacing="0" xml:space="preserve" style="text-align:center;line-height:125%"><tspan id="tspan4665" x="475.05" y="418.081">...</tspan></text><text id="text4667" x="475.05" y="444.081" fill="#000" fill-opacity="1" stroke="none" font-family="Sans" font-size="22" font-style="normal" font-weight="normal" letter-spacing="0" text-anchor="middle" word-spacing="0" xml:space="preserve" style="text-align:center;line-height:125%"><tspan id="tspan4669" x="475.05" y="444.081">temp M-1</tspan></text><rect id="rect4685" width="351.563" height="25.391" x="298.828" y="627.331" fill="#fff" fill-opacity="1" stroke="#000" stroke-dasharray="none" stroke-dashoffset="0" stroke-linecap="round" stroke-linejoin="round" stroke-miterlimit="4" stroke-opacity="1" stroke-width="1"/><rect id="use4687" width="351.563" height="25.391" x="298.828" y="627.331" fill="#00f2d6" fill-opacity="1" stroke="#000" stroke-dasharray="none" stroke-dashoffset="0" stroke-linecap="round" stroke-linejoin="round" stroke-miterlimit="4" stroke-opacity="1" stroke-width="1"/><text id="text4689" x="475.05" y="620.91" fill="#000" fill-opacity="1" stroke="none" font-family="Sans" font-size="22" font-style="normal" font-weight="normal" letter-spacing="0" text-anchor="middle" word-spacing="0" xml:space="preserve" style="text-align:center;line-height:125%"><tspan id="tspan4691" x="475.05" y="620.91">j[1]</tspan></text><rect id="use4695" width="351.563" height="25.391" x="298.828" y="652.722" fill="#00f2d6" fill-opacity="1" stroke="#000" stroke-dasharray="none" stroke-dashoffset="0" stroke-linecap="round" stroke-linejoin="round" stroke-miterlimit="4" stroke-opacity="1" stroke-width="1"/><rect id="use4697" width="351.563" height="25.391" x="298.828" y="678.112" fill="#ffffc4" fill-opacity="1" stroke="#000" stroke-dasharray="none" stroke-dashoffset="0" stroke-linecap="round" stroke-linejoin="round" stroke-miterlimit="4" stroke-opacity="1" stroke-width="1"/><rect id="use4699" width="351.563" height="25.391" x="298.828" y="703.503" fill="#ffffc4" fill-opacity="1" stroke="#000" stroke-dasharray="none" stroke-dashoffset="0" stroke-linecap="round" stroke-linejoin="round" stroke-miterlimit="4" stroke-opacity="1" stroke-width="1"/><rect id="use4701" width="351.563" height="25.391" x="298.828" y="728.893" fill="#ffffc4" fill-opacity="1" stroke="#000" stroke-dasharray="none" stroke-dashoffset="0" stroke-linecap="round" stroke-linejoin="round" stroke-miterlimit="4" stroke-opacity="1" stroke-width="1"/><rect id="use4703" width="351.563" height="25.391" x="298.828" y="754.284" fill="#f1c5ff" fill-opacity="1" stroke="#000" stroke-dasharray="none" stroke-dashoffset="0" stroke-linecap="round" stroke-linejoin="round" stroke-miterlimit="4" stroke-opacity="1" stroke-width="1"/><rect id="use4705" width="351.563" height="25.391" x="298.828" y="779.675" fill="#f1c5ff" fill-opacity="1" stroke="#000" stroke-dasharray="none" stroke-dashoffset="0" stroke-linecap="round" stroke-linejoin="round" stroke-miterlimit="4" stroke-opacity="1" stroke-width="1"/><rect id="use4707" width="351.563" height="25.391" x="298.828" y="805.065" fill="#f1c5ff" fill-opacity="1" stroke="#000" stroke-dasharray="none" stroke-dashoffset="0" stroke-linecap="round" stroke-linejoin="round" stroke-miterlimit="4" stroke-opacity="1" stroke-width="1"/><rect id="use4709" width="351.563" height="25.391" x="298.828" y="830.456" fill="#f1c5ff" fill-opacity="1" stroke="#000" stroke-dasharray="none" stroke-dashoffset="0" stroke-linecap="round" stroke-linejoin="round" stroke-miterlimit="4" stroke-opacity="1" stroke-width="1"/><rect id="use4711" width="351.563" height="25.391" x="298.828" y="855.847" fill="#f1c5ff" fill-opacity="1" stroke="#000" stroke-dasharray="none" stroke-dashoffset="0" stroke-linecap="round" stroke-linejoin="round" stroke-miterlimit="4" stroke-opacity="1" stroke-width="1"/><rect id="use4713" width="351.563" height="25.391" x="298.828" y="881.237" fill="#f1c5ff" fill-opacity="1" stroke="#000" stroke-dasharray="none" stroke-dashoffset="0" stroke-linecap="round" stroke-linejoin="round" stroke-miterlimit="4" stroke-opacity="1" stroke-width="1"/><rect id="use4715" width="351.563" height="25.391" x="298.828" y="906.628" fill="#f1c5ff" fill-opacity="1" stroke="#000" stroke-dasharray="none" stroke-dashoffset="0" stroke-linecap="round" stroke-linejoin="round" stroke-miterlimit="4" stroke-opacity="1" stroke-width="1"/><rect id="use4717" width="351.563" height="25.391" x="298.828" y="932.018" fill="#f1c5ff" fill-opacity="1" stroke="#000" stroke-dasharray="none" stroke-dashoffset="0" stroke-linecap="round" stroke-linejoin="round" stroke-miterlimit="4" stroke-opacity="1" stroke-width="1"/><text id="text4738" x="475.05" y="646.128" fill="#000" fill-opacity="1" stroke="none" font-family="Sans" font-size="22" font-style="normal" font-weight="normal" letter-spacing="0" text-anchor="middle" word-spacing="0" xml:space="preserve" style="text-align:center;line-height:125%"><tspan id="tspan4740" x="475.05" y="646.128">j[0]</tspan></text><text id="text4742" x="475.05" y="671.738" fill="#000" fill-opacity="1" stroke="none" font-family="Sans" font-size="22" font-style="normal" font-weight="normal" letter-spacing="0" text-anchor="middle" word-spacing="0" xml:space="preserve" style="text-align:center;line-height:125%"><tspan id="tspan4744" x="475.05" y="671.738">i</tspan></text><text id="text4746" x="475.05" y="722.128" fill="#000" fill-opacity="1" stroke="none" font-family="Sans" font-size="22" font-style="normal" font-weight="normal" letter-spacing="0" text-anchor="middle" word-spacing="0" xml:space="preserve" style="text-align:center;line-height:125%"><tspan id="tspan4748" x="475.05" y="722.128">...</tspan></text><text id="text4750" x="475.05" y="748.081" fill="#000" fill-opacity="1" stroke="none" font-family="Sans" font-size="22" font-style="normal" font-weight="normal" letter-spacing="0" text-anchor="middle" word-spacing="0" xml:space="preserve" style="text-align:center;line-height:125%"><tspan id="tspan4752" x="475.05" y="748.081">(internal 0)</tspan></text><text id="text4754" x="475.05" y="773.3" fill="#000" fill-opacity="1" stroke="none" font-family="Sans" font-size="22" font-style="normal" font-weight="normal" letter-spacing="0" text-anchor="middle" word-spacing="0" xml:space="preserve" style="text-align:center;line-height:125%"><tspan id="tspan4756" x="475.05" y="773.3">productid</tspan></text><text id="text4758" x="475.05" y="798.862" fill="#000" fill-opacity="1" stroke="none" font-family="Sans" font-size="22" font-style="normal" font-weight="normal" letter-spacing="0" text-anchor="middle" word-spacing="0" xml:space="preserve" style="text-align:center;line-height:125%"><tspan id="tspan4760" x="475.05" y="798.862">fwversion[1]</tspan></text><text id="text4762" x="475.05" y="824.081" fill="#000" fill-opacity="1" stroke="none" font-family="Sans" font-size="22" font-style="normal" font-weight="normal" letter-spacing="0" text-anchor="middle" word-spacing="0" xml:space="preserve" style="text-align:center;line-height:125%"><tspan id="tspan4764" x="475.05" y="824.081">fwversion[0]</tspan></text><text id="text4766" x="475.05" y="849.3" fill="#000" fill-opacity="1" stroke="none" font-family="Sans" font-size="22" font-style="normal" font-weight="normal" letter-spacing="0" text-anchor="middle" word-spacing="0" xml:space="preserve" style="text-align:center;line-height:125%"><tspan id="tspan4768" x="475.05" y="849.3">event.args[31]</tspan></text><text id="text4770" x="475.05" y="874.518" fill="#000" fill-opacity="1" stroke="none" font-family="Sans" font-size="22" font-style="normal" font-weight="normal" letter-spacing="0" text-anchor="middle" word-spacing="0" xml:space="preserve" style="text-align:center;line-height:125%"><tspan id="tspan4772" x="475.05" y="874.518">...</tspan></text><text id="text4774" x="475.05" y="899.737" fill="#000" fill-opacity="1" stroke="none" font-family="Sans" font-size="22" font-style="normal" font-weight="normal" letter-spacing="0" text-anchor="middle" word-spacing="0" xml:space="preserve" style="text-align:center;line-height:125%"><tspan id="tspan4776" x="475.05" y="899.737">event.args[0]</tspan></text><text id="text4778" x="475.05" y="925.347" fill="#000" fill-opacity="1" stroke="none" font-family="Sans" font-size="22" font-style="normal" font-weight="normal" letter-spacing="0" text-anchor="middle" word-spacing="0" xml:space="preserve" style="text-align:center;line-height:125%"><tspan id="tspan4780" x="475.05" y="925.347">event.source</tspan></text><text id="text4782" x="475.05" y="950.956" fill="#000" fill-opacity="1" stroke="none" font-family="Sans" font-size="22" font-style="normal" font-weight="normal" letter-spacing="0" text-anchor="middle" word-spacing="0" xml:space="preserve" style="text-align:center;line-height:125%"><tspan id="tspan4784" x="475.05" y="950.956">id</tspan></text><text id="text4786" x="475.05" y="542.081" fill="#000" fill-opacity="1" stroke="none" font-family="Sans" font-size="22" font-style="normal" font-weight="normal" letter-spacing="0" text-anchor="middle" word-spacing="0" xml:space="preserve" style="text-align:center;line-height:125%"><tspan id="tspan4788" x="475.05" y="542.081">Free space</tspan></text><text id="text4803" x="475.05" y="698.128" fill="#000" fill-opacity="1" stroke="none" font-family="Sans" font-size="22" font-style="normal" font-weight="normal" letter-spacing="0" text-anchor="middle" word-spacing="0" xml:space="preserve" style="text-align:center;line-height:125%"><tspan id="tspan4805" x="475.05" y="698.128">(internal N-1)</tspan></text></g><g id="g5168"><rect id="rect4983" width="285.242" height="583.868" x="10.847" y="373.24" fill="#fff" fill-opacity="1" stroke="#000" stroke-dasharray="none" stroke-miterlimit="4" stroke-opacity="1" stroke-width="1.5"/><text id="text4807" x="215.05" y="392.081" fill="#000" fill-opacity="1" stroke="none" font-family="Sans" font-size="22" font-stretch="normal" font-style="normal" font-variant="normal" font-weight="normal" letter-spacing="0" text-anchor="middle" word-spacing="0" writing-mode="lr-tb" xml:space="preserve" style="text-align:center;line-height:125%;-inkscape-font-specification:Sans"><tspan id="tspan4809" x="215.05" y="392.081">NbMax</tspan></text><text id="text4811" x="215.05" y="418.081" fill="#000" fill-opacity="1" stroke="none" font-family="Sans" font-size="22" font-stretch="normal" font-style="normal" font-variant="normal" font-weight="normal" letter-spacing="0" text-anchor="middle" word-spacing="0" writing-mode="lr-tb" xml:space="preserve" style="text-align:center;line-height:125%;-inkscape-font-specification:Sans"><tspan id="tspan4813" x="215.05" y="418.081">...</tspan></text><text id="text4815" x="215.05" y="444.081" fill="#000" fill-opacity="1" stroke="none" font-family="Sans" font-size="22" font-stretch="normal" font-style="normal" font-variant="normal" font-weight="normal" letter-spacing="0" text-anchor="middle" word-spacing="0" writing-mode="lr-tb" xml:space="preserve" style="text-align:center;line-height:125%;-inkscape-font-specification:Sans"><tspan id="tspan4817" x="215.05" y="444.081">NbMax-M+1</tspan></text><text id="text4819" x="215.05" y="620.91" fill="#000" fill-opacity="1" stroke="none" font-family="Sans" font-size="22" font-stretch="normal" font-style="normal" font-variant="normal" font-weight="normal" letter-spacing="0" text-anchor="middle" word-spacing="0" writing-mode="lr-tb" xml:space="preserve" style="text-align:center;line-height:125%;-inkscape-font-specification:Sans"><tspan id="tspan4821" x="215.05" y="620.91">...</tspan></text><text id="text4823" x="215.05" y="646.128" fill="#000" fill-opacity="1" stroke="none" font-family="Sans" font-size="22" font-stretch="normal" font-style="normal" font-variant="normal" font-weight="normal" letter-spacing="0" text-anchor="middle" word-spacing="0" writing-mode="lr-tb" xml:space="preserve" style="text-align:center;line-height:125%;-inkscape-font-specification:Sans"><tspan id="tspan4825" x="215.05" y="646.128">...</tspan></text><text id="text4827" x="215.05" y="671.738" fill="#000" fill-opacity="1" stroke="none" font-family="Sans" font-size="22" font-stretch="normal" font-style="normal" font-variant="normal" font-weight="normal" letter-spacing="0" text-anchor="middle" word-spacing="0" writing-mode="lr-tb" xml:space="preserve" style="text-align:center;line-height:125%;-inkscape-font-specification:Sans"><tspan id="tspan4829" x="215.05" y="671.738">37+N</tspan></text><text id="text4831" x="215.05" y="722.128" fill="#000" fill-opacity="1" stroke="none" font-family="Sans" font-size="22" font-stretch="normal" font-style="normal" font-variant="normal" font-weight="normal" letter-spacing="0" text-anchor="middle" word-spacing="0" writing-mode="lr-tb" xml:space="preserve" style="text-align:center;line-height:125%;-inkscape-font-specification:Sans"><tspan id="tspan4833" x="215.05" y="722.128">...</tspan></text><text id="text4835" x="215.05" y="748.081" fill="#000" fill-opacity="1" stroke="none" font-family="Sans" font-size="22" font-stretch="normal" font-style="normal" font-variant="normal" font-weight="normal" letter-spacing="0" text-anchor="middle" word-spacing="0" writing-mode="lr-tb" xml:space="preserve" style="text-align:center;line-height:125%;-inkscape-font-specification:Sans"><tspan id="tspan4837" x="215.05" y="748.081">37</tspan></text><text id="text4839" x="215.05" y="773.3" fill="#000" fill-opacity="1" stroke="none" font-family="Sans" font-size="22" font-stretch="normal" font-style="normal" font-variant="normal" font-weight="normal" letter-spacing="0" text-anchor="middle" word-spacing="0" writing-mode="lr-tb" xml:space="preserve" style="text-align:center;line-height:125%;-inkscape-font-specification:Sans"><tspan id="tspan4841" x="215.05" y="773.3">36</tspan></text><text id="text4843" x="215.05" y="798.862" fill="#000" fill-opacity="1" stroke="none" font-family="Sans" font-size="22" font-stretch="normal" font-style="normal" font-variant="normal" font-weight="normal" letter-spacing="0" text-anchor="middle" word-spacing="0" writing-mode="lr-tb" xml:space="preserve" style="text-align:center;line-height:125%;-inkscape-font-specification:Sans"><tspan id="tspan4845" x="215.05" y="798.862">35</tspan></text><text id="text4847" x="215.05" y="824.081" fill="#000" fill-opacity="1" stroke="none" font-family="Sans" font-size="22" font-stretch="normal" font-style="normal" font-variant="normal" font-weight="normal" letter-spacing="0" text-anchor="middle" word-spacing="0" writing-mode="lr-tb" xml:space="preserve" style="text-align:center;line-height:125%;-inkscape-font-specification:Sans"><tspan id="tspan4849" x="215.05" y="824.081">34</tspan></text><text id="text4851" x="215.05" y="849.3" fill="#000" fill-opacity="1" stroke="none" font-family="Sans" font-size="22" font-stretch="normal" font-style="normal" font-variant="normal" font-weight="normal" letter-spacing="0" text-anchor="middle" word-spacing="0" writing-mode="lr-tb" xml:space="preserve" style="text-align:center;line-height:125%;-inkscape-font-specification:Sans"><tspan id="tspan4853" x="215.05" y="849.3">33</tspan></text><text id="text4855" x="215.05" y="874.518" fill="#000" fill-opacity="1" stroke="none" font-family="Sans" font-size="22" font-stretch="normal" font-style="normal" font-variant="normal" font-weight="normal" letter-spacing="0" text-anchor="middle" word-spacing="0" writing-mode="lr-tb" xml:space="preserve" style="text-align:center;line-height:125%;-inkscape-font-specification:Sans"><tspan id="tspan4857" x="215.05" y="874.518">...</tspan></text><text id="text4859" x="215.05" y="899.737" fill="#000" fill-opacity="1" stroke="none" font-family="Sans" font-size="22" font-stretch="normal" font-style="normal" font-variant="normal" font-weight="normal" letter-spacing="0" text-anchor="middle" word-spacing="0" writing-mode="lr-tb" xml:space="preserve" style="text-align:center;line-height:125%;-inkscape-font-specification:Sans"><tspan id="tspan4861" x="215.05" y="899.737">2</tspan></text><text id="text4863" x="215.05" y="925.347" fill="#000" fill-opacity="1" stroke="none" font-family="Sans" font-size="22" font-stretch="normal" font-style="normal" font-variant="normal" font-weight="normal" letter-spacing="0" text-anchor="middle" word-spacing="0" writing-mode="lr-tb" xml:space="preserve" style="text-align:center;line-height:125%;-inkscape-font-specification:Sans"><tspan id="tspan4865" x="215.05" y="925.347">1</tspan></text><text id="text4867" x="215.05" y="950.956" fill="#000" fill-opacity="1" stroke="none" font-family="Sans" font-size="22" font-stretch="normal" font-style="normal" font-variant="normal" font-weight="normal" letter-spacing="0" text-anchor="middle" word-spacing="0" writing-mode="lr-tb" xml:space="preserve" style="text-align:center;line-height:125%;-inkscape-font-specification:Sans"><tspan id="tspan4869" x="215.05" y="950.956">0</tspan></text><text id="text4871" x="215.05" y="698.128" fill="#000" fill-opacity="1" stroke="none" font-family="Sans" font-size="22" font-stretch="normal" font-style="normal" font-variant="normal" font-weight="normal" letter-spacing="0" text-anchor="middle" word-spacing="0" writing-mode="lr-tb" xml:space="preserve" style="text-align:center;line-height:125%;-inkscape-font-specification:Sans"><tspan id="tspan4873" x="215.05" y="698.128">37+N-1</tspan></text><text id="text4875" x="75.05" y="392.081" fill="#000" fill-opacity="1" stroke="none" font-family="Sans" font-size="22" font-stretch="normal" font-style="normal" font-variant="normal" font-weight="normal" letter-spacing="0" text-anchor="middle" word-spacing="0" writing-mode="lr-tb" xml:space="preserve" style="text-align:center;line-height:125%;-inkscape-font-specification:Sans"><tspan id="tspan4877" x="75.05" y="392.081">2*NbMax</tspan></text><text id="text4879" x="75.05" y="418.081" fill="#000" fill-opacity="1" stroke="none" font-family="Sans" font-size="22" font-stretch="normal" font-style="normal" font-variant="normal" font-weight="normal" letter-spacing="0" text-anchor="middle" word-spacing="0" writing-mode="lr-tb" xml:space="preserve" style="text-align:center;line-height:125%;-inkscape-font-specification:Sans"><tspan id="tspan4881" x="75.05" y="418.081">...</tspan></text><text id="text4883" x="75.05" y="444.081" fill="#000" fill-opacity="1" stroke="none" font-family="Sans" font-size="22" font-stretch="normal" font-style="normal" font-variant="normal" font-weight="normal" letter-spacing="0" text-anchor="middle" word-spacing="0" writing-mode="lr-tb" xml:space="preserve" style="text-align:center;line-height:125%;-inkscape-font-specification:Sans"><tspan id="tspan4885" x="75.05" y="444.081">...</tspan></text><text id="text4887" x="75.05" y="620.91" fill="#000" fill-opacity="1" stroke="none" font-family="Sans" font-size="22" font-stretch="normal" font-style="normal" font-variant="normal" font-weight="normal" letter-spacing="0" text-anchor="middle" word-spacing="0" writing-mode="lr-tb" xml:space="preserve" style="text-align:center;line-height:125%;-inkscape-font-specification:Sans"><tspan id="tspan4889" x="75.05" y="620.91">...</tspan></text><text id="text4891" x="75.05" y="646.128" fill="#000" fill-opacity="1" stroke="none" font-family="Sans" font-size="22" font-stretch="normal" font-style="normal" font-variant="normal" font-weight="normal" letter-spacing="0" text-anchor="middle" word-spacing="0" writing-mode="lr-tb" xml:space="preserve" style="text-align:center;line-height:125%;-inkscape-font-specification:Sans"><tspan id="tspan4893" x="75.05" y="646.128">...</tspan></text><text id="text4895" x="75.05" y="671.738" fill="#000" fill-opacity="1" stroke="none" font-family="Sans" font-size="22" font-stretch="normal" font-style="normal" font-variant="normal" font-weight="normal" letter-spacing="0" text-anchor="middle" word-spacing="0" writing-mode="lr-tb" xml:space="preserve" style="text-align:center;line-height:125%;-inkscape-font-specification:Sans"><tspan id="tspan4897" x="75.05" y="671.738">...</tspan></text><text id="text4899" x="75.05" y="722.128" fill="#000" fill-opacity="1" stroke="none" font-family="Sans" font-size="22" font-stretch="normal" font-style="normal" font-variant="normal" font-weight="normal" letter-spacing="0" text-anchor="middle" word-spacing="0" writing-mode="lr-tb" xml:space="preserve" style="text-align:center;line-height:125%;-inkscape-font-specification:Sans"><tspan id="tspan4901" x="75.05" y="722.128">...</tspan></text><text id="text4903" x="75.05" y="748.081" fill="#000" fill-opacity="1" stroke="none" font-family="Sans" font-size="22" font-stretch="normal" font-style="normal" font-variant="normal" font-weight="normal" letter-spacing="0" text-anchor="middle" word-spacing="0" writing-mode="lr-tb" xml:space="preserve" style="text-align:center;line-height:125%;-inkscape-font-specification:Sans"><tspan id="tspan4905" x="75.05" y="748.081">...</tspan></text><text id="text4907" x="75.05" y="773.3" fill="#000" fill-opacity="1" stroke="none" font-family="Sans" font-size="22" font-stretch="normal" font-style="normal" font-variant="normal" font-weight="normal" letter-spacing="0" text-anchor="middle" word-spacing="0" writing-mode="lr-tb" xml:space="preserve" style="text-align:center;line-height:125%;-inkscape-font-specification:Sans"><tspan id="tspan4909" x="75.05" y="773.3">...</tspan></text><text id="text4911" x="75.05" y="798.862" fill="#000" fill-opacity="1" stroke="none" font-family="Sans" font-size="22" font-stretch="normal" font-style="normal" font-variant="normal" font-weight="normal" letter-spacing="0" text-anchor="middle" word-spacing="0" writing-mode="lr-tb" xml:space="preserve" style="text-align:center;line-height:125%;-inkscape-font-specification:Sans"><tspan id="tspan4913" x="75.05" y="798.862">...</tspan></text><text id="text4915" x="75.05" y="824.081" fill="#000" fill-opacity="1" stroke="none" font-family="Sans" font-size="22" font-stretch="normal" font-style="normal" font-variant="normal" font-weight="normal" letter-spacing="0" text-anchor="middle" word-spacing="0" writing-mode="lr-tb" xml:space="preserve" style="text-align:center;line-height:125%;-inkscape-font-specification:Sans"><tspan id="tspan4917" x="75.05" y="824.081">...</tspan></text><text id="text4919" x="75.05" y="849.3" fill="#000" fill-opacity="1" stroke="none" font-family="Sans" font-size="22" font-stretch="normal" font-style="normal" font-variant="normal" font-weight="normal" letter-spacing="0" text-anchor="middle" word-spacing="0" writing-mode="lr-tb" xml:space="preserve" style="text-align:center;line-height:125%;-inkscape-font-specification:Sans"><tspan id="tspan4921" x="75.05" y="849.3">...</tspan></text><text id="text4923" x="75.05" y="874.518" fill="#000" fill-opacity="1" stroke="none" font-family="Sans" font-size="22" font-stretch="normal" font-style="normal" font-variant="normal" font-weight="normal" letter-spacing="0" text-anchor="middle" word-spacing="0" writing-mode="lr-tb" xml:space="preserve" style="text-align:center;line-height:125%;-inkscape-font-specification:Sans"><tspan id="tspan4925" x="75.05" y="874.518">...</tspan></text><text id="text4927" x="75.05" y="899.737" fill="#000" fill-opacity="1" stroke="none" font-family="Sans" font-size="22" font-stretch="normal" font-style="normal" font-variant="normal" font-weight="normal" letter-spacing="0" text-anchor="middle" word-spacing="0" writing-mode="lr-tb" xml:space="preserve" style="text-align:center;line-height:125%;-inkscape-font-specification:Sans"><tspan id="tspan4929" x="75.05" y="899.737">0x0004</tspan></text><text id="text4931" x="75.05" y="925.347" fill="#000" fill-opacity="1" stroke="none" font-family="Sans" font-size="22" font-stretch="normal" font-style="normal" font-variant="normal" font-weight="normal" letter-spacing="0" text-anchor="middle" word-spacing="0" writing-mode="lr-tb" xml:space="preserve" style="text-align:center;line-height:125%;-inkscape-font-specification:Sans"><tspan id="tspan4933" x="75.05" y="925.347">0x0002</tspan></text><text id="text4935" x="75.05" y="950.956" fill="#000" fill-opacity="1" stroke="none" font-family="Sans" font-size="22" font-stretch="normal" font-style="normal" font-variant="normal" font-weight="normal" letter-spacing="0" text-anchor="middle" word-spacing="0" writing-mode="lr-tb" xml:space="preserve" style="text-align:center;line-height:125%;-inkscape-font-specification:Sans"><tspan id="tspan4937" x="75.05" y="950.956">0x0000</tspan></text><text id="text4939" x="75.05" y="698.128" fill="#000" fill-opacity="1" stroke="none" font-family="Sans" font-size="22" font-stretch="normal" font-style="normal" font-variant="normal" font-weight="normal" letter-spacing="0" text-anchor="middle" word-spacing="0" writing-mode="lr-tb" xml:space="preserve" style="text-align:center;line-height:125%;-inkscape-font-specification:Sans"><tspan id="tspan4941" x="75.05" y="698.128">...</tspan></text></g><g id="g5239"><text id="text4985" x="152.748" y="332.081" fill="#000" fill-opacity="1" stroke="none" font-family="Sans" font-size="22" font-stretch="normal" font-style="normal" font-variant="normal" font-weight="normal" letter-spacing="0" text-anchor="middle" word-spacing="0" writing-mode="lr-tb" xml:space="preserve" style="text-align:center;line-height:125%;-inkscape-font-specification:Sans"><tspan id="tspan4987" x="152.748" y="332.081" font-weight="bold">Address</tspan></text><text id="text4989" x="75.05" y="359.61" fill="#000" fill-opacity="1" stroke="none" font-family="Sans" font-size="22" font-stretch="normal" font-style="normal" font-variant="normal" font-weight="bold" letter-spacing="0" text-anchor="middle" word-spacing="0" writing-mode="lr-tb" xml:space="preserve" style="text-align:center;line-height:125%;-inkscape-font-specification:Sans Bold"><tspan id="tspan4991" x="75.05" y="359.61">Byte</tspan></text><text id="text4993" x="215.05" y="362.081" fill="#000" fill-opacity="1" stroke="none" font-family="Sans" font-size="22" font-stretch="normal" font-style="normal" font-variant="normal" font-weight="bold" letter-spacing="0" text-anchor="middle" word-spacing="0" writing-mode="lr-tb" xml:space="preserve" style="text-align:center;line-height:125%;-inkscape-font-specification:Sans Bold"><tspan id="tspan4995" x="215.05" y="362.081">Count</tspan></text></g><g id="g5143"><g font-style="normal" style="line-height:125%;-inkscape-font-specification:OpenSymbol" id="text5004" fill="#000" fill-opacity="1" stroke="none" font-family="OpenSymbol" font-size="100" font-stretch="normal" font-variant="normal" font-weight="normal" letter-spacing="0" transform="matrix(1,0,0,0.75894099,-45.851456,286.12582)" word-spacing="0"><path style="-inkscape-font-specification:OpenSymbol" id="path5009" d="m 701.65527,215.99615 0,-1.61132 2.2461,-0.14649 c 5.04556,-0.84637 7.56834,-4.76889 7.56836,-11.76758 -2e-5,-3.125 -0.0977,-7.8125 -0.29297,-14.0625 -0.19533,-6.24998 -0.29298,-10.9212 -0.29297,-14.01367 -10e-6,-4.42706 2.1647,-7.76364 6.49414,-10.00976 -4.32944,-2.05075 -6.49415,-5.38734 -6.49414,-10.00977 -10e-6,-3.0924 0.0976,-7.79618 0.29297,-14.11133 0.1953,-6.31504 0.29295,-11.00254 0.29297,-14.0625 -2e-5,-7.81242 -3.2715,-11.71867 -9.81446,-11.71875 l 0,-1.61133 0.48828,0 c 4.29687,9e-5 7.56835,1.38355 9.81446,4.1504 2.27863,2.79955 3.41795,6.38027 3.41797,10.74218 -2e-5,2.70189 -0.21161,7.60097 -0.63477,14.69727 -0.39064,6.54301 -0.58595,11.4421 -0.58594,14.69726 -10e-6,4.26436 2.14842,6.39652 6.44532,6.39649 l 0.78125,0 0,1.61133 -2.14844,0.0977 c -3.38544,0.45576 -5.07814,2.55537 -5.07813,6.29883 -10e-6,3.28778 0.1953,8.18686 0.58594,14.69727 0.42316,7.0638 0.63475,11.96288 0.63477,14.69726 -2e-5,10.02603 -4.57358,15.03904 -13.72071,15.03906" font-family="OpenSymbol"/></g><g id="g5032" fill="#000" fill-opacity="1" stroke="none" font-family="OpenSymbol" font-size="100" font-stretch="normal" font-style="normal" font-variant="normal" font-weight="normal" letter-spacing="0" transform="matrix(1,0,0,0.75894099,-45.851456,515.34456)" word-spacing="0" style="line-height:125%;-inkscape-font-specification:OpenSymbol"><path id="path5034" d="m 701.65527,215.99615 0,-1.61132 2.2461,-0.14649 c 5.04556,-0.84637 7.56834,-4.76889 7.56836,-11.76758 -2e-5,-3.125 -0.0977,-7.8125 -0.29297,-14.0625 -0.19533,-6.24998 -0.29298,-10.9212 -0.29297,-14.01367 -10e-6,-4.42706 2.1647,-7.76364 6.49414,-10.00976 -4.32944,-2.05075 -6.49415,-5.38734 -6.49414,-10.00977 -10e-6,-3.0924 0.0976,-7.79618 0.29297,-14.11133 0.1953,-6.31504 0.29295,-11.00254 0.29297,-14.0625 -2e-5,-7.81242 -3.2715,-11.71867 -9.81446,-11.71875 l 0,-1.61133 0.48828,0 c 4.29687,9e-5 7.56835,1.38355 9.81446,4.1504 2.27863,2.79955 3.41795,6.38027 3.41797,10.74218 -2e-5,2.70189 -0.21161,7.60097 -0.63477,14.69727 -0.39064,6.54301 -0.58595,11.4421 -0.58594,14.69726 -10e-6,4.26436 2.14842,6.39652 6.44532,6.39649 l 0.78125,0 0,1.61133 -2.14844,0.0977 c -3.38544,0.45576 -5.07814,2.55537 -5.07813,6.29883 -10e-6,3.28778 0.1953,8.18686 0.58594,14.69727 0.42316,7.0638 0.63475,11.96288 0.63477,14.69726 -2e-5,10.02603 -4.57358,15.03904 -13.72071,15.03906" font-family="OpenSymbol" style="-inkscape-font-specification:OpenSymbol"/></g><g font-style="normal" style="line-height:125%;-inkscape-font-specification:OpenSymbol" id="g5036" fill="#000" fill-opacity="1" stroke="none" font-family="OpenSymbol" font-size="100" font-stretch="normal" font-variant="normal" font-weight="normal" letter-spacing="0" transform="matrix(1,0,0,0.74000161,-45.851456,595.48227)" word-spacing="0"><path style="-inkscape-font-specification:OpenSymbol" id="path5038" d="m 701.65527,215.99615 0,-1.61132 2.2461,-0.14649 c 5.04556,-0.84637 7.56834,-4.76889 7.56836,-11.76758 -2e-5,-3.125 -0.0977,-7.8125 -0.29297,-14.0625 -0.19533,-6.24998 -0.29298,-10.9212 -0.29297,-14.01367 -10e-6,-4.42706 2.1647,-7.76364 6.49414,-10.00976 -4.32944,-2.05075 -6.49415,-5.38734 -6.49414,-10.00977 -10e-6,-3.0924 0.0976,-7.79618 0.29297,-14.11133 0.1953,-6.31504 0.29295,-11.00254 0.29297,-14.0625 -2e-5,-7.81242 -3.2715,-11.71867 -9.81446,-11.71875 l 0,-1.61133 0.48828,0 c 4.29687,9e-5 7.56835,1.38355 9.81446,4.1504 2.27863,2.79955 3.41795,6.38027 3.41797,10.74218 -2e-5,2.70189 -0.21161,7.60097 -0.63477,14.69727 -0.39064,6.54301 -0.58595,11.4421 -0.58594,14.69726 -10e-6,4.26436 2.14842,6.39652 6.44532,6.39649 l 0.78125,0 0,1.61133 -2.14844,0.0977 c -3.38544,0.45576 -5.07814,2.55537 -5.07813,6.29883 -10e-6,3.28778 0.1953,8.18686 0.58594,14.69727 0.42316,7.0638 0.63475,11.96288 0.63477,14.69726 -2e-5,10.02603 -4.57358,15.03904 -13.72071,15.03906" font-family="OpenSymbol"/></g><g id="g5040" fill="#000" fill-opacity="1" stroke="none" font-family="OpenSymbol" font-size="100" font-stretch="normal" font-style="normal" font-variant="normal" font-weight="normal" letter-spacing="0" transform="matrix(1,0,0,1.2551528,-45.851456,688.33655)" word-spacing="0" style="line-height:125%;-inkscape-font-specification:OpenSymbol"><path id="path5042" d="m 701.65527,215.99615 0,-1.61132 2.2461,-0.14649 c 5.04556,-0.84637 7.56834,-4.76889 7.56836,-11.76758 -2e-5,-3.125 -0.0977,-7.8125 -0.29297,-14.0625 -0.19533,-6.24998 -0.29298,-10.9212 -0.29297,-14.01367 -10e-6,-4.42706 2.1647,-7.76364 6.49414,-10.00976 -4.32944,-2.05075 -6.49415,-5.38734 -6.49414,-10.00977 -10e-6,-3.0924 0.0976,-7.79618 0.29297,-14.11133 0.1953,-6.31504 0.29295,-11.00254 0.29297,-14.0625 -2e-5,-7.81242 -3.2715,-11.71867 -9.81446,-11.71875 l 0,-1.61133 0.48828,0 c 4.29687,9e-5 7.56835,1.38355 9.81446,4.1504 2.27863,2.79955 3.41795,6.38027 3.41797,10.74218 -2e-5,2.70189 -0.21161,7.60097 -0.63477,14.69727 -0.39064,6.54301 -0.58595,11.4421 -0.58594,14.69726 -10e-6,4.26436 2.14842,6.39652 6.44532,6.39649 l 0.78125,0 0,1.61133 -2.14844,0.0977 c -3.38544,0.45576 -5.07814,2.55537 -5.07813,6.29883 -10e-6,3.28778 0.1953,8.18686 0.58594,14.69727 0.42316,7.0638 0.63475,11.96288 0.63477,14.69726 -2e-5,10.02603 -4.57358,15.03904 -13.72071,15.03906" font-family="OpenSymbol" style="-inkscape-font-specification:OpenSymbol"/></g><text id="text5044" x="687.05" y="888.862" fill="#000" fill-opacity="1" stroke="none" font-family="Sans" font-size="20" font-stretch="normal" font-style="normal" font-variant="normal" font-weight="normal" letter-spacing="0" text-anchor="start" word-spacing="0" writing-mode="lr-tb" xml:space="preserve" style="text-align:start;line-height:125%;-inkscape-font-specification:Sans"><tspan id="tspan5054" x="687.05" y="888.862">Target&apos;s mandatory</tspan><tspan id="tspan5052" x="687.05" y="913.862">variables</tspan></text><g id="g5048" fill="#000" fill-opacity="1" stroke="none" font-family="OpenSymbol" font-size="100" font-stretch="normal" font-style="normal" font-variant="normal" font-weight="normal" letter-spacing="0" transform="matrix(1,0,0,0.74000161,-45.851456,670.65416)" word-spacing="0" style="line-height:125%;-inkscape-font-specification:OpenSymbol"><path id="path5050" d="m 701.65527,215.99615 0,-1.61132 2.2461,-0.14649 c 5.04556,-0.84637 7.56834,-4.76889 7.56836,-11.76758 -2e-5,-3.125 -0.0977,-7.8125 -0.29297,-14.0625 -0.19533,-6.24998 -0.29298,-10.9212 -0.29297,-14.01367 -10e-6,-4.42706 2.1647,-7.76364 6.49414,-10.00976 -4.32944,-2.05075 -6.49415,-5.38734 -6.49414,-10.00977 -10e-6,-3.0924 0.0976,-7.79618 0.29297,-14.11133 0.1953,-6.31504 0.29295,-11.00254 0.29297,-14.0625 -2e-5,-7.81242 -3.2715,-11.71867 -9.81446,-11.71875 l 0,-1.61133 0.48828,0 c 4.29687,9e-5 7.56835,1.38355 9.81446,4.1504 2.27863,2.79955 3.41795,6.38027 3.41797,10.74218 -2e-5,2.70189 -0.21161,7.60097 -0.63477,14.69727 -0.39064,6.54301 -0.58595,11.4421 -0.58594,14.69726 -10e-6,4.26436 2.14842,6.39652 6.44532,6.39649 l 0.78125,0 0,1.61133 -2.14844,0.0977 c -3.38544,0.45576 -5.07814,2.55537 -5.07813,6.29883 -10e-6,3.28778 0.1953,8.18686 0.58594,14.69727 0.42316,7.0638 0.63475,11.96288 0.63477,14.69726 -2e-5,10.02603 -4.57358,15.03904 -13.72071,15.03906" font-family="OpenSymbol" style="-inkscape-font-specification:OpenSymbol"/></g><text id="text5058" x="687.05" y="786.862" fill="#000" fill-opacity="1" stroke="none" font-family="Sans" font-size="20" font-stretch="normal" font-style="normal" font-variant="normal" font-weight="normal" letter-spacing="0" text-anchor="start" word-spacing="0" writing-mode="lr-tb" xml:space="preserve" style="text-align:start;line-height:125%;-inkscape-font-specification:Sans"><tspan id="tspan5060" x="687.05" y="786.862">Target&apos;s common</tspan><tspan id="tspan5062" x="687.05" y="811.862">variables</tspan></text><text id="text5064" x="687.05" y="712.862" fill="#000" fill-opacity="1" stroke="none" font-family="Sans" font-size="20" font-stretch="normal" font-style="normal" font-variant="normal" font-weight="normal" letter-spacing="0" text-anchor="start" word-spacing="0" writing-mode="lr-tb" xml:space="preserve" style="text-align:start;line-height:125%;-inkscape-font-specification:Sans"><tspan id="tspan5066" x="687.05" y="712.862">Target&apos;s specific</tspan><tspan id="tspan5068" x="687.05" y="737.862">variables</tspan></text><text id="text5070" x="687.05" y="646.862" fill="#000" fill-opacity="1" stroke="none" font-family="Sans" font-size="20" font-stretch="normal" font-style="normal" font-variant="normal" font-weight="normal" letter-spacing="0" text-anchor="start" word-spacing="0" writing-mode="lr-tb" xml:space="preserve" style="text-align:start;line-height:125%;-inkscape-font-specification:Sans"><tspan id="tspan5074" x="687.05" y="646.862">User variables</tspan></text><text id="text5076" x="687.05" y="416.862" fill="#000" fill-opacity="1" stroke="none" font-family="Sans" font-size="20" font-stretch="normal" font-style="normal" font-variant="normal" font-weight="normal" letter-spacing="0" text-anchor="start" word-spacing="0" writing-mode="lr-tb" xml:space="preserve" style="text-align:start;line-height:125%;-inkscape-font-specification:Sans"><tspan id="tspan5080" x="687.05" y="416.862">Temporary variables</tspan></text></g></g></svg>