<svg xmlns="http://www.w3.org/2000/svg" xmlns:svg="http://www.w3.org/2000/svg" id="Layer_1" x="0" y="0" enable-background="new 0 0 256 256" version="1.1" viewBox="0 0 256 256" xml:space="preserve"><metadata id="metadata19"/><path id="circle5" fill="#6d6e70" fill-opacity="1" stroke="none" stroke-opacity="1" d="M 122.24805 9.9023438 A 118.3 118.3 0 0 0 9.9589844 122.24805 L 78.800781 122.24805 A 5.7523252 5.7523252 0 1 1 78.800781 133.75195 L 9.9902344 133.75195 A 118.3 118.3 0 0 0 122.24805 246.09766 L 122.24805 177.19922 A 5.7523252 5.7523252 0 0 1 127.91406 171.36719 A 5.7523252 5.7523252 0 0 1 133.75195 177.19922 L 133.75195 246.00977 A 118.3 118.3 0 0 0 246.09766 133.75195 L 177.19922 133.75195 A 5.7523252 5.7523252 0 1 1 177.19922 122.24805 L 246.00586 122.24805 A 118.3 118.3 0 0 0 133.75195 9.9882812 L 133.75195 78.800781 A 5.7523252 5.7523252 0 1 1 122.24805 78.800781 L 122.24805 9.9023438 z"/></svg>