<svg xmlns="http://www.w3.org/2000/svg" xmlns:xlink="http://www.w3.org/1999/xlink" id="Calque_1" x="0" y="0" enable-background="new 0 0 566.9 315.3" version="1.1" viewBox="0 0 566.9 315.3" xml:space="preserve"><style type="text/css">.st0{fill:#eaeaea}.st1{fill:#d8d8d8}.st2{fill:#2d2d2d}</style><g><g><path d="M287,263.8c13.1,0,24.1-6.5,28.3-15.5h-56.7C262.9,257.3,273.9,263.8,287,263.8z" class="st0"/><path d="M316.7,236.1h-59.4c-0.3,1.4-0.5,2.8-0.5,4.2c0,2.8,0.7,5.5,1.9,8h56.7c1.2-2.5,1.9-5.2,1.9-8 C317.3,238.9,317,237.5,316.7,236.1z" class="st1"/></g><path d="M130.3,263.8H78.4c-0.5,0-1-0.4-1-1v-38.4c0-0.5,0.4-1,1-1h51.8c0.5,0,1,0.4,1,1v38.4 C131.2,263.4,130.8,263.8,130.3,263.8z" class="st2"/><path d="M499.8,263.8h-51.8c-0.5,0-1-0.4-1-1l0-38.4c0-0.5,0.4-1,1-1h51.8c0.5,0,1,0.4,1,1v38.4 C500.7,263.4,500.3,263.8,499.8,263.8z" class="st2"/><path d="M509.5,55.6c0,0-1.2-5.9-222.5-5.9c-221.3,0-222.5,5.9-222.5,5.9c-4,0-7.3,3.3-7.3,7.3v73.7v99.9 c0,4,3.3,7.3,7.3,7.3h444.9c4,0,7.3-3.3,7.3-7.3v-99.9V62.8C516.8,58.8,513.5,55.6,509.5,55.6z" class="st0"/><path d="M315.3,156h-52.3c-0.1,0-0.2-0.1-0.2-0.2v-19c0-0.1,0.1-0.2,0.2-0.2h52.3c0.1,0,0.2,0.1,0.2,0.2v19 C315.5,155.9,315.4,156,315.3,156z" class="st2"/><path d="M413.4,156h-45.1c-0.1,0-0.2-0.1-0.2-0.2v-19c0-0.1,0.1-0.2,0.2-0.2h45.1c0.1,0,0.2,0.1,0.2,0.2v19 C413.7,155.9,413.6,156,413.4,156z" class="st2"/><path d="M500.5,156h-33.9c-0.1,0-0.2-0.1-0.2-0.2v-19c0-0.1,0.1-0.2,0.2-0.2h33.9c0.1,0,0.2,0.1,0.2,0.2v19 C500.7,155.9,500.6,156,500.5,156z" class="st2"/><path d="M111.7,156H77.7c-0.1,0-0.2-0.1-0.2-0.2v-19c0-0.1,0.1-0.2,0.2-0.2h33.9c0.1,0,0.2,0.1,0.2,0.2v19 C111.9,155.9,111.8,156,111.7,156z" class="st2"/><path d="M164.8,156h45.1c0.1,0,0.2-0.1,0.2-0.2v-19c0-0.1-0.1-0.2-0.2-0.2h-45.1c-0.1,0-0.2,0.1-0.2,0.2v19 C164.5,155.9,164.6,156,164.8,156z" class="st2"/></g></svg>