<svg xmlns="http://www.w3.org/2000/svg" xmlns:svg="http://www.w3.org/2000/svg" id="Instructions" width="180.814" height="86.7" x="0" y="0" version="1.1" viewBox="0 0 180.814 86.7" xml:space="preserve"><metadata id="metadata424"/><style id="style3" type="text/css">.st0{fill:#036ab4}.st1{fill:#f38183}.st2{fill:#fff}.st3{fill:#f6e220}.st4{fill:#e62f2f}.st5{fill:#4856a4}.st6{fill:#85c671}.st7{fill:#8c8b8b}.st8{fill:#d55f66}.st9{opacity:.2}.st10{fill:#facbcf}.st11{fill:#f2f2f3}.st12{fill:url(#SVGID_1_)}.st13{fill:url(#SVGID_2_)}.st14{fill:url(#SVGID_3_)}.st15{fill:none;stroke:#231f20;stroke-width:.3161;stroke-miterlimit:10}</style><rect id="rect4328" width="180.814" height="30.232" x="0" y=".151" fill="#024b7f" fill-opacity="1" stroke-width="1.178" class="st0"/><rect id="rect10" width="180.814" height="56.317" x="0" y="30.383" fill="#036ab4" stroke-width="1.077" class="st0"/><g id="g18" transform="matrix(2.0556083,0,0,2.0556083,-177.9199,2.0140341)"><g id="g20"><g id="g22"><path id="path24" d="m 124.2,36.7 c -1,0 -1.8,-0.1 -2,-0.1 -1,-0.1 -2.5,-0.4 -3.5,-0.6 -0.6,-0.1 -1.1,-0.2 -1.5,-0.3 l -0.6,-0.1 c -0.1,0 -0.1,0 -0.1,-0.1 v 0 l -0.1,-0.1 -0.1,-0.1 -0.1,-0.1 h -0.1 -0.2 c -0.2,0.1 -0.5,0.2 -0.8,0.2 -0.1,0 -0.2,0 -0.3,0 -0.4,-0.1 -0.7,-0.3 -0.8,-0.8 l -0.1,-0.4 h -0.2 -0.2 c -0.3,0.1 -0.6,0.1 -0.9,0.2 -0.4,0.1 -0.7,0.2 -1,0.2 -0.5,0.1 -0.9,0.1 -1.3,0.1 -0.7,0 -1.4,-0.1 -1.9,-0.4 -0.9,-0.5 -1.8,-1.3 -2.4,-2.3 -0.1,-0.1 -0.1,-0.2 -0.2,-0.3 0,-0.1 -0.1,-0.2 -0.1,-0.2 -0.1,-0.2 -0.1,-0.3 -0.1,-0.3 l -0.1,-0.3 -0.3,0.2 -0.4,0.3 c -0.5,0.4 -1.1,0.8 -1.7,1.1 0,0 -0.1,0 -0.2,0.1 -0.4,0.1 -0.8,0.2 -1.1,0.2 -0.2,0 -0.3,0 -0.5,-0.1 -0.1,0 -0.1,0 -0.2,0 -0.4,-0.1 -1,-0.5 -0.9,-1 0,-0.5 0.4,-0.7 0.7,-0.9 l 0.1,-0.1 c 0.3,-0.1 0.5,-0.3 0.6,-0.5 0.2,-0.3 0.1,-0.8 0.1,-1.2 v -0.3 c 0,-0.1 0,-0.2 0,-0.3 0,-0.4 0,-0.7 0,-0.9 0,-0.1 0,-0.3 0.1,-0.4 0,-0.1 0,-0.2 0.1,-0.2 0.1,-0.2 0.1,-0.3 0.2,-0.4 0.1,-0.2 0.2,-0.3 0.3,-0.4 0.1,-0.1 0.1,-0.1 0.2,-0.2 0.4,-0.4 0.9,-0.7 1.3,-0.9 l 0.3,-0.2 -0.2,-0.2 c -0.1,-0.1 -0.2,-0.2 -0.3,-0.3 -0.2,-0.2 -0.3,-0.3 -0.4,-0.5 l -0.1,-0.3 -0.3,0.1 c -1.1,1.1 -2.4,2.2 -4.2,2.3 h -0.2 c -2,0 -4.1,-1.2 -5.6,-3.1 C 92,21.6 91.3,20.2 91.1,18.7 90.8,17 91,15.3 91.7,13.6 93.1,10 96.5,7 100.4,5.8 c 0.1,0 0.5,-0.1 0.5,-0.1 0.4,-0.1 0.9,-0.2 1.3,-0.2 0.1,0 0.2,0 0.3,0 0.1,0 0.2,0 0.3,0 0.1,0 0.2,0 0.3,0 h 0.1 c 0.1,0 0.2,0 0.3,0 0.1,0 0.2,0 0.4,0 0.7,0 1.3,0.1 2,0.2 1.5,0.3 2.7,0.8 4.1,1.4 l 0.2,0.1 0.2,-0.2 c 0,0 0.1,-0.1 0.1,-0.1 0.1,-0.1 0.1,-0.1 0.2,-0.2 0.1,-0.1 0.1,-0.1 0.2,-0.2 0.5,-0.4 1,-0.6 1.5,-0.6 0.5,0 1,0.2 1.4,0.6 0.9,1 0.9,2.5 1,3.7 l 0.1,1.9 c 0,0.2 0,0.5 0,0.7 v 0.6 0.7 l 0.6,-0.9 c 0.3,-0.4 0.7,-0.8 1,-1.2 l 0.2,-0.2 c 0.2,-0.2 0.5,-0.4 0.7,-0.6 l 0.1,-0.1 0.1,-0.1 c 0.5,-0.4 1,-0.7 1.5,-0.7 0.1,0 0.1,0 0.2,0 0.5,0.1 1,0.5 1.3,0.7 l 0.1,0.1 c 0.5,0.4 1,0.9 1.4,1.2 0.1,0.1 0.5,0.5 0.5,0.5 0.1,0.1 0.2,0.2 0.3,0.2 l 0.1,0.1 h 0.1 c 0.1,0 0.1,-0.1 0.2,-0.1 l 0.1,-0.1 c 0.3,-0.1 0.6,-0.3 0.9,-0.3 0,0 0.1,0 0.1,0 0.4,0.1 0.7,0.4 0.7,0.9 0,0.1 0,0.1 0,0.2 0,0.1 -0.1,0.4 -0.1,0.4 h 0.3 c 0.2,0 0.4,0 0.6,0 0.2,0 0.3,0 0.4,0 h 0.3 c 0.4,0 0.7,0.1 1,0.2 h 0.2 c 0.2,0 0.3,0.1 0.5,0.1 l 0.2,0.1 0.2,0.1 c 0,0 0.1,0 0.1,0 h 0.1 c 0.4,0.2 0.6,0.4 0.9,0.6 l 0.1,0.1 c 0,0.1 0.1,0.1 0.1,0.2 0,0.1 0.1,0.1 0.1,0.2 0,0.1 0.1,0.1 0.1,0.2 0,0 0,0.1 0,0.1 v 0.1 c 0,0.1 0,0.1 0,0.1 0,0.2 0,0.3 0,0.4 0,0.1 0,0.2 0,0.3 l -0.1,0.2 c 0,0.1 -0.1,0.2 -0.1,0.3 l -0.1,0.2 c -0.4,0.8 -1,1.4 -1.5,2 -0.4,0.4 -0.7,0.8 -1.1,1.2 -0.2,0.2 -0.5,0.5 -0.7,0.7 -0.1,0.1 -0.3,0.3 -0.4,0.4 -0.1,0.2 -0.3,0.3 -0.4,0.5 l -0.2,0.3 0.3,0.1 c 0.3,0.1 0.5,0.2 0.8,0.3 0.2,0.1 0.3,0.1 0.4,0.2 0.1,0.1 0.3,0.2 0.4,0.3 0.3,0.2 0.5,0.5 0.6,0.8 0.3,1.1 -0.3,2.3 -1.3,2.7 -0.1,0 -0.2,0.1 -0.3,0.1 -0.1,0 -0.3,0 -0.4,-0.1 h -0.1 -0.2 l -0.1,0.2 c -0.1,0.3 -0.2,0.5 -0.3,0.8 0,0.1 -0.1,0.2 -0.1,0.3 v 0.1 l 0.1,0.1 c 0.3,0.3 0.6,0.7 1,1.1 l 0.7,0.7 1.1,1.1 c 0.5,0.6 1,1.2 1.4,1.9 0.4,0.7 0.4,1.3 0.2,1.8 0,0.1 -0.1,0.1 -0.1,0.2 0,0 -0.1,0.1 -0.1,0.1 0,0 -0.1,0.2 -0.3,0.3 -0.1,0.1 -0.2,0.2 -0.2,0.2 -0.1,0 -0.2,0.1 -0.2,0.1 -0.1,0.1 -0.2,0.1 -0.3,0.1 -0.1,0 -0.2,0.1 -0.3,0.1 -0.1,0 -0.2,0.1 -0.3,0.1 -0.1,0 -0.2,0.1 -0.3,0.1 -0.1,0 -0.2,0.1 -0.3,0.1 -0.1,0 -0.2,0 -0.3,0.1 -0.4,0.1 -0.9,0.1 -1.4,0.2 h -0.8 z"/></g><path id="path26" fill="#f38183" d="m 124.2,36.4 c -1,0 -1.7,-0.1 -2,-0.1 -1,-0.1 -2.4,-0.4 -3.5,-0.6 -1.2,-0.2 -1.8,-0.4 -2,-0.4 v 0 c 0,0 0,-0.1 -0.1,-0.1 l -0.1,-0.1 h -0.2 c -0.1,0 -0.1,0 -0.2,-0.1 h -0.2 l -0.1,0.1 c -0.2,0.1 -0.4,0.2 -0.7,0.2 -0.1,0 -0.2,0 -0.3,0 -0.3,-0.1 -0.4,-0.2 -0.5,-0.5 0,-0.1 0,-0.1 0,-0.2 v 0 c 0,-0.1 0,-0.2 -0.1,-0.3 L 114.1,34 h -0.3 c -0.1,0 -0.1,0 -0.2,0 -0.1,0 -0.2,0 -0.3,0 -0.3,0.1 -0.6,0.1 -0.9,0.2 -0.4,0.1 -0.7,0.2 -1,0.2 -0.5,0.1 -0.9,0.1 -1.2,0.1 -0.7,0 -1.3,-0.1 -1.8,-0.4 -0.9,-0.5 -1.7,-1.3 -2.3,-2.2 -0.1,-0.1 -0.1,-0.2 -0.2,-0.3 0,-0.1 -0.1,-0.2 -0.1,-0.2 v -0.1 c -0.1,-0.1 -0.1,-0.2 -0.1,-0.3 v 0 c 0,-0.1 0,-0.1 -0.1,-0.2 l -0.1,-0.5 -0.7,0.5 c -0.1,0.1 -0.2,0.2 -0.4,0.3 -0.5,0.4 -1,0.8 -1.7,1 0,0 -0.1,0 -0.1,0.1 -0.4,0.1 -0.7,0.2 -1,0.2 -0.2,0 -0.3,0 -0.4,0 0,0 -0.1,0 -0.1,0 -0.3,-0.1 -0.7,-0.3 -0.7,-0.7 0,-0.3 0.3,-0.5 0.6,-0.7 l 0.1,-0.1 c 0.3,-0.2 0.6,-0.3 0.8,-0.7 0.2,-0.4 0.1,-0.9 0.1,-1.4 v -0.3 c 0,-0.1 0,-0.2 0,-0.3 0,-0.3 0,-0.6 0,-0.9 0,-0.1 0,-0.2 0.1,-0.4 0,-0.1 0,-0.1 0.1,-0.2 0.1,-0.1 0.1,-0.3 0.2,-0.4 v 0 c 0.1,-0.2 0.2,-0.3 0.2,-0.3 l 0.3,-0.2 v 0 c 0.4,-0.4 1,-0.7 1.4,-0.9 l 0.4,-0.3 -0.4,-0.3 c -0.1,0 -0.1,-0.1 -0.2,-0.1 -0.1,-0.1 -0.3,-0.2 -0.4,-0.4 -0.1,-0.2 -0.3,-0.3 -0.4,-0.5 v 0 0 c 0,0 0,0 0,-0.1 v 0 0 c 0,0 0,-0.1 0,-0.1 v 0 c 0,0 0,-0.1 0,-0.1 l -0.2,-0.5 -0.4,0.4 c -0.1,0.1 -0.1,0.1 -0.2,0.2 -1,1.1 -2.3,2.2 -4,2.2 -0.1,0 -0.1,0 -0.2,0 -1.9,0 -3.9,-1.1 -5.4,-3 C 92,21.2 91.4,19.8 91.1,18.4 90.8,16.8 91,15.1 91.6,13.5 93,10 96.3,7.1 100.1,5.9 c 0.1,0 0.3,-0.1 0.4,-0.1 h 0.1 v 0 c 0.4,-0.1 0.8,-0.2 1.2,-0.2 0.1,0 0.2,0 0.3,0 v 0 c 0.1,0 0.1,0 0.2,0 0.1,0 0.2,0 0.3,0 v 0 0 0 c 0,0 0,0 0.1,0 0.1,0 0.2,0 0.3,0 0.1,0 0.2,0 0.3,0 0.7,0 1.3,0.1 1.9,0.2 1.6,0.3 2.9,0.9 4.2,1.4 l 0.2,0.1 0.2,-0.2 c 0,0 0,0 0.1,-0.1 v 0 c 0,0 0.1,-0.1 0.1,-0.1 v 0 0 c 0,0 0,-0.1 0.1,-0.1 v 0 0 c 0,0 0.1,-0.1 0.1,-0.1 v 0 c 0,0 0.1,-0.1 0.2,-0.1 0.4,-0.3 0.9,-0.5 1.3,-0.5 0.4,0 0.8,0.2 1.1,0.5 0.8,0.9 0.8,2.3 0.9,3.5 v 1.1 c 0,0.2 0,0.5 0,0.7 0,0.3 0,0.6 0,0.9 0,0.1 0,0.2 0,0.3 0,0.3 0,0.6 0.1,0.9 l 0.1,1 0.5,-0.8 c 0.2,-0.3 0.4,-0.6 0.6,-0.8 0.3,-0.4 0.6,-0.8 1,-1.2 0.1,-0.1 0.1,-0.1 0.2,-0.2 0.2,-0.2 0.5,-0.4 0.7,-0.6 0,0 0.1,-0.1 0.1,-0.1 0.1,0 0.1,-0.1 0.1,-0.1 0.4,-0.3 0.9,-0.6 1.3,-0.6 0.1,0 0.1,0 0.2,0 0.4,0.1 0.8,0.4 1.2,0.7 l 0.1,0.1 c 0.5,0.4 1,0.8 1.4,1.2 0.1,0.1 0.2,0.2 0.3,0.3 0.1,0.1 0.1,0.1 0.2,0.2 v 0 c 0.1,0.1 0.2,0.2 0.3,0.3 0.1,0 0.1,0 0.2,0 0.2,0 0.3,-0.1 0.5,-0.2 h 0.1 c 0.2,-0.1 0.5,-0.3 0.8,-0.3 0,0 0.1,0 0.1,0 0.1,0 0.4,0.1 0.4,0.6 0,0 0,0.1 0,0.1 0,0.1 0,0.1 0,0.1 0,0 0,0.1 0,0.1 0,0 0,0.1 0,0.1 l -0.1,0.4 h 0.6 c 0.1,0 0.1,0 0.2,0 0.2,0 0.3,0 0.5,0 0.1,0 0.3,0 0.4,0 0.1,0 0.2,0 0.3,0 v 0 c 0.4,0 0.7,0.1 1,0.2 0.1,0 0.1,0 0.2,0 0.2,0 0.4,0.1 0.5,0.1 0.1,0 0.1,0 0.1,0 0,0 0.1,0 0.1,0 h 0.1 c 0,0 0.1,0 0.1,0 v 0 0 c 0,0 0,0 0,0 v 0 0 c 0.3,0.1 0.6,0.3 0.8,0.5 0,0 0.1,0.1 0.1,0.1 0,0 0.1,0.1 0.1,0.1 v 0 c 0,0 0,0.1 0.1,0.1 0,0 0,0.1 0.1,0.1 0,0 0,0.1 0,0.1 0,0 0,0.1 0,0.1 0,0 0,0.1 0,0.1 v 0 0 c 0,0.1 0,0.2 0,0.4 v 0 c 0,0 0,0.1 0,0.2 0,0.1 0,0.1 0,0.2 0,0.1 -0.1,0.2 -0.1,0.3 0,0 0,0.1 -0.1,0.1 -0.4,0.7 -0.9,1.4 -1.4,1.9 -0.4,0.4 -0.7,0.8 -1.1,1.2 -0.2,0.2 -0.5,0.5 -0.7,0.7 -0.1,0.1 -0.3,0.3 -0.4,0.4 -0.2,0.2 -0.4,0.5 -0.7,0.8 l -0.3,0.4 0.5,0.1 h 0.1 0.1 c 0.3,0.1 0.6,0.2 1,0.3 0.1,0.1 0.3,0.1 0.4,0.2 0.1,0.1 0.2,0.2 0.4,0.2 0.2,0.2 0.4,0.4 0.5,0.7 0.3,0.9 -0.2,2 -1.1,2.4 -0.1,0 -0.1,0 -0.2,0 -0.1,0 -0.2,0 -0.3,0 -0.1,0 -0.2,-0.1 -0.3,-0.1 -0.1,0 -0.1,0 -0.2,0 h -0.2 l -0.1,0.2 c -0.1,0.3 -0.2,0.6 -0.3,0.9 0,0.1 -0.1,0.2 -0.1,0.3 0,0 0,0.1 0,0.1 l -0.1,0.2 0.1,0.1 c 0.3,0.4 0.6,0.7 1.1,1.2 l 0.4,0.5 0.2,0.2 c 0.2,0.2 0.4,0.4 0.7,0.7 0.1,0.2 0.3,0.3 0.4,0.5 0.5,0.5 1,1.1 1.4,1.8 0.3,0.6 0.4,1.1 0.2,1.6 v 0 0 c 0,0 0,0.1 -0.1,0.1 0,0 0,0.1 -0.1,0.1 0,0.1 -0.2,0.2 -0.2,0.2 v 0 c 0,0 -0.1,0.1 -0.2,0.1 -0.1,0 -0.1,0.1 -0.2,0.1 -0.1,0 -0.2,0.1 -0.2,0.1 -0.1,0 -0.2,0.1 -0.3,0.1 v 0 c -0.1,0 -0.1,0 -0.2,0.1 v 0 c -0.1,0 -0.2,0.1 -0.3,0.1 -0.1,0 -0.2,0.1 -0.3,0.1 -0.1,0 -0.2,0 -0.3,0.1 -0.4,0.1 -0.9,0.1 -1.4,0.2 -0.1,0 -0.2,0 -0.3,0 0,0 -0.1,0 -0.1,0 -0.1,0 -0.2,0 -0.3,0 v 0 c -0.2,0.5 -0.4,0.5 -0.5,0.5 z" class="st1"/></g><g id="XMLID_2_"><g id="g29"><path id="path31" fill="#fff" d="m 122.8,30.7 c 0.1,-0.3 0.2,-0.5 0.2,-0.8 0,-0.2 0,-0.4 -0.1,-0.6 -0.2,-0.7 -0.8,-1.2 -1.5,-1.3 -0.1,0 -0.3,0 -0.4,0 -0.3,0 -0.5,0 -0.7,0.1 -0.6,0.2 -1,0.7 -1.2,1.3 -0.1,0.2 -0.1,0.4 -0.1,0.6 0,0.2 0,0.4 0.1,0.7 0.2,0.6 0.7,1.1 1.3,1.3 0.2,0.1 0.4,0.1 0.6,0.1 0.2,0 0.4,0 0.6,-0.1 0.5,-0.4 1,-0.8 1.2,-1.3 z m -1.7,-3.1 c 1.3,0 2.3,1 2.3,2.3 0,1.3 -1,2.3 -2.3,2.3 -1.3,0 -2.3,-1 -2.3,-2.3 0,-0.7 0.3,-1.3 0.8,-1.8 0.4,-0.1 0.8,-0.3 1.1,-0.4 0.1,0 0.3,-0.1 0.4,-0.1 z" class="st2"/></g><g id="g33"><path id="path35" fill="#fff" d="m 117.5,30.6 c 0.9,0 1.6,0.7 1.6,1.6 0,0.9 -0.7,1.6 -1.6,1.6 -0.9,0 -1.6,-0.7 -1.6,-1.6 0.1,-0.9 0.8,-1.6 1.6,-1.6 z m 0.9,1.5 c 0,-0.6 -0.5,-1.2 -1.2,-1.2 -0.6,0 -1.2,0.5 -1.2,1.2 0,0.6 0.5,1.2 1.2,1.2 0.7,0 1.2,-0.6 1.2,-1.2 z" class="st2"/></g><g id="g37"><path id="path39" fill="#fff" d="m 116.4,35.1 c -0.6,-1.2 -1.2,-2.4 -1.4,-3.7 -0.1,-0.5 -0.2,-0.9 -0.1,-1.4 0,0 0,-0.1 0,-0.1 0,-0.3 0.2,-0.6 0.5,-0.8 0.9,-0.2 1.8,-0.2 2.7,-0.4 0.5,-0.1 1,-0.3 1.5,-0.4 -0.5,0.4 -0.8,1.1 -0.8,1.8 0,1.3 1,2.3 2.3,2.3 1.3,0 2.3,-1 2.3,-2.3 0,-1.3 -1,-2.3 -2.3,-2.3 v 0 c 0.2,-0.1 0.5,-0.2 0.7,-0.3 0.4,-0.1 0.7,-0.3 1.1,-0.4 0.1,0 0.2,-0.1 0.3,-0.1 0,0.3 0.2,0.8 0.6,1.4 v 0 c 0.1,0.3 0.3,0.6 0.5,0.7 v 0 c 0.4,0.6 1,1.1 1.6,1.7 1.6,1.5 4,3.7 3,4.9 -1.5,1.2 -5.5,1 -6.8,0.9 -1.9,-0.2 -3.7,-0.5 -5.6,-1 0,-0.3 0,-0.4 -0.1,-0.5 z m 2.7,-3 c 0,-0.9 -0.7,-1.6 -1.6,-1.6 -0.9,0 -1.6,0.7 -1.6,1.6 0,0.9 0.7,1.6 1.6,1.6 0.9,0 1.6,-0.7 1.6,-1.6 z" class="st2"/></g><g id="g41"><path id="path43" fill="#fff" d="m 116,34.9 c -0.2,-0.2 -0.3,-0.4 -0.5,-0.6 -0.1,-0.1 -0.1,-0.2 -0.2,-0.3 -0.3,-0.4 -0.5,-0.9 -0.6,-1.4 -0.2,-0.5 -0.3,-1 -0.3,-1.5 0,-0.4 0.3,-0.8 0.5,-1.2 0,0 0,0.1 0,0.1 0,0.5 0,0.9 0.1,1.4 0.2,1.3 0.8,2.5 1.4,3.7 0,0 -0.1,0 -0.2,0 0,-0.1 -0.1,-0.1 -0.2,-0.2 0.1,0.1 0.1,0.1 0,0 0,0.1 0,0 0,0 z" class="st2"/></g><g id="g45"><path id="path47" fill="#fff" d="m 116.2,15.8 c -0.2,0.3 -0.4,0.7 -0.6,1.1 -0.3,0.5 -0.5,1.1 -0.7,1.7 -0.1,0.5 -0.2,0.9 -0.3,1.4 0,0.1 0,0.1 0,0.2 -0.1,-0.1 -0.2,-0.3 -0.2,-0.3 -0.1,-0.1 -0.1,-0.2 -0.2,-0.2 v 0 c 0,-0.4 0,-0.8 0.2,-1.2 0.1,-0.2 0.1,-0.5 0.2,-0.7 0,0 0,-0.1 0,-0.1 0,0 0,0 0,0 0,0 0,0 0,0 0.1,-0.2 0.2,-0.4 0.3,-0.6 0.2,-0.3 0.4,-0.7 0.6,-1 0.3,-0.4 0.4,-0.5 0.7,-0.3 z" class="st2"/></g><g id="g49"><path id="path51" fill="#fff" d="m 114.6,20.1 c 0,-0.1 0,-0.1 0,-0.2 0.1,-0.5 0.2,-0.9 0.3,-1.4 0.1,-0.6 0.4,-1.2 0.7,-1.7 0.2,-0.4 0.4,-0.7 0.6,-1.1 0.1,-0.2 0.3,-0.4 0.5,-0.6 1.9,-0.5 3.6,-0.8 5.5,-1 0.5,0 1.3,-0.1 2.3,-0.1 1.3,0 2.9,0.1 4,0.6 0,0 0,0 0,0 0,0 0,0 0,0 0.9,0.4 1,2.1 -0.9,3.9 -2,1.9 -3.7,4 -4.4,5.9 -0.4,-0.1 -0.9,-0.1 -1.3,-0.2 -1.3,-0.2 -2.4,-0.8 -3.5,-1.4 -1,-0.5 -2,-1 -3.2,-1.2 v 0 c -0.1,-0.3 -0.2,-0.5 -0.4,-0.8 -0.1,-0.2 -0.2,-0.4 -0.2,-0.7 z m 7.9,-2.2 c 0,-0.4 -0.3,-0.7 -0.7,-0.7 -0.4,0 -0.7,0.3 -0.7,0.7 0,0.4 0.3,0.7 0.7,0.7 0.4,0 0.7,-0.3 0.7,-0.7 z m -1.7,-1.6 c 0,-0.4 -0.3,-0.7 -0.7,-0.7 -0.4,0 -0.7,0.3 -0.7,0.7 0,0.4 0.3,0.7 0.7,0.7 0.4,0 0.7,-0.3 0.7,-0.7 z m -0.2,3 c 0,-0.4 -0.3,-0.7 -0.7,-0.7 -0.4,0 -0.7,0.3 -0.7,0.7 0,0.4 0.3,0.7 0.7,0.7 0.4,0 0.7,-0.3 0.7,-0.7 z m -1.5,-1.7 c 0,-0.4 -0.3,-0.7 -0.7,-0.7 -0.4,0 -0.7,0.3 -0.7,0.7 0,0.4 0.3,0.7 0.7,0.7 0.4,0 0.7,-0.3 0.7,-0.7 z" class="st2"/></g><g id="g53"><circle id="circle55" cx="118.4" cy="17.6" r=".7" fill="#f6e220" class="st3"/></g><g id="g57"><circle id="circle59" cx="120.1" cy="16.3" r=".7" fill="#e62f2f" class="st4"/></g><g id="g61"><circle id="circle63" cx="119.9" cy="19.3" r=".7" fill="#4856a4" class="st5"/></g><g id="g65"><circle id="circle67" cx="121.8" cy="17.9" r=".7" fill="#85c671" class="st6"/></g><g id="g69"><path id="path71" fill="#8c8b8b" d="m 123.6,26.5 c 0,0.1 0.1,0.1 0.1,0.2 -0.1,0.3 -0.1,0.7 0,1 0,0.1 0,0.3 0.1,0.4 -0.4,-0.6 -0.6,-1.1 -0.6,-1.4 0.1,-0.1 0.3,-0.1 0.4,-0.2 z" class="st7"/></g><g id="g73"><path id="path75" fill="#8c8b8b" d="m 129.2,33.3 c 0.5,1 0.3,1.7 -0.3,2.2 1,-1.2 -1.4,-3.4 -3,-4.9 -0.6,-0.6 -1.2,-1.2 -1.6,-1.7 v 0 c 0,0 0,0 0,0 0.3,0.1 0.5,-0.2 0.6,-0.4 0.4,0.4 0.7,0.9 1.1,1.3 0.6,0.6 1.2,1.2 1.7,1.8 0.6,0.4 1.1,1 1.5,1.7 z" class="st7"/></g><g id="g77"><path id="path79" fill="#8c8b8b" d="m 125,22.7 c -0.1,0.1 -0.2,0.2 -0.2,0.3 -0.4,0.5 -0.7,1 -1,1.6 -0.2,0 -0.3,-0.1 -0.5,-0.1 0.6,-1.9 2.4,-4 4.4,-5.9 1.9,-1.8 1.8,-3.5 0.9,-3.9 1.1,0.5 1.7,1.3 1,2.7 -0.4,0.7 -0.9,1.3 -1.4,1.9 -0.6,0.7 -1.2,1.3 -1.8,1.9 -0.6,0.5 -1,1 -1.4,1.5 z" class="st7"/></g><g id="g81"><path id="path83" fill="#8c8b8b" d="m 122.8,30.7 c -0.2,0.5 -0.7,0.9 -1.2,1.1 0,-0.8 0.4,-1 1.2,-1.1 z" class="st7"/></g><g id="g85"><path id="path87" fill="#8c8b8b" d="m 122.9,29.3 v 0 c -0.8,0.2 -1.7,-0.5 -1.5,-1.3 v 0 c 0.7,0.1 1.2,0.6 1.5,1.3 z" class="st7"/></g><g id="g89"><path id="path91" fill="#8c8b8b" d="m 119,30.6 c 0.9,-0.1 1.5,0.3 1.3,1.3 v 0 c -0.6,-0.3 -1.1,-0.8 -1.3,-1.3 z" class="st7"/></g><g id="g93"><path id="path95" fill="#8c8b8b" d="m 120.2,28 c 0,0.9 -0.3,1.1 -1.2,1.3 0.2,-0.6 0.6,-1.1 1.2,-1.3 z" class="st7"/></g><g id="g97"><path id="path99" fill="#8c8b8b" d="m 122.9,29.3 c 0.1,0.2 0.1,0.4 0.1,0.6 0,0.3 -0.1,0.6 -0.2,0.8 -0.8,0 -1.2,0.2 -1.2,1.1 -0.2,0.1 -0.4,0.1 -0.6,0.1 -0.2,0 -0.4,0 -0.6,-0.1 v 0 c 0.2,-0.9 -0.4,-1.3 -1.3,-1.3 -0.1,-0.2 -0.1,-0.4 -0.1,-0.7 0,-0.2 0,-0.4 0.1,-0.6 0.9,-0.2 1.2,-0.3 1.2,-1.3 0.2,-0.1 0.5,-0.1 0.7,-0.1 0.1,0 0.3,0 0.4,0 v 0 c -0.2,1 0.6,1.6 1.5,1.5 z" class="st7"/></g><g id="g101"><path id="path103" fill="#8c8b8b" d="m 121,20.9 c 0.6,0 1.2,0.5 1.2,1.2 0,0.6 -0.5,1.2 -1.2,1.2 -0.6,0 -1.2,-0.5 -1.2,-1.2 0.1,-0.7 0.6,-1.2 1.2,-1.2 z m 0.5,1.2 c 0,-0.4 -0.3,-0.7 -0.7,-0.7 -0.4,0 -0.7,0.3 -0.7,0.7 0,0.4 0.3,0.7 0.7,0.7 0.4,0 0.7,-0.4 0.7,-0.7 z" class="st7"/></g><path id="path105" fill="#d55f66" d="m 124.4,24.9 v 0 c -0.4,0.9 -1,1.3 -1.7,1.7 -0.3,0.2 -0.6,0.3 -1,0.5 -1.5,0.6 -3.2,0.8 -4.7,1.1 -2.1,0.5 -4.5,1 -6.3,2.4 v 0 c 1.3,-0.6 2.5,-1.2 3.9,-1.5 0.2,-0.1 0.5,-0.1 0.7,-0.1 0.9,-0.2 1.8,-0.2 2.7,-0.4 0.5,-0.1 1,-0.3 1.5,-0.4 0.4,-0.1 0.8,-0.3 1.1,-0.4 0.1,0 0.2,-0.1 0.3,-0.1 0.2,-0.1 0.5,-0.2 0.7,-0.3 0.4,-0.1 0.7,-0.3 1.1,-0.4 0.1,0 0.2,-0.1 0.3,-0.1 0.2,-0.1 0.3,-0.2 0.5,-0.3 0.1,-0.1 0.2,-0.1 0.3,-0.2 0.2,-0.1 0.3,-0.3 0.4,-0.5 0.3,-0.4 0.4,-0.8 0.2,-1 z" class="st8"/><g id="g107"><circle id="circle109" cx="120.8" cy="22.1" r=".7" fill="#8c8b8b" class="st7"/></g><g id="g111"><path id="path113" fill="#8c8b8b" d="m 117.3,31 c 0.6,0 1.2,0.5 1.2,1.2 0,0.6 -0.5,1.2 -1.2,1.2 -0.6,0 -1.2,-0.5 -1.2,-1.2 0,-0.7 0.5,-1.2 1.2,-1.2 z m 0.4,1.1 c 0,-0.4 -0.3,-0.7 -0.7,-0.7 -0.4,0 -0.7,0.3 -0.7,0.7 0,0.4 0.3,0.7 0.7,0.7 0.4,0 0.7,-0.3 0.7,-0.7 z" class="st7"/></g><g id="g115"><circle id="circle117" cx="117" cy="32.1" r=".7" fill="#8c8b8b" class="st7"/></g><g id="g119" class="st9" opacity=".2"><path id="path121" fill="#facbcf" d="m 114.7,17.6 c -0.1,0 -0.1,0 0,0 v 0 c -0.3,-0.6 -0.5,-1.3 -0.7,-2 -0.3,0.1 -0.5,0 -0.7,0 0.5,-0.7 0.7,-1.5 0.8,-2.4 0,-0.4 0.1,-1 0,-1.6 h 0.1 c 0,0.7 0.1,1.4 0.1,2.1 0,0.3 0.1,0.5 0.1,0.8 0.1,1 0.2,2 0.3,3.1 0,-0.1 0,0 0,0 z" class="st10"/></g><g id="g123"><path id="path125" fill="#f2f2f3" d="m 113.6,11.7 c 0.5,1.8 0,3.1 -0.7,3.6 -0.7,0.5 -1.2,0.2 -1.7,-0.4 1.3,0.4 -0.3,-3 -0.7,-1.9 0,-0.1 0,-0.2 -0.1,-0.4 -0.3,-1.8 -1,-4 0.6,-4 0.7,0.1 2.1,1 2.6,3.1 z" class="st11"/><path id="path127" fill="#f2f2f3" d="m 107.5,17.7 c 0.3,0.2 0.6,-0.1 0.7,-0.3 -0.4,0.7 -1,1.2 -1.8,1.5 -1.5,0.6 -3.6,-0.9 -3.6,-2.8 0,-1.8 0.1,-4.4 1.7,-4.4 1.4,0 2.9,0.9 3.7,2.5 -0.2,-0.3 -0.6,-0.5 -0.9,-0.2 -0.6,0.4 -0.7,1.3 -0.6,2 0,0.4 0.2,0.8 0.3,1.1 0.1,0.2 0.2,0.5 0.5,0.6 z" class="st11"/><path id="path129" d="m 108.3,17.3 c -0.1,0 -0.1,0 0,0 -0.2,0.3 -0.5,0.6 -0.8,0.4 -0.2,-0.1 -0.4,-0.4 -0.5,-0.6 -0.2,-0.4 -0.3,-0.7 -0.3,-1.1 -0.1,-0.7 0,-1.5 0.6,-2 0.4,-0.3 0.7,-0.1 0.9,0.2 0.1,0.3 0.2,0.6 0.3,0.9 0.2,0.8 0.1,1.5 -0.2,2.2 z"/><path id="path131" d="m 110.5,13 c 0.5,-1.1 2.1,2.4 0.7,1.9 -0.3,-0.4 -0.5,-1.1 -0.7,-1.9 z"/></g><path id="path133" fill="#facbcf" d="m 114.1,11.6 v 0 c -0.1,-1.4 -0.4,-2.9 -0.8,-3.9 -1.2,-2.5 -2.7,-1.2 -4.1,0.6 v 0 c 0.2,-0.5 0.4,-0.9 0.7,-1.3 0.2,-0.3 0.4,-0.6 0.7,-0.8 0.8,-0.6 1.8,-0.8 2.6,0 0.8,0.9 0.9,2.4 0.9,3.6 0,0.7 0,1.2 0,1.8 z" class="st10"/><path id="path135" fill="#facbcf" d="m 124.1,12.6 c 0.6,0.1 0.6,0.8 0.4,1.2 v 0 c -0.4,-1.9 -2.4,0.5 -3.7,-0.4 0.4,0 0.7,-0.1 1.1,-0.2 -1.2,-1.1 -2.5,-2.9 -4.3,-2.5 -0.1,0 -0.3,0.1 -0.4,0.1 0,0 0.1,-0.1 0.1,-0.1 0.4,-0.3 1,-0.7 1.5,-0.6 0.5,0.1 1,0.5 1.3,0.8 0.5,0.4 1,0.8 1.4,1.2 0.2,0.2 0.3,0.3 0.5,0.5 0.1,0.1 0.2,0.2 0.4,0.3 0.2,0.1 0.5,-0.1 0.7,-0.2 0.4,0 0.7,-0.2 1,-0.1 z" class="st10"/><path id="path137" fill="#facbcf" d="m 106.6,10.6 h 0.1 c 0,0.2 0,0.4 0,0.5 -2,-1.2 -4.2,-2 -5.8,0.2 0.3,-0.9 1,-1.7 2,-1.8 1.3,-0.1 2.6,0.7 3.7,1.1 z" class="st10"/><g id="g139"><linearGradient id="SVGID_1_" x1="105.446" x2="113.471" y1="30.081" y2="30.081" gradientUnits="userSpaceOnUse"><stop id="stop142" offset="0" stop-color="#EB2027"/><stop id="stop144" offset="1" stop-color="#CE3128"/></linearGradient><path id="path146" fill="url(#SVGID_1_)" d="m 105.6,30.5 c -0.4,-1.7 0.1,-3.5 1.1,-5 v 0 c 0.3,0.1 0.6,0.1 0.9,0.1 -1.1,3.4 1,7.5 4.5,8.3 0.5,0.1 1,0.1 1.5,0.2 -0.6,0.1 -1.3,0.3 -1.9,0.4 -1,0.2 -2.1,0.2 -3.1,-0.3 -0.9,-0.5 -1.8,-1.3 -2.3,-2.2 -0.4,-0.5 -0.6,-1 -0.7,-1.5 z" class="st12"/><linearGradient id="SVGID_2_" x1="90.912" x2="108.722" y1="15.707" y2="15.707" gradientUnits="userSpaceOnUse"><stop id="stop149" offset="0" stop-color="#EB2027"/><stop id="stop151" offset="1" stop-color="#CE3128"/></linearGradient><path id="path153" fill="url(#SVGID_2_)" d="m 104.5,24.7 c -0.3,-0.2 -0.6,-0.5 -0.8,-0.7 -0.3,-0.4 -0.5,-0.8 -0.7,-1.2 -0.1,0.2 -0.1,0.1 -0.2,0.3 -1.2,1.2 -2.5,2.4 -4.3,2.5 -2.2,0.1 -4.3,-1.4 -5.6,-3.1 -0.9,-1.1 -1.5,-2.5 -1.8,-4 -0.3,-1.7 -0.1,-3.4 0.6,-5 1.5,-3.7 4.9,-6.5 8.6,-7.6 0.2,0 0.3,-0.1 0.5,-0.1 -4.2,2.8 -5.8,5.8 -4.9,9.7 0.9,3.9 2.6,5.2 4.2,5.1 1.6,0 2.4,-0.6 2.3,-1.7 0.6,1 2.4,1.8 3.7,1.8 -2.5,1.6 0.4,4.4 2.6,4.9 0,0 0.1,0 0.1,0 -0.2,0.1 -0.3,0.1 -0.5,0.1 v 0 c -0.2,0 -0.5,0 -0.7,0 -0.3,0 -0.6,-0.1 -0.9,-0.1 -0.6,-0.1 -1.1,-0.3 -1.6,-0.6 -0.2,-0.1 -0.4,-0.2 -0.6,-0.3 z" class="st13"/><linearGradient id="SVGID_3_" x1="100.379" x2="106.657" y1="28.586" y2="28.586" gradientUnits="userSpaceOnUse"><stop id="stop156" offset="0" stop-color="#EB2027"/><stop id="stop158" offset="1" stop-color="#CE3128"/></linearGradient><path id="path160" fill="url(#SVGID_3_)" d="m 106.7,25.5 v 0 c -1,1.4 -1.5,3.3 -1.1,5 -0.8,0.6 -1.6,1.4 -2.6,1.8 -0.6,0.2 -1.2,0.3 -1.8,0.2 -0.4,-0.1 -0.8,-0.4 -0.8,-0.8 0,-0.4 0.4,-0.6 0.6,-0.7 0.3,-0.2 0.7,-0.3 0.9,-0.7 0.2,-0.4 0.1,-1 0.1,-1.5 -0.1,-0.6 -0.1,-1.2 0,-1.8 0.3,-1.2 1.6,-1.7 2.6,-2.3 0.2,0.1 0.3,0.2 0.5,0.3 0.4,0.3 1,0.4 1.6,0.5 z" class="st14"/></g></g><g id="g162"><ellipse id="ellipse164" cx="108" cy="15.2" fill="#fff" class="st2" rx=".3" ry=".7"/></g><g id="g166"><ellipse id="ellipse168" cx="111.2" cy="13.7" fill="#fff" class="st2" rx=".2" ry=".4" transform="matrix(0.9331,-0.3596,0.3596,0.9331,2.5161,40.9033)"/></g><g id="g170"><path id="path172" d="m 98.3,25.6 c -1.9,0 -4,-1.1 -5.5,-3.1 -0.9,-1.2 -1.6,-2.6 -1.8,-4 -0.3,-1.6 -0.1,-3.4 0.6,-5 1.4,-3.6 4.7,-6.5 8.7,-7.7 1.7,-0.5 3.6,-0.6 5.3,-0.3 1.6,0.3 2.9,0.9 4.4,1.5 l -0.1,0.2 C 108.4,6.5 107.2,6 105.5,5.7 103.8,5.4 102,5.5 100.3,6 c -3.9,1.2 -7.2,4.1 -8.6,7.6 -0.6,1.6 -0.8,3.3 -0.6,4.9 0.2,1.4 0.9,2.8 1.8,3.9 1.6,2 3.6,3.1 5.6,3 1.8,-0.1 3.1,-1.2 4.3,-2.5 0.1,-0.2 0.2,-0.3 0.2,-0.3 l 0.1,0.1 c 0,0 -0.1,0.1 -0.2,0.3 -1.2,1.3 -2.5,2.5 -4.4,2.5 -0.1,0.1 -0.1,0.1 -0.2,0.1 z"/></g><g id="g174"><path id="path176" d="m 108.8,9.4 c 0,0 0.1,-0.3 0.2,-0.7 0.1,-0.2 0.2,-0.5 0.3,-0.8 0.1,-0.3 0.3,-0.7 0.6,-1 0.1,-0.2 0.3,-0.3 0.5,-0.5 0.2,-0.2 0.4,-0.3 0.6,-0.4 0.4,-0.2 1,-0.4 1.6,-0.2 0.3,0.1 0.5,0.3 0.7,0.5 0.2,0.2 0.3,0.5 0.5,0.7 0.2,0.5 0.3,1.1 0.4,1.7 0.1,0.6 0.1,1.1 0.1,1.7 0,0.6 0,1.1 0.1,1.6 0,0.5 0.1,1 0.1,1.5 0.1,0.5 0.1,0.9 0.1,1.4 0.2,1.7 0.3,2.8 0.3,2.8 h -0.2 c 0,0 -0.1,-1.1 -0.3,-2.8 0,-0.4 -0.1,-0.9 -0.1,-1.4 0,-0.5 -0.1,-1 -0.1,-1.5 0,-0.5 0,-1.1 -0.1,-1.6 0,-0.6 0,-1.1 -0.1,-1.7 -0.1,-0.6 -0.2,-1.1 -0.4,-1.6 -0.2,-0.5 -0.6,-0.9 -1,-1.1 -0.5,-0.2 -1,-0.1 -1.4,0.1 -0.2,0.1 -0.4,0.2 -0.5,0.4 -0.2,0.2 -0.3,0.3 -0.4,0.5 -0.3,0.3 -0.5,0.6 -0.6,0.9 -0.2,0.3 -0.3,0.6 -0.4,0.8 -0.4,0.5 -0.5,0.7 -0.5,0.7 z"/></g><g id="g178"><path id="path180" d="m 106.6,10.6 c 0,0 -0.2,-0.1 -0.4,-0.2 -0.3,-0.1 -0.7,-0.3 -1.1,-0.5 -0.5,-0.2 -1,-0.3 -1.7,-0.4 -0.2,0 -0.3,0 -0.5,0 -0.1,0 -0.2,0 -0.2,0 l -0.2,0.1 c -0.3,0.1 -0.6,0.3 -0.8,0.5 -0.4,0.5 -0.7,1.1 -0.8,1.7 -0.1,0.6 -0.2,1.2 -0.2,1.7 0,0.5 0.1,0.9 0.1,1.2 0,0.3 0.1,0.5 0.1,0.5 0,0 0,-0.2 -0.1,-0.5 -0.1,-0.3 -0.2,-0.7 -0.2,-1.2 0,-0.5 -0.1,-1.1 0.1,-1.8 0.1,-0.6 0.4,-1.3 0.9,-1.8 0.2,-0.3 0.5,-0.5 0.9,-0.6 0.1,0 0.2,-0.1 0.3,-0.1 0.1,0 0.2,0 0.2,0 0.2,0 0.3,0 0.5,0 0.3,0 0.6,0.1 0.9,0.2 0.3,0.1 0.5,0.2 0.8,0.3 0.5,0.2 0.8,0.4 1.1,0.5 0.2,0.4 0.3,0.4 0.3,0.4 z"/></g><g id="g182"><path id="path184" d="m 105.7,19.1 c -0.5,0 -1.1,-0.2 -1.6,-0.5 -0.9,-0.6 -1.4,-1.5 -1.4,-2.5 0,-1.5 0,-4.6 1.8,-4.6 1.5,0 3.5,1.2 4.1,3.5 0.4,1.7 -0.4,3.3 -2.2,4 -0.2,0.1 -0.5,0.1 -0.7,0.1 z m -1.2,-7.3 c -1.4,0 -1.6,2.2 -1.6,4.3 0,0.9 0.5,1.7 1.3,2.3 0.7,0.5 1.5,0.6 2.1,0.4 1.6,-0.6 2.4,-2.1 2,-3.7 -0.5,-2.1 -2.3,-3.3 -3.8,-3.3 z"/></g><g id="g186"><path id="path188" d="m 112.2,15.7 c -0.1,0 -0.3,0 -0.4,-0.1 -0.7,-0.3 -1.2,-1.4 -1.5,-2.9 0,-0.3 -0.1,-0.5 -0.1,-0.8 -0.2,-1.2 -0.4,-2.4 0,-3 0.2,-0.2 0.5,-0.3 0.8,-0.3 0.7,0 2.1,0.9 2.7,3.1 0.5,1.9 0,3.3 -0.8,3.8 -0.2,0.1 -0.4,0.2 -0.7,0.2 z m -1.1,-6.9 c -0.3,0 -0.5,0.1 -0.7,0.3 -0.4,0.5 -0.2,1.7 0,2.8 0,0.3 0.1,0.5 0.1,0.8 0.2,1.4 0.7,2.5 1.3,2.7 0.3,0.1 0.6,0.1 1,-0.2 0.6,-0.4 1.1,-1.7 0.7,-3.5 -0.5,-2.1 -1.8,-2.9 -2.4,-2.9 z"/></g><g id="g190"><path id="path192" d="m 108.3,25.7 c 0,0 -0.1,0 -0.3,0 -0.2,0 -0.5,0 -0.8,0 -0.2,0 -0.3,0 -0.5,-0.1 -0.2,0 -0.4,-0.1 -0.6,-0.1 -0.4,-0.1 -0.8,-0.3 -1.2,-0.5 -0.4,-0.2 -0.7,-0.5 -1,-0.8 -0.1,-0.1 -0.3,-0.3 -0.4,-0.5 -0.1,-0.2 -0.2,-0.3 -0.3,-0.5 -0.1,-0.2 -0.1,-0.3 -0.1,-0.5 0,-0.1 0,-0.1 0,-0.2 0,-0.1 0,-0.1 0,-0.2 0,-0.2 0,-0.3 0,-0.3 0,0 0,0.1 0.1,0.3 0,0.1 0.1,0.2 0.1,0.3 0,0.1 0.1,0.3 0.2,0.4 0.1,0.1 0.1,0.3 0.2,0.4 0.1,0.1 0.2,0.3 0.4,0.4 0.3,0.3 0.6,0.6 1,0.8 0.4,0.2 0.8,0.4 1.2,0.5 0.4,0.1 0.8,0.2 1.1,0.3 0.3,0.1 0.6,0.1 0.8,0.1 0,0.2 0.1,0.2 0.1,0.2 z"/></g><g id="g194"><path id="path196" d="m 114.4,14.5 -0.1,-0.1 c 0.9,-1.6 1.8,-2.7 3.1,-3.6 0.5,-0.4 1,-0.7 1.6,-0.6 0.5,0.1 0.9,0.4 1.3,0.7 l 0.1,0.1 c 0.5,0.4 1,0.9 1.4,1.2 0.1,0.1 0.2,0.2 0.3,0.3 l 0.2,0.2 c 0.1,0.1 0.2,0.2 0.3,0.2 0.2,0.1 0.3,0 0.5,-0.1 h 0.1 c 0.3,-0.1 0.6,-0.3 1,-0.3 0.2,0 0.4,0.1 0.5,0.3 0.2,0.4 0,1.1 -0.1,1.3 L 124.4,14 c 0.2,-0.4 0.3,-0.9 0.1,-1.2 -0.1,-0.1 -0.2,-0.2 -0.4,-0.2 -0.3,0 -0.6,0.1 -0.9,0.3 h -0.1 c -0.2,0.1 -0.4,0.2 -0.7,0.1 -0.1,-0.1 -0.2,-0.2 -0.3,-0.3 l -0.2,-0.2 c -0.1,-0.1 -0.2,-0.2 -0.3,-0.3 -0.4,-0.4 -0.9,-0.8 -1.4,-1.2 l -0.1,-0.1 c -0.3,-0.3 -0.7,-0.6 -1.2,-0.7 -0.5,-0.1 -1,0.3 -1.5,0.6 -1.2,1 -2.1,2.1 -3,3.7 z"/></g><g id="g198"><path id="path200" d="m 101.8,32.6 c -0.2,0 -0.4,0 -0.6,-0.1 -0.4,-0.1 -0.9,-0.4 -0.8,-0.9 0,-0.4 0.5,-0.7 0.7,-0.8 l 0.1,-0.1 c 0.3,-0.2 0.6,-0.3 0.7,-0.6 0.2,-0.4 0.1,-0.8 0.1,-1.3 v -0.3 c -0.1,-0.6 -0.1,-1.1 0,-1.7 0.3,-1.1 1.3,-1.6 2.3,-2.1 0.1,-0.1 0.2,-0.1 0.3,-0.2 l 0.1,0.1 c -0.1,0.1 -0.2,0.1 -0.3,0.2 -0.9,0.5 -1.9,1 -2.2,2 -0.1,0.5 -0.1,1.1 0,1.6 v 0.3 c 0,0.4 0.1,0.9 -0.1,1.4 -0.2,0.3 -0.5,0.5 -0.8,0.7 l -0.1,0.1 c -0.3,0.2 -0.6,0.4 -0.6,0.7 0,0.4 0.4,0.6 0.7,0.7 0.6,0.2 1.3,0 1.8,-0.2 0.8,-0.3 1.4,-0.8 2.1,-1.4 0.2,-0.1 0.3,-0.3 0.5,-0.4 l 0.1,0.1 c -0.2,0.1 -0.3,0.2 -0.5,0.4 -0.7,0.5 -1.4,1.1 -2.1,1.4 -0.5,0.3 -1,0.4 -1.4,0.4 z"/></g><g id="g202"><path id="path204" d="m 110.3,34.7 c -0.7,0 -1.3,-0.1 -1.9,-0.4 -0.9,-0.5 -1.8,-1.3 -2.3,-2.3 -1.1,-1.9 -0.9,-4.4 0.5,-6.6 l 0.2,0.1 c -1.1,1.6 -1.8,4.2 -0.5,6.3 0.6,0.9 1.4,1.7 2.3,2.2 0.8,0.4 1.8,0.5 3,0.3 0.3,-0.1 0.7,-0.1 1,-0.2 0.5,-0.1 1,-0.2 1.5,-0.3 V 34 c -0.4,0.1 -1,0.2 -1.5,0.3 -0.4,0.1 -0.7,0.2 -1,0.2 -0.5,0.2 -0.9,0.2 -1.3,0.2 z"/></g><g id="g206"><path id="path208" d="m 113.7,33.5 c 0,0 0,0 0,0 0.1,0 0.1,0.1 0.1,0.1 0.1,0.1 0.2,0.2 0.3,0.3 0.1,0.1 0.2,0.3 0.2,0.5 0,0.2 0.1,0.4 0.2,0.5 0.1,0.1 0.1,0.1 0.2,0.1 0,0 0.1,0 0.1,0 0.1,0 0.1,0 0.1,0 0.2,0 0.4,0 0.5,-0.1 0.1,0 0.3,-0.1 0.3,-0.2 0.1,-0.1 0.1,-0.1 0.1,-0.1 l 0.1,0.1 c 0,0 0,0 -0.1,0.1 -0.1,0.1 -0.2,0.1 -0.4,0.2 -0.2,0 -0.4,0.1 -0.6,0.1 -0.1,0 -0.1,0 -0.2,0 -0.1,0 -0.1,0 -0.2,0 -0.1,0 -0.2,-0.1 -0.3,-0.2 -0.1,-0.1 -0.1,-0.2 -0.2,-0.3 0,-0.1 -0.1,-0.2 -0.1,-0.3 0,-0.2 -0.1,-0.4 -0.1,-0.5 -0.1,-0.1 -0.1,-0.3 -0.2,-0.3 0.3,0.1 0.3,0 0.2,0 0,0 0,0 0,0 z"/></g><g id="g210"><path id="path212" d="m 109.6,23.3 c 0,0 0.1,-0.1 0.3,-0.2 0.2,-0.1 0.5,-0.3 0.9,-0.5 0.4,-0.2 0.8,-0.5 1.4,-0.7 0.6,-0.2 1.2,-0.4 2,-0.4 0.8,0 1.6,0.1 2.4,0.4 0.8,0.3 1.6,0.7 2.4,1.1 0.8,0.4 1.7,0.8 2.6,1 0.5,0.1 0.9,0.2 1.4,0.2 0.2,0 0.5,0.1 0.7,0.1 0.2,0 0.5,0.1 0.7,0.3 0.1,0.1 0.2,0.2 0.2,0.4 0,0.1 0,0.3 0,0.4 0,0.1 -0.1,0.3 -0.2,0.4 -0.1,0.1 -0.2,0.2 -0.2,0.3 -0.4,0.4 -0.8,0.6 -1.2,0.8 -0.9,0.4 -1.8,0.7 -2.6,1.1 -0.9,0.3 -1.7,0.6 -2.5,0.8 -0.8,0.2 -1.6,0.2 -2.3,0.4 -0.7,0.1 -1.4,0.3 -1.9,0.5 -0.6,0.2 -1,0.4 -1.4,0.5 -0.8,0.3 -1.2,0.5 -1.2,0.5 0,0 0.1,-0.1 0.3,-0.2 0.2,-0.1 0.5,-0.3 0.9,-0.4 0.4,-0.2 0.9,-0.4 1.4,-0.6 0.3,-0.1 0.6,-0.2 0.9,-0.3 0.3,-0.1 0.7,-0.2 1,-0.2 0.7,-0.1 1.5,-0.2 2.3,-0.4 0.8,-0.2 1.7,-0.4 2.5,-0.8 0.8,-0.3 1.7,-0.7 2.6,-1.1 0.4,-0.2 0.9,-0.4 1.2,-0.8 0.2,-0.2 0.3,-0.4 0.3,-0.6 0.1,-0.2 0,-0.4 -0.1,-0.5 -0.3,-0.3 -0.9,-0.2 -1.4,-0.3 -0.5,-0.1 -1,-0.1 -1.4,-0.2 -0.9,-0.2 -1.8,-0.7 -2.6,-1.1 -0.8,-0.4 -1.6,-0.8 -2.4,-1.1 -0.8,-0.3 -1.6,-0.4 -2.3,-0.4 -0.4,0 -0.7,0.1 -1,0.1 -0.3,0.1 -0.6,0.1 -0.9,0.2 -0.6,0.2 -1,0.4 -1.4,0.6 -1,0.5 -1.4,0.7 -1.4,0.7 z"/></g><g id="g214"><path id="path216" d="m 126.3,26.9 c -0.1,0 -0.2,0 -0.3,-0.1 -0.2,0 -0.3,-0.1 -0.5,0 l -0.1,-0.1 c 0.2,-0.1 0.4,-0.1 0.6,0 0.2,0 0.3,0.1 0.5,0 0.9,-0.4 1.4,-1.4 1.1,-2.4 -0.2,-0.6 -0.8,-0.9 -1.2,-1.1 -0.4,-0.2 -0.6,-0.2 -0.9,-0.3 -0.2,0 -0.3,-0.1 -0.5,-0.2 l 0.1,-0.2 c 0.2,0.1 0.4,0.1 0.5,0.2 0.3,0.1 0.6,0.2 1,0.3 0.5,0.2 1.1,0.5 1.3,1.2 0.3,1 -0.3,2.2 -1.2,2.6 -0.2,0.1 -0.3,0.1 -0.4,0.1 z"/></g><g id="g218"><path id="path220" d="m 123.9,26.3 c 0,0 0,0.1 -0.1,0.2 0,0.2 -0.1,0.4 -0.1,0.7 0,0.3 0,0.6 0.1,0.9 0.1,0.2 0.1,0.3 0.2,0.5 0.1,0.1 0.1,0.1 0.2,0.1 h 0.1 c 0,0 0,0 0.1,0 0,0 0.1,0 0.1,0 0.1,0 0.3,-0.2 0.3,-0.4 0.1,-0.2 0.1,-0.3 0.2,-0.5 0.1,-0.3 0.2,-0.7 0.3,-0.9 0.1,-0.3 0.2,-0.5 0.3,-0.6 0.1,-0.1 0.1,-0.2 0.1,-0.2 0,0 -0.1,0.4 -0.3,0.9 -0.1,0.3 -0.2,0.6 -0.3,0.9 -0.1,0.2 -0.1,0.3 -0.2,0.5 -0.1,0.2 -0.2,0.4 -0.4,0.4 -0.1,0 -0.1,0 -0.2,0 0,0 0,0 -0.1,0 h -0.1 c -0.1,0 -0.2,-0.1 -0.3,-0.2 -0.1,-0.2 -0.2,-0.3 -0.3,-0.5 -0.1,-0.4 -0.1,-0.7 -0.1,-1 0,-0.3 0.1,-0.5 0.1,-0.7 0,-0.2 0.1,-0.3 0.1,-0.3 z"/></g><g id="g222"><rect id="rect224" width=".2" height=".3" x="123.6" y="26.4" transform="matrix(0.8443,-0.5358,0.5358,0.8443,5.014,70.398)"/></g><g id="g226"><path id="path228" d="m 123.8,24.6 -0.2,-0.1 c 0.3,-0.6 0.7,-1 1,-1.6 0.4,-0.5 0.9,-1.1 1.5,-1.8 0.2,-0.2 0.5,-0.5 0.7,-0.7 0.4,-0.4 0.7,-0.8 1.1,-1.2 0.5,-0.6 1,-1.2 1.4,-1.9 0.4,-0.7 0.4,-1.3 0.1,-1.8 -1.2,-1.7 -6.6,-1.3 -7.2,-1.3 -1.8,0.2 -3.4,0.4 -5.5,1 -0.4,0.5 -0.7,1 -1,1.7 -0.3,0.6 -0.5,1.1 -0.7,1.7 v 0.1 c -0.1,0.4 -0.2,0.8 -0.3,1.2 0,0.3 0,0.6 0.2,0.9 l 0.1,0.1 c 0.1,0.2 0.2,0.4 0.4,0.7 l -0.2,0.1 C 115.1,21.4 115,21.3 114.9,21 l -0.1,-0.1 c -0.2,-0.3 -0.3,-0.6 -0.2,-1 0.1,-0.4 0.2,-0.8 0.3,-1.3 v -0.1 c 0.1,-0.6 0.4,-1.1 0.7,-1.7 0.4,-0.7 0.7,-1.3 1.1,-1.7 v 0 0 c 2.1,-0.5 3.7,-0.8 5.6,-1 1,-0.1 6.2,-0.4 7.4,1.4 0.4,0.5 0.4,1.2 0,2 -0.4,0.7 -0.9,1.4 -1.4,2 -0.4,0.4 -0.7,0.8 -1.1,1.2 -0.2,0.2 -0.5,0.5 -0.7,0.7 -0.6,0.7 -1.1,1.2 -1.5,1.7 -0.5,0.5 -0.8,1 -1.2,1.5 z"/></g><g id="g230"><path id="path232" d="m 114.6,20.2 c 0,0 -0.2,-0.3 -0.2,-0.3 0,0 -0.1,-0.1 -0.1,-0.1 0,0 -0.1,-0.1 -0.1,-0.1 l 0.1,-0.1 c 0,0 0.1,0.1 0.1,0.1 0,0 0.1,0.1 0.1,0.1 0,0 0.2,0.3 0.3,0.4 z"/></g><g id="g234"><path id="path236" d="m 114.2,19.7 c -0.1,0 -0.1,0 -0.1,-0.1 0,-0.5 0,-0.8 0.2,-1.2 0.2,-0.6 0.4,-1.1 0.6,-1.5 0.2,-0.3 0.4,-0.6 0.6,-1 0.2,-0.3 0.4,-0.4 0.7,-0.2 0.1,0 0.1,0.1 0.1,0.1 0,0.1 -0.1,0.1 -0.1,0.1 -0.2,-0.1 -0.3,-0.1 -0.5,0.2 -0.3,0.4 -0.5,0.7 -0.6,1 -0.2,0.4 -0.4,0.8 -0.6,1.4 -0.1,0.4 -0.2,0.7 -0.2,1.1 0,0 0,0.1 -0.1,0.1 0,0 0,0 0,0 z"/></g><g id="g238"><path id="path240" d="m 124.1,36.6 c -0.9,0 -1.7,-0.1 -2,-0.1 -2.1,-0.2 -4.1,-0.6 -5.6,-1 h -0.1 v 0 c -0.1,-0.1 -1.3,-2.6 -1.6,-4 v -0.1 c -0.1,-0.4 -0.1,-0.9 -0.1,-1.4 0,-0.4 0.2,-0.8 0.5,-1 l 0.1,0.2 c -0.3,0.2 -0.4,0.5 -0.5,0.9 0,0.4 0,0.9 0.1,1.3 v 0.1 c 0.2,1.3 1.3,3.6 1.5,3.9 1.5,0.4 3.4,0.8 5.5,1 0.6,0.1 5.9,0.4 7,-1.2 0.3,-0.4 0.3,-1 -0.1,-1.7 -0.3,-0.7 -0.9,-1.3 -1.4,-1.8 -0.3,-0.4 -0.7,-0.7 -1.1,-1.1 -0.2,-0.2 -0.5,-0.5 -0.7,-0.7 -0.5,-0.5 -0.8,-0.9 -1.1,-1.3 l 0.2,-0.1 c 0.3,0.4 0.7,0.8 1.1,1.3 0.2,0.2 0.5,0.5 0.7,0.7 0.4,0.4 0.7,0.7 1.1,1.1 0.5,0.6 1,1.2 1.4,1.9 0.4,0.8 0.4,1.4 0.1,1.9 -0.5,0.9 -3.1,1.2 -5,1.2 z"/></g><g id="g242"><path id="path244" d="m 116.3,35.1 c 0,0 -0.1,0 0,0 L 116,35 v 0 c 0,-0.1 -0.1,-0.1 -0.2,-0.2 -0.2,-0.2 -0.4,-0.5 -0.6,-0.8 -0.3,-0.4 -0.5,-0.9 -0.6,-1.4 -0.2,-0.5 -0.3,-1.1 -0.3,-1.6 0,-0.4 0.3,-0.9 0.5,-1.2 v 0 L 115,30 v 0 c -0.2,0.3 -0.5,0.7 -0.5,1.1 0,0.5 0.1,1 0.3,1.5 0.2,0.5 0.4,0.9 0.6,1.4 0.2,0.3 0.3,0.5 0.5,0.7 0,0.1 0.1,0.1 0.1,0.2 h 0.1 c 0,0 0.1,0 0.1,0 0,0 0.1,0 0.1,0 v 0.2 c 0.1,0 0.1,0 0,0 0,0 0,0 0,0 z"/></g><g id="g246"><path id="path248" fill="none" stroke="#231f20" stroke-miterlimit="10" stroke-width=".316" d="M 123.7,26.7" class="st15"/></g><g id="g250"><path id="path252" d="m 107.7,17.8 c -0.1,0 -0.2,0 -0.3,-0.1 -0.3,-0.1 -0.4,-0.4 -0.5,-0.7 -0.2,-0.4 -0.3,-0.7 -0.3,-1.2 0,-0.3 -0.1,-1.5 0.6,-2.1 0.3,-0.2 0.7,-0.3 1.1,0.3 l -0.1,0.1 c -0.4,-0.5 -0.7,-0.4 -0.8,-0.2 -0.7,0.5 -0.6,1.6 -0.5,1.9 0,0.4 0.2,0.8 0.3,1.1 0.1,0.2 0.3,0.5 0.5,0.6 0.3,0.1 0.4,0 0.6,-0.4 v 0 h 0.1 V 17 17.2 17 h 0.1 l -0.1,0.1 c -0.3,0.5 -0.4,0.7 -0.7,0.7 z"/></g><g id="g254"><path id="path256" d="m 111.5,15.1 c -0.1,0 -0.1,0 -0.2,0 v -0.2 c 0.3,0.1 0.3,0 0.3,-0.1 0.2,-0.4 -0.4,-1.7 -0.8,-1.9 -0.1,0 -0.2,0 -0.2,0.1 l -0.1,-0.1 c 0.1,-0.2 0.3,-0.3 0.5,-0.2 0.5,0.2 1.1,1.6 0.9,2.1 -0.1,0.1 -0.2,0.3 -0.4,0.3 z"/></g><g id="g258"><path id="path260" d="m 117,32.9 c -0.4,0 -0.8,-0.4 -0.8,-0.8 0,-0.4 0.4,-0.8 0.8,-0.8 0.4,0 0.8,0.4 0.8,0.8 0,0.4 -0.3,0.8 -0.8,0.8 z m 0,-1.4 c -0.3,0 -0.6,0.3 -0.6,0.6 0,0.3 0.3,0.6 0.6,0.6 0.3,0 0.6,-0.3 0.6,-0.6 0,-0.3 -0.2,-0.6 -0.6,-0.6 z"/></g><g id="g262"><path id="path264" d="m 118.4,18.4 c -0.4,0 -0.8,-0.4 -0.8,-0.8 0,-0.4 0.4,-0.8 0.8,-0.8 0.4,0 0.8,0.4 0.8,0.8 0,0.4 -0.4,0.8 -0.8,0.8 z m 0,-1.4 c -0.3,0 -0.6,0.3 -0.6,0.6 0,0.3 0.3,0.6 0.6,0.6 0.3,0 0.6,-0.3 0.6,-0.6 0,-0.3 -0.2,-0.6 -0.6,-0.6 z"/></g><g id="g266"><path id="path268" d="m 120.1,17.1 c -0.4,0 -0.8,-0.4 -0.8,-0.8 0,-0.4 0.4,-0.8 0.8,-0.8 0.4,0 0.8,0.4 0.8,0.8 0,0.4 -0.4,0.8 -0.8,0.8 z m 0,-1.4 c -0.3,0 -0.6,0.3 -0.6,0.6 0,0.3 0.3,0.6 0.6,0.6 0.3,0 0.6,-0.3 0.6,-0.6 0,-0.4 -0.2,-0.6 -0.6,-0.6 z"/></g><g id="g270"><path id="path272" d="m 119.9,20.1 c -0.4,0 -0.8,-0.4 -0.8,-0.8 0,-0.4 0.4,-0.8 0.8,-0.8 0.4,0 0.8,0.4 0.8,0.8 0,0.4 -0.4,0.8 -0.8,0.8 z m 0,-1.4 c -0.3,0 -0.6,0.3 -0.6,0.6 0,0.3 0.3,0.6 0.6,0.6 0.3,0 0.6,-0.3 0.6,-0.6 0,-0.3 -0.3,-0.6 -0.6,-0.6 z"/></g><g id="g274"><path id="path276" d="m 121.8,18.7 c -0.4,0 -0.8,-0.4 -0.8,-0.8 0,-0.4 0.4,-0.8 0.8,-0.8 0.4,0 0.8,0.4 0.8,0.8 0,0.4 -0.4,0.8 -0.8,0.8 z m 0,-1.4 c -0.3,0 -0.6,0.3 -0.6,0.6 0,0.3 0.3,0.6 0.6,0.6 0.3,0 0.6,-0.3 0.6,-0.6 0,-0.3 -0.3,-0.6 -0.6,-0.6 z"/></g><g id="g278"><path id="path280" d="m 117.3,33.3 c -0.7,0 -1.2,-0.6 -1.2,-1.2 0,-0.7 0.6,-1.2 1.2,-1.2 0.7,0 1.2,0.6 1.2,1.2 0,0.7 -0.6,1.2 -1.2,1.2 z m 0,-2.3 c -0.6,0 -1.1,0.5 -1.1,1.1 0,0.6 0.5,1.1 1.1,1.1 0.6,0 1.1,-0.5 1.1,-1.1 0,-0.6 -0.6,-1.1 -1.1,-1.1 z"/></g><g id="g282"><path id="path284" d="m 117.5,33.8 c -0.9,0 -1.7,-0.7 -1.7,-1.7 0,-0.9 0.7,-1.7 1.7,-1.7 0.9,0 1.7,0.7 1.7,1.7 0,0.9 -0.7,1.7 -1.7,1.7 z m 0,-3.2 c -0.8,0 -1.5,0.7 -1.5,1.5 0,0.8 0.7,1.5 1.5,1.5 0.8,0 1.5,-0.7 1.5,-1.5 0,-0.8 -0.6,-1.5 -1.5,-1.5 z"/></g><g id="g286"><path id="path288" d="m 120.8,22.8 c -0.4,0 -0.8,-0.4 -0.8,-0.8 0,-0.4 0.4,-0.8 0.8,-0.8 0.4,0 0.8,0.4 0.8,0.8 0,0.5 -0.4,0.8 -0.8,0.8 z m 0,-1.4 c -0.3,0 -0.6,0.3 -0.6,0.6 0,0.3 0.3,0.6 0.6,0.6 0.3,0 0.6,-0.3 0.6,-0.6 0,-0.3 -0.2,-0.6 -0.6,-0.6 z"/></g><g id="g290"><path id="path292" d="m 121,23.3 c -0.7,0 -1.2,-0.6 -1.2,-1.2 0,-0.7 0.6,-1.2 1.2,-1.2 0.6,0 1.2,0.6 1.2,1.2 0.1,0.6 -0.5,1.2 -1.2,1.2 z m 0,-2.3 c -0.6,0 -1.1,0.5 -1.1,1.1 0,0.6 0.5,1.1 1.1,1.1 0.6,0 1.1,-0.5 1.1,-1.1 0,-0.6 -0.5,-1.1 -1.1,-1.1 z"/></g><g id="g294"><path id="path296" d="m 121.3,23.7 c -0.9,0 -1.7,-0.7 -1.7,-1.7 0,-0.9 0.7,-1.7 1.7,-1.7 0.9,0 1.7,0.7 1.7,1.7 0,1 -0.8,1.7 -1.7,1.7 z m 0,-3.1 c -0.8,0 -1.5,0.7 -1.5,1.5 0,0.8 0.7,1.5 1.5,1.5 0.8,0 1.5,-0.7 1.5,-1.5 0,-0.8 -0.6,-1.5 -1.5,-1.5 z"/></g><g id="g298"><path id="path300" d="m 121,32 c -1.2,0 -2.1,-0.9 -2.1,-2.1 0,-1.2 0.9,-2.1 2.1,-2.1 1.2,0 2.1,0.9 2.1,2.1 0,1.2 -1,2.1 -2.1,2.1 z m 0,-4 c -1.1,0 -1.9,0.9 -1.9,1.9 0,1.1 0.9,1.9 1.9,1.9 1.1,0 1.9,-0.9 1.9,-1.9 0,-1.1 -0.9,-1.9 -1.9,-1.9 z"/></g><g id="g302"><path id="path304" d="m 121.1,32.3 c -1.3,0 -2.4,-1.1 -2.4,-2.4 0,-0.7 0.3,-1.4 0.8,-1.8 l 0.1,0.1 c -0.5,0.4 -0.8,1 -0.8,1.7 0,1.2 1,2.2 2.2,2.2 1.2,0 2.2,-1 2.2,-2.2 0,-1.2 -1,-2.2 -2.2,-2.2 v -0.2 c 1.3,0 2.4,1.1 2.4,2.4 0.1,1.4 -1,2.4 -2.3,2.4 z"/></g><g id="g306"><path id="path308" d="m 120.4,31.8 h -0.2 c 0.1,-0.4 0,-0.7 -0.2,-0.9 -0.2,-0.2 -0.6,-0.3 -1,-0.3 v -0.2 c 0.5,0 0.9,0.1 1.2,0.3 0.2,0.3 0.3,0.7 0.2,1.1 z"/></g><g id="g310"><path id="path312" d="m 119,29.4 v -0.2 c 0.9,-0.2 1.1,-0.3 1.1,-1.2 h 0.2 c 0,1 -0.3,1.2 -1.3,1.4 z"/></g><g id="g314"><path id="path316" d="m 122.6,29.4 c -0.4,0 -0.7,-0.1 -1,-0.4 -0.3,-0.3 -0.4,-0.7 -0.4,-1.1 h 0.2 c -0.1,0.4 0.1,0.7 0.3,0.9 0.3,0.3 0.7,0.4 1.1,0.3 v 0.2 c 0,0.1 -0.1,0.1 -0.2,0.1 z"/></g><g id="g318"><path id="path320" d="m 121.5,31.9 c 0,-0.4 0,-0.7 0.2,-0.9 0.2,-0.3 0.7,-0.3 1.1,-0.3 v 0.2 c -0.5,0 -0.8,0.1 -1,0.3 -0.1,0.2 -0.2,0.4 -0.2,0.8 z"/></g><g id="g322"><path id="path324" d="m 123.3,24.5 -0.2,-0.1 c 0.6,-1.7 2.1,-3.6 4.4,-5.9 1.1,-1.1 1.6,-2.2 1.4,-3.1 -0.1,-0.4 -0.3,-0.7 -0.6,-0.8 l 0.1,-0.2 c 0.4,0.1 0.6,0.5 0.7,0.9 0.2,0.9 -0.4,2.1 -1.5,3.2 -2.2,2.4 -3.7,4.4 -4.3,6 z"/></g><g id="g326"><path id="path328" d="m 129,35.5 -0.1,-0.1 c 1,-1.2 -1.6,-3.5 -3,-4.8 -0.6,-0.5 -1.2,-1.1 -1.6,-1.7 l 0.1,-0.1 c 0.5,0.6 1,1.2 1.6,1.7 1.4,1.3 4.1,3.7 3,5 z"/></g><g id="g330"><path id="path332" d="m 123.7,28.2 c -0.4,-0.6 -0.6,-1.1 -0.7,-1.4 h 0.2 c 0,0.3 0.2,0.8 0.6,1.4 z"/></g></g><g id="g334" transform="matrix(1.3225057,0,0,1.3225057,-77.972246,26.44507)"><path id="path336" fill="#fff" d="m 140,8.6 c -0.3,-0.1 -0.6,-0.2 -1,-0.3 -0.3,-0.1 -0.7,-0.1 -1,-0.1 -0.4,0 -0.7,0.1 -1.1,0.2 -0.3,0.1 -0.6,0.3 -0.9,0.5 -0.3,0.2 -0.5,0.5 -0.6,0.9 -0.1,0.3 -0.2,0.7 -0.2,1.2 0,0.9 0.2,1.5 0.7,2 0.5,0.5 1.1,0.7 1.9,0.7 0.2,0 0.4,0 0.6,0 0.2,0 0.4,-0.1 0.6,-0.1 v -2.8 h 1.2 v 3.6 c -0.4,0.2 -0.8,0.3 -1.2,0.3 -0.4,0.1 -0.9,0.1 -1.3,0.1 -0.6,0 -1.1,-0.1 -1.6,-0.3 -0.5,-0.2 -0.9,-0.4 -1.2,-0.7 -0.3,-0.3 -0.6,-0.7 -0.8,-1.2 -0.2,-0.5 -0.3,-1 -0.3,-1.5 0,-0.6 0.1,-1.1 0.3,-1.6 0.2,-0.5 0.5,-0.9 0.8,-1.3 0.4,-0.4 0.8,-0.6 1.3,-0.8 0.5,-0.2 1.1,-0.3 1.8,-0.3 0.7,0 1.5,0.1 2.1,0.3 z" class="st2"/><path id="path338" fill="#fff" d="m 144.9,14.7 c 0,-0.2 0,-0.3 0,-0.5 0,-0.2 0,-0.3 0,-0.5 v 0 c -0.1,0.3 -0.4,0.6 -0.7,0.8 -0.3,0.2 -0.7,0.3 -1.2,0.3 -0.5,0 -0.9,-0.1 -1.2,-0.4 -0.3,-0.2 -0.4,-0.6 -0.4,-1 0,-0.3 0.1,-0.6 0.2,-0.8 0.2,-0.2 0.4,-0.5 0.7,-0.6 0.3,-0.2 0.6,-0.3 1,-0.4 0.4,-0.1 0.9,-0.1 1.4,-0.1 v -0.3 c 0,-0.3 -0.1,-0.6 -0.3,-0.7 -0.2,-0.2 -0.5,-0.2 -0.9,-0.2 -0.3,0 -0.5,0 -0.9,0.1 -0.3,0.1 -0.6,0.2 -0.8,0.3 l -0.1,-1 c 0.3,-0.1 0.6,-0.2 0.9,-0.3 0.3,-0.1 0.7,-0.1 1.1,-0.1 0.4,0 0.8,0 1.1,0.1 0.3,0.1 0.5,0.2 0.7,0.4 0.2,0.2 0.3,0.4 0.4,0.6 0.1,0.2 0.1,0.5 0.1,0.8 v 2.2 c 0,0.2 0,0.5 0,0.7 0,0.3 0,0.5 0,0.7 h -1.1 z m 0,-2.4 c -0.4,0 -0.8,0 -1.1,0.1 -0.3,0.1 -0.5,0.1 -0.7,0.2 -0.2,0.1 -0.3,0.2 -0.3,0.3 -0.1,0.1 -0.1,0.2 -0.1,0.3 0,0.2 0.1,0.4 0.2,0.5 0.1,0.1 0.3,0.2 0.6,0.2 0.2,0 0.4,0 0.6,-0.1 0.2,-0.1 0.3,-0.2 0.4,-0.3 0.1,-0.1 0.2,-0.3 0.3,-0.5 0.1,-0.2 0.1,-0.4 0.1,-0.6 z" class="st2"/><path id="path340" fill="#fff" d="m 154.8,14.8 v -3.5 c 0,-0.3 -0.1,-0.6 -0.2,-0.8 -0.1,-0.2 -0.3,-0.3 -0.7,-0.3 -0.2,0 -0.4,0 -0.5,0.1 -0.2,0.1 -0.3,0.2 -0.5,0.4 -0.1,0.2 -0.2,0.4 -0.3,0.6 -0.1,0.2 -0.1,0.5 -0.1,0.8 v 2.6 h -1.2 v -3.5 c 0,-0.2 0,-0.3 0,-0.4 0,-0.1 -0.1,-0.2 -0.1,-0.3 -0.1,-0.1 -0.1,-0.2 -0.2,-0.2 -0.1,-0.1 -0.2,-0.1 -0.4,-0.1 -0.2,0 -0.4,0 -0.6,0.1 -0.2,0.1 -0.3,0.2 -0.5,0.4 -0.1,0.2 -0.2,0.4 -0.3,0.6 -0.1,0.2 -0.1,0.5 -0.1,0.8 v 2.6 h -1.2 V 9.3 h 1.2 c 0,0.1 0,0.3 0,0.5 0,0.2 0,0.4 -0.1,0.6 v 0 c 0.2,-0.4 0.4,-0.7 0.7,-0.9 0.3,-0.2 0.7,-0.3 1.2,-0.3 0.3,0 0.5,0 0.7,0.1 0.2,0.1 0.3,0.2 0.5,0.3 0.1,0.1 0.2,0.3 0.3,0.4 0.1,0.1 0.1,0.3 0.1,0.4 0.1,-0.1 0.1,-0.3 0.2,-0.4 0.1,-0.1 0.2,-0.3 0.4,-0.4 0.2,-0.1 0.3,-0.2 0.5,-0.3 0.2,-0.1 0.4,-0.1 0.7,-0.1 0.5,0 1,0.1 1.2,0.4 0.3,0.3 0.4,0.8 0.4,1.4 v 3.8 z" class="st2"/><path id="path342" fill="#fff" d="m 162.2,12.1 h -3.6 c 0,0.6 0.1,1.1 0.4,1.4 0.3,0.3 0.7,0.4 1.3,0.4 0.3,0 0.6,0 0.9,-0.1 0.3,-0.1 0.5,-0.2 0.8,-0.3 l 0.1,1 c -0.3,0.1 -0.6,0.2 -0.9,0.3 -0.3,0.1 -0.7,0.1 -1,0.1 -0.9,0 -1.6,-0.2 -2,-0.7 -0.5,-0.4 -0.7,-1.1 -0.7,-2.1 0,-0.4 0.1,-0.8 0.2,-1.1 0.1,-0.3 0.3,-0.7 0.5,-0.9 0.2,-0.3 0.5,-0.5 0.8,-0.6 0.3,-0.1 0.7,-0.2 1.1,-0.2 0.4,0 0.7,0.1 1,0.2 0.3,0.1 0.5,0.3 0.7,0.5 0.2,0.2 0.3,0.5 0.4,0.7 0.1,0.3 0.1,0.6 0.1,0.9 -0.1,0.1 -0.1,0.3 -0.1,0.5 z m -1.5,-1.7 c -0.2,-0.2 -0.5,-0.3 -0.9,-0.3 -0.3,0 -0.6,0.1 -0.8,0.3 -0.2,0.2 -0.4,0.5 -0.4,0.8 h 2.4 c 0,-0.3 -0.1,-0.6 -0.3,-0.8 z" class="st2"/><path id="path344" fill="#fff" d="m 136.9,18.1 v 6.6 h -1.2 v -6.6 h -2.1 v -1 h 5.4 v 1 z" class="st2"/><path id="path346" fill="#fff" d="m 143.5,22 h -3.6 c 0,0.6 0.1,1.1 0.4,1.4 0.3,0.3 0.7,0.4 1.3,0.4 0.3,0 0.6,0 0.9,-0.1 0.3,-0.1 0.5,-0.2 0.8,-0.3 l 0.1,1 c -0.3,0.1 -0.6,0.2 -0.9,0.3 -0.3,0.1 -0.7,0.1 -1,0.1 -0.9,0 -1.6,-0.2 -2,-0.7 -0.5,-0.4 -0.7,-1.1 -0.7,-2.1 0,-0.4 0.1,-0.8 0.2,-1.1 0.1,-0.3 0.3,-0.7 0.5,-0.9 0.2,-0.3 0.5,-0.5 0.8,-0.6 0.3,-0.1 0.7,-0.2 1.1,-0.2 0.4,0 0.7,0.1 1,0.2 0.3,0.1 0.5,0.3 0.7,0.5 0.2,0.2 0.3,0.5 0.4,0.7 0.1,0.3 0.1,0.6 0.1,0.9 -0.1,0.1 -0.1,0.3 -0.1,0.5 z M 142,20.3 c -0.2,-0.2 -0.5,-0.3 -0.9,-0.3 -0.3,0 -0.6,0.1 -0.8,0.3 -0.2,0.2 -0.4,0.5 -0.4,0.8 h 2.4 c 0,-0.3 -0.1,-0.6 -0.3,-0.8 z" class="st2"/><path id="path348" fill="#fff" d="m 147.8,24.7 c -0.3,0.1 -0.6,0.1 -0.9,0.1 -0.4,0 -0.7,0 -1,-0.1 -0.3,-0.1 -0.6,-0.2 -0.8,-0.5 -0.2,-0.2 -0.4,-0.5 -0.5,-0.8 -0.1,-0.3 -0.2,-0.7 -0.2,-1.2 0,-0.4 0.1,-0.8 0.2,-1.2 0.1,-0.4 0.3,-0.7 0.5,-1 0.2,-0.3 0.5,-0.5 0.9,-0.6 0.4,-0.2 0.8,-0.2 1.3,-0.2 0.4,0 0.8,0.1 1.2,0.2 l -0.1,1.1 c -0.2,-0.1 -0.4,-0.1 -0.5,-0.2 -0.2,0 -0.4,-0.1 -0.6,-0.1 -0.5,0 -0.9,0.2 -1.2,0.5 -0.3,0.3 -0.4,0.8 -0.4,1.4 0,0.2 0,0.5 0.1,0.7 0,0.2 0.1,0.4 0.2,0.6 0.1,0.2 0.3,0.3 0.5,0.4 0.2,0.1 0.4,0.1 0.7,0.1 0.2,0 0.4,0 0.7,-0.1 0.2,0 0.4,-0.1 0.6,-0.2 l 0.1,1 c -0.3,-0.1 -0.5,0 -0.8,0.1 z" class="st2"/><path id="path350" fill="#fff" d="m 153.3,24.7 v -3.5 c 0,-0.3 -0.1,-0.6 -0.2,-0.8 -0.1,-0.2 -0.3,-0.3 -0.7,-0.3 -0.2,0 -0.4,0.1 -0.6,0.2 -0.2,0.1 -0.3,0.2 -0.5,0.4 -0.1,0.2 -0.2,0.4 -0.3,0.6 -0.1,0.2 -0.1,0.5 -0.1,0.8 v 2.6 h -1.2 v -8.3 h 1.2 v 2.7 c 0,0.2 0,0.4 0,0.6 0,0.2 0,0.4 -0.1,0.5 v 0 c 0.2,-0.4 0.4,-0.6 0.7,-0.9 0.3,-0.2 0.7,-0.3 1.2,-0.3 0.3,0 0.6,0 0.8,0.1 0.2,0.1 0.4,0.2 0.5,0.4 0.1,0.2 0.2,0.3 0.3,0.6 0.1,0.2 0.1,0.4 0.1,0.7 v 3.9 z" class="st2"/><path id="path352" fill="#fff" d="m 159.8,24.7 v -3.5 c 0,-0.3 -0.1,-0.6 -0.2,-0.8 -0.1,-0.2 -0.3,-0.3 -0.7,-0.3 -0.2,0 -0.4,0.1 -0.6,0.2 -0.2,0.1 -0.3,0.2 -0.5,0.4 -0.1,0.2 -0.2,0.4 -0.3,0.6 -0.1,0.2 -0.1,0.5 -0.1,0.8 v 2.7 h -1.2 v -5.5 h 1.2 c 0,0.1 0,0.3 0,0.5 0,0.2 0,0.4 -0.1,0.5 v 0 c 0.2,-0.4 0.4,-0.6 0.8,-0.9 0.3,-0.2 0.7,-0.3 1.2,-0.3 0.3,0 0.6,0 0.8,0.1 0.2,0.1 0.4,0.2 0.5,0.4 0.1,0.2 0.2,0.3 0.3,0.6 0.1,0.2 0.1,0.4 0.1,0.7 v 3.9 h -1.2 z" class="st2"/><path id="path354" fill="#fff" d="m 167.5,23 c -0.1,0.4 -0.3,0.7 -0.6,0.9 -0.2,0.3 -0.5,0.5 -0.9,0.6 -0.3,0.1 -0.7,0.2 -1.1,0.2 -0.4,0 -0.7,-0.1 -1.1,-0.2 -0.3,-0.1 -0.6,-0.3 -0.8,-0.5 -0.2,-0.2 -0.4,-0.5 -0.5,-0.9 -0.1,-0.3 -0.2,-0.8 -0.2,-1.2 0,-0.4 0.1,-0.8 0.2,-1.1 0.1,-0.4 0.3,-0.7 0.6,-0.9 0.2,-0.3 0.5,-0.5 0.9,-0.6 0.3,-0.1 0.7,-0.2 1.2,-0.2 0.4,0 0.7,0.1 1,0.2 0.3,0.1 0.6,0.3 0.8,0.5 0.2,0.2 0.4,0.5 0.5,0.8 0.1,0.3 0.2,0.8 0.2,1.2 0,0.4 -0.1,0.8 -0.2,1.2 z m -1.4,-2.4 c -0.2,-0.3 -0.6,-0.5 -1.1,-0.5 -0.2,0 -0.4,0 -0.5,0.1 -0.2,0.1 -0.3,0.2 -0.5,0.3 -0.1,0.1 -0.2,0.3 -0.3,0.5 -0.1,0.2 -0.1,0.5 -0.1,0.8 0,0.6 0.1,1.1 0.4,1.4 0.2,0.3 0.6,0.5 1.1,0.5 0.2,0 0.4,0 0.6,-0.1 0.2,-0.1 0.3,-0.2 0.5,-0.3 0.1,-0.1 0.2,-0.3 0.3,-0.6 0.1,-0.2 0.1,-0.5 0.1,-0.8 -0.2,-0.6 -0.3,-1 -0.5,-1.3 z" class="st2"/><path id="path356" fill="#fff" d="m 169,24.7 v -8.3 h 1.2 v 8.3 z" class="st2"/><path id="path358" fill="#fff" d="m 176.7,23 c -0.1,0.4 -0.3,0.7 -0.6,0.9 -0.2,0.3 -0.5,0.5 -0.9,0.6 -0.3,0.1 -0.7,0.2 -1.1,0.2 -0.4,0 -0.7,-0.1 -1.1,-0.2 -0.3,-0.1 -0.6,-0.3 -0.8,-0.5 -0.2,-0.2 -0.4,-0.5 -0.5,-0.9 -0.1,-0.3 -0.2,-0.8 -0.2,-1.2 0,-0.4 0.1,-0.8 0.2,-1.1 0.1,-0.4 0.3,-0.7 0.6,-0.9 0.2,-0.3 0.5,-0.5 0.9,-0.6 0.3,-0.1 0.7,-0.2 1.2,-0.2 0.4,0 0.7,0.1 1,0.2 0.3,0.1 0.6,0.3 0.8,0.5 0.2,0.2 0.4,0.5 0.5,0.8 0.1,0.3 0.2,0.8 0.2,1.2 0,0.4 -0.1,0.8 -0.2,1.2 z m -1.4,-2.4 c -0.2,-0.3 -0.6,-0.5 -1.1,-0.5 -0.2,0 -0.4,0 -0.5,0.1 -0.2,0.1 -0.3,0.2 -0.5,0.3 -0.1,0.1 -0.2,0.3 -0.3,0.5 -0.1,0.2 -0.1,0.5 -0.1,0.8 0,0.6 0.1,1.1 0.4,1.4 0.2,0.3 0.6,0.5 1.1,0.5 0.2,0 0.4,0 0.6,-0.1 0.2,-0.1 0.3,-0.2 0.5,-0.3 0.1,-0.1 0.2,-0.3 0.3,-0.6 0.1,-0.2 0.1,-0.5 0.1,-0.8 -0.2,-0.6 -0.3,-1 -0.5,-1.3 z" class="st2"/><path id="path360" fill="#fff" d="m 183,26.2 c -0.1,0.3 -0.4,0.5 -0.6,0.7 -0.3,0.2 -0.6,0.3 -1,0.5 -0.4,0.1 -0.8,0.2 -1.2,0.2 -0.7,0 -1.3,-0.1 -1.8,-0.4 -0.4,-0.3 -0.6,-0.7 -0.6,-1.2 0,-0.3 0.1,-0.6 0.3,-0.8 0.2,-0.2 0.4,-0.4 0.6,-0.6 -0.2,-0.1 -0.3,-0.2 -0.4,-0.3 -0.1,-0.1 -0.1,-0.3 -0.1,-0.5 0,-0.2 0.1,-0.4 0.2,-0.6 0.1,-0.2 0.3,-0.3 0.5,-0.4 -0.3,-0.1 -0.5,-0.4 -0.6,-0.6 -0.1,-0.3 -0.2,-0.6 -0.2,-0.9 0,-0.3 0.1,-0.6 0.2,-0.8 0.1,-0.3 0.3,-0.5 0.5,-0.7 0.2,-0.2 0.5,-0.3 0.8,-0.5 0.3,-0.1 0.7,-0.2 1.1,-0.2 0.2,0 0.3,0 0.5,0 0.1,0 0.3,0 0.4,0.1 h 1.9 v 1 h -0.9 c 0.1,0.1 0.2,0.2 0.3,0.4 0.1,0.2 0.1,0.3 0.1,0.5 0,0.6 -0.2,1.1 -0.6,1.5 -0.4,0.4 -1,0.6 -1.8,0.6 -0.1,0 -0.2,0 -0.3,0 -0.1,0 -0.2,0 -0.3,0 -0.1,0 -0.2,0.1 -0.2,0.2 -0.1,0.1 -0.1,0.1 -0.1,0.2 0,0.1 0.1,0.2 0.2,0.3 0.1,0.1 0.4,0.1 0.7,0.1 h 1 c 0.6,0 1.1,0.1 1.4,0.4 0.3,0.3 0.5,0.7 0.5,1.2 -0.3,0.1 -0.4,0.3 -0.5,0.6 z M 181.7,25 c -0.2,-0.1 -0.4,-0.2 -0.8,-0.2 h -1.1 c -0.1,0 -0.1,0 -0.2,0 -0.1,0 -0.1,0 -0.1,0 -0.2,0.1 -0.3,0.2 -0.5,0.4 -0.1,0.2 -0.2,0.3 -0.2,0.5 0,0.3 0.1,0.5 0.4,0.7 0.3,0.2 0.6,0.2 1,0.2 0.5,0 0.9,-0.1 1.2,-0.3 0.3,-0.2 0.4,-0.4 0.4,-0.7 0.2,-0.3 0.1,-0.5 -0.1,-0.6 z m -0.4,-4.8 c -0.2,-0.2 -0.5,-0.3 -0.9,-0.3 -0.4,0 -0.7,0.1 -0.9,0.3 -0.2,0.2 -0.3,0.5 -0.3,0.9 0,0.4 0.1,0.7 0.3,0.9 0.2,0.2 0.5,0.3 0.9,0.3 0.4,0 0.7,-0.1 0.9,-0.3 0.2,-0.2 0.3,-0.5 0.3,-0.9 0,-0.4 -0.1,-0.7 -0.3,-0.9 z" class="st2"/><path id="path362" fill="#fff" d="m 186.9,25.2 c -0.2,0.4 -0.3,0.8 -0.5,1.1 -0.2,0.3 -0.3,0.5 -0.5,0.7 -0.2,0.2 -0.4,0.3 -0.6,0.4 -0.2,0.1 -0.5,0.1 -0.8,0.1 -0.1,0 -0.2,0 -0.4,0 -0.1,0 -0.3,0 -0.4,-0.1 l 0.1,-1.1 c 0.1,0 0.3,0.1 0.4,0.1 0.1,0 0.2,0 0.4,0 0.1,0 0.3,0 0.4,-0.1 0.1,0 0.2,-0.1 0.3,-0.2 0.1,-0.1 0.2,-0.2 0.3,-0.4 0.1,-0.2 0.2,-0.4 0.3,-0.6 l 0.2,-0.6 -2.1,-5.6 h 1.4 l 0.9,2.6 c 0.1,0.2 0.2,0.5 0.2,0.7 0.1,0.2 0.1,0.5 0.2,0.7 v 0 c 0.1,-0.2 0.1,-0.5 0.2,-0.8 0.1,-0.3 0.2,-0.6 0.3,-0.9 l 0.8,-2.3 h 1.3 z" class="st2"/><path id="path364" fill="#fff" d="m 138.4,34.6 c -0.3,0.1 -0.7,0.1 -1.1,0.1 -0.6,0 -1.2,-0.1 -1.6,-0.3 -0.4,-0.2 -0.8,-0.4 -1.1,-0.8 -0.3,-0.3 -0.5,-0.7 -0.6,-1.1 -0.1,-0.4 -0.2,-0.9 -0.2,-1.4 0,-0.6 0.1,-1.1 0.2,-1.6 0.2,-0.5 0.4,-0.9 0.7,-1.3 0.3,-0.4 0.7,-0.6 1.2,-0.8 0.5,-0.2 1,-0.3 1.7,-0.3 0.3,0 0.6,0 0.9,0.1 0.3,0 0.6,0.1 0.8,0.2 l -0.1,1.1 c -0.6,-0.2 -1.1,-0.3 -1.7,-0.3 -0.4,0 -0.7,0.1 -1,0.2 -0.3,0.1 -0.5,0.3 -0.7,0.6 -0.2,0.2 -0.3,0.5 -0.4,0.9 -0.1,0.4 -0.1,0.7 -0.1,1.1 0,0.9 0.2,1.5 0.6,2 0.4,0.5 1,0.7 1.8,0.7 0.3,0 0.5,0 0.8,-0.1 0.3,-0.1 0.6,-0.1 0.8,-0.3 l 0.1,1.1 c -0.3,0 -0.6,0.1 -1,0.2 z" class="st2"/><path id="path366" fill="#fff" d="m 145,31.9 h -3.6 c 0,0.6 0.1,1.1 0.4,1.4 0.3,0.3 0.7,0.4 1.3,0.4 0.3,0 0.6,0 0.9,-0.1 0.3,-0.1 0.5,-0.2 0.8,-0.3 l 0.1,1 c -0.3,0.1 -0.6,0.2 -0.9,0.3 -0.3,0.1 -0.7,0.1 -1,0.1 -0.9,0 -1.6,-0.2 -2,-0.7 -0.5,-0.4 -0.7,-1.1 -0.7,-2.1 0,-0.4 0.1,-0.8 0.2,-1.1 0.1,-0.3 0.3,-0.7 0.5,-0.9 0.2,-0.3 0.5,-0.5 0.8,-0.6 0.3,-0.1 0.7,-0.2 1.1,-0.2 0.4,0 0.7,0.1 1,0.2 0.3,0.1 0.5,0.3 0.7,0.5 0.2,0.2 0.3,0.5 0.4,0.7 0.1,0.3 0.1,0.6 0.1,0.9 -0.1,0.1 -0.1,0.3 -0.1,0.5 z m -1.5,-1.7 c -0.2,-0.2 -0.5,-0.3 -0.9,-0.3 -0.3,0 -0.6,0.1 -0.8,0.3 -0.2,0.2 -0.4,0.5 -0.4,0.8 h 2.4 c 0,-0.3 -0.1,-0.6 -0.3,-0.8 z" class="st2"/><path id="path368" fill="#fff" d="m 149.9,34.7 v -3.5 c 0,-0.3 -0.1,-0.6 -0.2,-0.8 -0.1,-0.2 -0.3,-0.3 -0.7,-0.3 -0.2,0 -0.4,0.1 -0.6,0.2 -0.2,0.1 -0.3,0.2 -0.5,0.4 -0.1,0.2 -0.2,0.4 -0.3,0.6 -0.1,0.2 -0.1,0.5 -0.1,0.8 v 2.7 h -1.2 v -5.5 h 1.2 c 0,0.1 0,0.3 0,0.5 0,0.2 0,0.4 -0.1,0.5 v 0 c 0.2,-0.4 0.4,-0.6 0.8,-0.9 0.3,-0.2 0.7,-0.3 1.2,-0.3 0.3,0 0.6,0 0.8,0.1 0.2,0.1 0.4,0.2 0.5,0.4 0.1,0.2 0.2,0.3 0.3,0.6 0.1,0.2 0.1,0.4 0.1,0.7 v 3.9 h -1.2 z" class="st2"/><path id="path370" fill="#fff" d="m 155.2,34.6 c -0.2,0 -0.4,0 -0.6,0 -0.3,0 -0.6,0 -0.8,-0.1 -0.2,-0.1 -0.4,-0.2 -0.5,-0.3 -0.1,-0.1 -0.2,-0.3 -0.3,-0.5 0,-0.2 -0.1,-0.5 -0.1,-0.8 v -3 h -1.1 v -1 h 1.1 v -1.7 l 1.2,-0.3 v 2 h 1.5 v 1 h -1.5 v 2.6 c 0,0.2 0,0.4 0,0.5 0,0.1 0.1,0.2 0.1,0.3 0.1,0.1 0.1,0.1 0.2,0.2 0.1,0 0.2,0 0.4,0 0.3,0 0.5,0 0.7,-0.1 v 1 c 0,0.2 -0.1,0.2 -0.3,0.2 z" class="st2"/><path id="path372" fill="#fff" d="m 161.4,31.9 h -3.6 c 0,0.6 0.1,1.1 0.4,1.4 0.3,0.3 0.7,0.4 1.3,0.4 0.3,0 0.6,0 0.9,-0.1 0.3,-0.1 0.5,-0.2 0.8,-0.3 l 0.1,1 c -0.3,0.1 -0.6,0.2 -0.9,0.3 -0.3,0.1 -0.7,0.1 -1,0.1 -0.9,0 -1.6,-0.2 -2,-0.7 -0.5,-0.4 -0.7,-1.1 -0.7,-2.1 0,-0.4 0.1,-0.8 0.2,-1.1 0.1,-0.3 0.3,-0.7 0.5,-0.9 0.2,-0.3 0.5,-0.5 0.8,-0.6 0.3,-0.1 0.7,-0.2 1.1,-0.2 0.4,0 0.7,0.1 1,0.2 0.3,0.1 0.5,0.3 0.7,0.5 0.2,0.2 0.3,0.5 0.4,0.7 0.1,0.3 0.1,0.6 0.1,0.9 -0.1,0.1 -0.1,0.3 -0.1,0.5 z m -1.5,-1.7 c -0.2,-0.2 -0.5,-0.3 -0.9,-0.3 -0.3,0 -0.6,0.1 -0.8,0.3 -0.2,0.2 -0.4,0.5 -0.4,0.8 h 2.4 c 0,-0.3 -0.1,-0.6 -0.3,-0.8 z" class="st2"/><path id="path374" fill="#fff" d="m 165.7,30.2 c -0.6,-0.1 -1,0 -1.3,0.4 -0.3,0.4 -0.4,1 -0.4,1.8 v 2.2 h -1.2 v -5.5 h 1.2 c 0,0.2 0,0.3 0,0.6 0,0.2 0,0.4 -0.1,0.7 v 0 c 0.1,-0.2 0.1,-0.4 0.2,-0.5 0.1,-0.2 0.2,-0.3 0.4,-0.5 0.2,-0.1 0.3,-0.2 0.5,-0.3 0.2,-0.1 0.4,-0.1 0.7,-0.1 z" class="st2"/></g><g id="g376" transform="matrix(1.048844,0,0,1.048844,84.345353,-4.0982381)"><g id="g378"><path id="path380" fill="#fff" d="m 54.1,23.6 c -0.4,1.9 -1.8,2 -2.1,2 -0.8,0 -1.3,-0.5 -1.3,-1.3 0,-0.2 0,-0.4 0.1,-0.7 l 0.9,-4.5 v 0 h -1.1 l -0.9,4.6 v 0.1 c 0,0.2 -0.1,0.4 -0.1,0.7 0,1.2 0.8,2.1 2,2.1 0.9,0 1.6,-0.3 2.1,-0.9 l -0.1,0.8 v 0 h 1 L 56,19.3 v 0 h -1.1 z" class="st2"/><path id="path382" fill="#fff" d="m 61.3,19.1 c -0.8,0 -1.5,0.3 -2,0.9 l 0.2,-0.8 v 0 h -1 L 57,26.4 v 0 h 1 L 58.9,22 c 0.2,-1.1 1.1,-2 2.1,-2 0.4,0 0.8,0.2 1,0.5 v 0 l 0.9,-0.8 v 0 c -0.4,-0.4 -1,-0.6 -1.6,-0.6 z" class="st2"/><polygon id="polygon384" fill="#fff" points="43.9 19.2 43.8 20.1 47.4 20.1 42.6 25.6 42.4 26.4 47.5 26.4 47.7 25.5 43.9 25.5 48.7 20.1 48.9 19.2" class="st2"/><polygon id="polygon386" fill="#fff" points="65.5 19.2 64.5 19.2 63 26.4 64 26.4" class="st2"/><path id="path388" fill="#fff" d="m 77.3,19.1 c -0.9,0 -1.6,0.3 -2.1,0.8 l 0.8,-4 H 75 L 72.9,26.5 H 74 l 0.9,-4.4 c 0.4,-1.9 1.8,-2 2.1,-2 0.8,0 1.3,0.5 1.3,1.3 0,0.2 0,0.4 -0.1,0.7 l -0.9,4.5 h 1.1 L 79.3,22 c 0,-0.2 0.1,-0.4 0.1,-0.7 0,-1.4 -0.9,-2.2 -2.1,-2.2 z" class="st2"/><path id="path390" fill="#fff" d="m 70.3,19.1 c -1.9,0 -3.3,1.4 -3.7,3.7 -0.1,0.4 -0.1,0.8 -0.1,1.1 0,1.6 1,2.6 2.6,2.6 0.9,0 1.8,-0.4 2.4,-1 v 0 l -0.6,-0.7 v 0 0 c -0.6,0.6 -1.1,0.8 -1.7,0.8 -0.8,0 -1.6,-0.4 -1.6,-1.7 0,-0.4 0,-0.7 0.1,-1.1 0.1,-0.6 0.4,-1.5 0.9,-2.1 0.5,-0.5 1,-0.7 1.6,-0.7 0.6,0 1,0.2 1.4,0.8 v 0 l 0.8,-0.7 v 0 0 c -0.5,-0.7 -1.2,-1 -2.1,-1 z" class="st2"/><polygon id="polygon392" fill="#fff" points="64.8 17.2 65.9 17.2 66.2 15.9 65.1 15.9" class="st2"/><polygon id="polygon394" fill="#fff" points="54.6 17.2 55.6 17.2 55.9 15.9 54.8 15.9" class="st2"/><polygon id="polygon396" fill="#fff" points="51.7 17.2 52.8 17.2 53.1 15.9 52 15.9" class="st2"/></g><g id="g398"><polygon id="polygon400" fill="#fff" points="41.7 15.9 38.4 15.9 37.6 20 35.2 20 36 15.9 15.8 15.9 13.7 26.5 21.7 26.5 22.3 23.8 17.5 23.8 17.8 22.3 22.6 22.3 23 20 18.3 20 18.6 18.5 26.1 18.5 24.5 26.5 27.8 26.5 29.4 18.5 32.2 18.5 30.6 26.5 33.9 26.5 34.7 22.3 37.1 22.3 36.3 26.5 39.6 26.5" class="st2"/></g></g></svg>