<svg xmlns="http://www.w3.org/2000/svg" xmlns:svg="http://www.w3.org/2000/svg" id="svg2" x="0" y="0" enable-background="new 0 0 1024 1024" version="1.1" viewBox="0 0 1024 1024" xml:space="preserve"><metadata id="metadata367"/><g id="studio"><g id="g46"><path id="path48" fill="#1E94D2" d="M1010,0H14C6.3,0,0,6.3,0,14v996c0,7.7,6.3,14,14,14h996c7.7,0,14-6.3,14-14V14C1024,6.3,1017.7,0,1010,0z"/><radialGradient id="SVGID_2_" cx="125.899" cy="465.017" r="696.097" fx="-266.077" fy="-110.228" gradientTransform="matrix(0.9805 0.1964 -0.1129 0.5636 54.943 178.2164)" gradientUnits="userSpaceOnUse"><stop id="stop51" offset=".355" stop-color="#000"/><stop id="stop53" offset=".425" stop-color="#050505" stop-opacity=".892"/><stop id="stop55" offset=".504" stop-color="#131313" stop-opacity=".768"/><stop id="stop57" offset=".589" stop-color="#2A2A2A" stop-opacity=".637"/><stop id="stop59" offset=".678" stop-color="#4A4A4A" stop-opacity=".499"/><stop id="stop61" offset=".769" stop-color="#737373" stop-opacity=".358"/><stop id="stop63" offset=".863" stop-color="#A6A6A6" stop-opacity=".213"/><stop id="stop65" offset=".956" stop-color="#E1E1E1" stop-opacity=".068"/><stop id="stop67" offset="1" stop-color="#FFF" stop-opacity="0"/></radialGradient><path id="path69" fill="url(#SVGID_2_)" d="M512,1024h498c7.7,0,14-6.3,14-14V572.7L768.8,239.2H276v554.1L512,1024z" opacity=".57"/><g id="g71"><path id="path73" fill="#FFF" d="M416.2,230.7c8.3,0,15.2,2.8,20.7,8.5s8.2,12.6,8.2,20.7c0,8.3-2.7,15.1-8.2,20.5 c-5.5,5.4-12.4,8.1-20.7,8.1H304.7v446.9h111.5c8.3,0,15.2,2.7,20.7,8.1c5.5,5.4,8.2,12.2,8.2,20.5c0,8.5-2.7,15.4-8.2,20.9 c-5.5,5.5-12.4,8.2-20.7,8.2H276c-8.5,0-15.4-2.7-20.8-8.2c-5.4-5.5-8.1-12.5-8.1-20.9V259.9c0-8.1,2.7-15,8.1-20.7 s12.3-8.5,20.8-8.5H416.2z"/><path id="path75" fill="#FFF" d="M748,230.7c8.5,0,15.4,2.8,20.8,8.5s8.1,12.6,8.1,20.7v504.2c0,8.5-2.7,15.4-8.1,20.9 c-5.4,5.5-12.3,8.2-20.8,8.2H607.8c-8.3,0-15.2-2.7-20.7-8.2c-5.5-5.5-8.2-12.5-8.2-20.9c0-8.3,2.7-15.1,8.2-20.5 c5.5-5.4,12.4-8.1,20.7-8.1h111.5V288.5H607.8c-8.3,0-15.2-2.7-20.7-8.1c-5.5-5.4-8.2-12.2-8.2-20.5c0-8.1,2.7-15,8.2-20.7 s12.4-8.5,20.7-8.5H748z"/></g></g></g></svg>