<svg xmlns="http://www.w3.org/2000/svg" xmlns:svg="http://www.w3.org/2000/svg" id="svg2" x="0" y="0" enable-background="new 0 0 1024 1024" version="1.1" viewBox="0 0 1024 1024" xml:space="preserve"><metadata id="metadata367"/><g id="playground"><g id="g112"><path id="path114" fill="#1E94D2" d="M1010-1.2H14c-7.7,0-14,6.3-14,14v996c0,7.7,6.3,14,14,14h996c7.7,0,14-6.3,14-14v-996 C1024,5.1,1017.7-1.2,1010-1.2z"/><g id="g116"><path id="path118" fill="#1E94D2" d="M227.6,229.2c-43.7,43.7-43.7,114.6,0,158.4l547.3,547.3l139.3-139.3l-247-247 c-19.7-19.7-30.5-44.9-32.4-70.6L386,229.2C342.3,185.5,271.4,185.5,227.6,229.2z"/><linearGradient id="SVGID_4_" x1="62.533" x2="531.567" y1="30.342" y2="542.449" gradientUnits="userSpaceOnUse"><stop id="stop121" offset=".355" stop-color="#000"/><stop id="stop123" offset=".425" stop-color="#050505" stop-opacity=".892"/><stop id="stop125" offset=".504" stop-color="#131313" stop-opacity=".768"/><stop id="stop127" offset=".589" stop-color="#2A2A2A" stop-opacity=".637"/><stop id="stop129" offset=".678" stop-color="#4A4A4A" stop-opacity=".499"/><stop id="stop131" offset=".769" stop-color="#737373" stop-opacity=".358"/><stop id="stop133" offset=".863" stop-color="#A6A6A6" stop-opacity=".213"/><stop id="stop135" offset=".956" stop-color="#E1E1E1" stop-opacity=".068"/><stop id="stop137" offset="1" stop-color="#FFF" stop-opacity="0"/></linearGradient><path id="path139" fill="url(#SVGID_4_)" d="M227.6,229.2c-43.7,43.7-43.7,114.6,0,158.4l547.3,547.3l139.3-139.3l-247-247 c-19.7-19.7-30.5-44.9-32.4-70.6L386,229.2C342.3,185.5,271.4,185.5,227.6,229.2z" opacity=".57"/><path id="path141" fill="#1E94D2" d="M227.6,635.9c-43.7,43.7-43.7,114.6,0,158.4l228.5,228.5h316.7L386,635.9 C342.3,592.2,271.4,592.2,227.6,635.9z"/><linearGradient id="SVGID_5_" x1="65.691" x2="534.724" y1="434.165" y2="946.272" gradientUnits="userSpaceOnUse"><stop id="stop144" offset=".355" stop-color="#000"/><stop id="stop146" offset=".425" stop-color="#050505" stop-opacity=".892"/><stop id="stop148" offset=".504" stop-color="#131313" stop-opacity=".768"/><stop id="stop150" offset=".589" stop-color="#2A2A2A" stop-opacity=".637"/><stop id="stop152" offset=".678" stop-color="#4A4A4A" stop-opacity=".499"/><stop id="stop154" offset=".769" stop-color="#737373" stop-opacity=".358"/><stop id="stop156" offset=".863" stop-color="#A6A6A6" stop-opacity=".213"/><stop id="stop158" offset=".956" stop-color="#E1E1E1" stop-opacity=".068"/><stop id="stop160" offset="1" stop-color="#FFF" stop-opacity="0"/></linearGradient><path id="path162" fill="url(#SVGID_5_)" d="M227.6,635.9c-43.7,43.7-43.7,114.6,0,158.4l228.5,228.5h316.7L386,635.9 C342.3,592.2,271.4,592.2,227.6,635.9z" opacity=".57"/><path id="path164" fill="#1E94D2" d="M825.6,390.2c-43.7-43.7-114.6-43.7-158.4,0c-24.1,24.1-34.9,56.3-32.4,87.8l298.5,298.5l-19.1,19.1 L1024,905.4V588.6L825.6,390.2z"/><linearGradient id="SVGID_6_" x1="506.675" x2="975.708" y1="187.198" y2="699.306" gradientUnits="userSpaceOnUse"><stop id="stop167" offset=".355" stop-color="#000"/><stop id="stop169" offset=".425" stop-color="#050505" stop-opacity=".892"/><stop id="stop171" offset=".504" stop-color="#131313" stop-opacity=".768"/><stop id="stop173" offset=".589" stop-color="#2A2A2A" stop-opacity=".637"/><stop id="stop175" offset=".678" stop-color="#4A4A4A" stop-opacity=".499"/><stop id="stop177" offset=".769" stop-color="#737373" stop-opacity=".358"/><stop id="stop179" offset=".863" stop-color="#A6A6A6" stop-opacity=".213"/><stop id="stop181" offset=".956" stop-color="#E1E1E1" stop-opacity=".068"/><stop id="stop183" offset="1" stop-color="#FFF" stop-opacity="0"/></linearGradient><path id="path185" fill="url(#SVGID_6_)" d="M825.6,390.2c-43.7-43.7-114.6-43.7-158.4,0c-24.1,24.1-34.9,56.3-32.4,87.8 l298.5,298.5l-19.1,19.1L1024,905.4V588.6L825.6,390.2z" opacity=".57"/><path id="path187" fill="#1E94D2" d="M914.2,795.6l19.1-19.1L634.8,478c2,25.7,12.8,50.9,32.4,70.6L914.2,795.6z"/><linearGradient id="SVGID_7_" x1="148.795" x2="617.828" y1="-48.664" y2="463.443" gradientUnits="userSpaceOnUse"><stop id="stop190" offset=".355" stop-color="#000"/><stop id="stop192" offset=".425" stop-color="#050505" stop-opacity=".892"/><stop id="stop194" offset=".504" stop-color="#131313" stop-opacity=".768"/><stop id="stop196" offset=".589" stop-color="#2A2A2A" stop-opacity=".637"/><stop id="stop198" offset=".678" stop-color="#4A4A4A" stop-opacity=".499"/><stop id="stop200" offset=".769" stop-color="#737373" stop-opacity=".358"/><stop id="stop202" offset=".863" stop-color="#A6A6A6" stop-opacity=".213"/><stop id="stop204" offset=".956" stop-color="#E1E1E1" stop-opacity=".068"/><stop id="stop206" offset="1" stop-color="#FFF" stop-opacity="0"/></linearGradient><path id="path208" fill="url(#SVGID_7_)" d="M914.2,795.6l19.1-19.1L634.8,478c2,25.7,12.8,50.9,32.4,70.6L914.2,795.6z" opacity=".57"/><linearGradient id="SVGID_8_" x1="429.531" x2="898.564" y1="257.854" y2="769.961" gradientUnits="userSpaceOnUse"><stop id="stop211" offset=".355" stop-color="#000"/><stop id="stop213" offset=".425" stop-color="#050505" stop-opacity=".892"/><stop id="stop215" offset=".504" stop-color="#131313" stop-opacity=".768"/><stop id="stop217" offset=".589" stop-color="#2A2A2A" stop-opacity=".637"/><stop id="stop219" offset=".678" stop-color="#4A4A4A" stop-opacity=".499"/><stop id="stop221" offset=".769" stop-color="#737373" stop-opacity=".358"/><stop id="stop223" offset=".863" stop-color="#A6A6A6" stop-opacity=".213"/><stop id="stop225" offset=".956" stop-color="#E1E1E1" stop-opacity=".068"/><stop id="stop227" offset="1" stop-color="#FFF" stop-opacity="0"/></linearGradient><path id="path229" fill="url(#SVGID_8_)" d="M914.2,795.6l19.1-19.1L634.8,478c2,25.7,12.8,50.9,32.4,70.6L914.2,795.6z" opacity=".57"/></g><circle id="circle231" cx="745.5" cy="468.5" r="111" fill="#FFF"/><circle id="circle233" cx="305.9" cy="307.4" r="111" fill="#F48620"/><circle id="circle235" cx="305.9" cy="714.2" r="111" fill="#FFF"/></g></g></svg>