<svg xmlns="http://www.w3.org/2000/svg" xmlns:svg="http://www.w3.org/2000/svg" id="svg2" x="0" y="0" enable-background="new 0 0 1024 1024" version="1.1" viewBox="0 0 1024 1024" xml:space="preserve"><metadata id="metadata367"/><g id="challenge"><g id="g238"><path id="path240" fill="#1E94D2" d="M1010,0H14C6.3,0,0,6.3,0,14v996c0,7.7,6.3,14,14,14h996c7.7,0,14-6.3,14-14V14C1024,6.3,1017.7,0,1010,0z"/><g id="g242"><path id="path244" fill="#1E94D2" d="M227.6,230.4c-43.7,43.7-43.7,114.6,0,158.4l547.3,547.3l139.3-139.3l-247-247 c-19.7-19.7-30.5-44.9-32.4-70.6L386,230.4C342.3,186.7,271.4,186.7,227.6,230.4z"/><linearGradient id="SVGID_9_" x1="62.533" x2="531.567" y1="31.54" y2="543.648" gradientUnits="userSpaceOnUse"><stop id="stop247" offset=".355" stop-color="#000"/><stop id="stop249" offset=".425" stop-color="#050505" stop-opacity=".892"/><stop id="stop251" offset=".504" stop-color="#131313" stop-opacity=".768"/><stop id="stop253" offset=".589" stop-color="#2A2A2A" stop-opacity=".637"/><stop id="stop255" offset=".678" stop-color="#4A4A4A" stop-opacity=".499"/><stop id="stop257" offset=".769" stop-color="#737373" stop-opacity=".358"/><stop id="stop259" offset=".863" stop-color="#A6A6A6" stop-opacity=".213"/><stop id="stop261" offset=".956" stop-color="#E1E1E1" stop-opacity=".068"/><stop id="stop263" offset="1" stop-color="#FFF" stop-opacity="0"/></linearGradient><path id="path265" fill="url(#SVGID_9_)" d="M227.6,230.4c-43.7,43.7-43.7,114.6,0,158.4l547.3,547.3l139.3-139.3l-247-247 c-19.7-19.7-30.5-44.9-32.4-70.6L386,230.4C342.3,186.7,271.4,186.7,227.6,230.4z" opacity=".57"/><path id="path267" fill="#1E94D2" d="M227.6,637.1c-43.7,43.7-43.7,114.6,0,158.4L456.1,1024h316.7L386,637.1 C342.3,593.4,271.4,593.4,227.6,637.1z"/><linearGradient id="SVGID_10_" x1="65.691" x2="534.724" y1="435.363" y2="947.47" gradientUnits="userSpaceOnUse"><stop id="stop270" offset=".355" stop-color="#000"/><stop id="stop272" offset=".425" stop-color="#050505" stop-opacity=".892"/><stop id="stop274" offset=".504" stop-color="#131313" stop-opacity=".768"/><stop id="stop276" offset=".589" stop-color="#2A2A2A" stop-opacity=".637"/><stop id="stop278" offset=".678" stop-color="#4A4A4A" stop-opacity=".499"/><stop id="stop280" offset=".769" stop-color="#737373" stop-opacity=".358"/><stop id="stop282" offset=".863" stop-color="#A6A6A6" stop-opacity=".213"/><stop id="stop284" offset=".956" stop-color="#E1E1E1" stop-opacity=".068"/><stop id="stop286" offset="1" stop-color="#FFF" stop-opacity="0"/></linearGradient><path id="path288" fill="url(#SVGID_10_)" d="M227.6,637.1c-43.7,43.7-43.7,114.6,0,158.4L456.1,1024h316.7L386,637.1 C342.3,593.4,271.4,593.4,227.6,637.1z" opacity=".57"/><path id="path290" fill="#1E94D2" d="M825.6,391.4c-43.7-43.7-114.6-43.7-158.4,0c-24.1,24.1-34.9,56.3-32.4,87.8l298.5,298.5l-19.1,19.1 L1024,906.6V589.8L825.6,391.4z"/><linearGradient id="SVGID_11_" x1="506.675" x2="975.708" y1="188.396" y2="700.504" gradientUnits="userSpaceOnUse"><stop id="stop293" offset=".355" stop-color="#000"/><stop id="stop295" offset=".425" stop-color="#050505" stop-opacity=".892"/><stop id="stop297" offset=".504" stop-color="#131313" stop-opacity=".768"/><stop id="stop299" offset=".589" stop-color="#2A2A2A" stop-opacity=".637"/><stop id="stop301" offset=".678" stop-color="#4A4A4A" stop-opacity=".499"/><stop id="stop303" offset=".769" stop-color="#737373" stop-opacity=".358"/><stop id="stop305" offset=".863" stop-color="#A6A6A6" stop-opacity=".213"/><stop id="stop307" offset=".956" stop-color="#E1E1E1" stop-opacity=".068"/><stop id="stop309" offset="1" stop-color="#FFF" stop-opacity="0"/></linearGradient><path id="path311" fill="url(#SVGID_11_)" d="M825.6,391.4c-43.7-43.7-114.6-43.7-158.4,0c-24.1,24.1-34.9,56.3-32.4,87.8 l298.5,298.5l-19.1,19.1L1024,906.6V589.8L825.6,391.4z" opacity=".57"/><path id="path313" fill="#1E94D2" d="M914.2,796.8l19.1-19.1L634.8,479.2c2,25.7,12.8,50.9,32.4,70.6L914.2,796.8z"/><linearGradient id="SVGID_12_" x1="148.795" x2="617.828" y1="-47.466" y2="464.642" gradientUnits="userSpaceOnUse"><stop id="stop316" offset=".355" stop-color="#000"/><stop id="stop318" offset=".425" stop-color="#050505" stop-opacity=".892"/><stop id="stop320" offset=".504" stop-color="#131313" stop-opacity=".768"/><stop id="stop322" offset=".589" stop-color="#2A2A2A" stop-opacity=".637"/><stop id="stop324" offset=".678" stop-color="#4A4A4A" stop-opacity=".499"/><stop id="stop326" offset=".769" stop-color="#737373" stop-opacity=".358"/><stop id="stop328" offset=".863" stop-color="#A6A6A6" stop-opacity=".213"/><stop id="stop330" offset=".956" stop-color="#E1E1E1" stop-opacity=".068"/><stop id="stop332" offset="1" stop-color="#FFF" stop-opacity="0"/></linearGradient><path id="path334" fill="url(#SVGID_12_)" d="M914.2,796.8l19.1-19.1L634.8,479.2c2,25.7,12.8,50.9,32.4,70.6L914.2,796.8z" opacity=".57"/><linearGradient id="SVGID_13_" x1="429.531" x2="898.564" y1="259.052" y2="771.159" gradientUnits="userSpaceOnUse"><stop id="stop337" offset=".355" stop-color="#000"/><stop id="stop339" offset=".425" stop-color="#050505" stop-opacity=".892"/><stop id="stop341" offset=".504" stop-color="#131313" stop-opacity=".768"/><stop id="stop343" offset=".589" stop-color="#2A2A2A" stop-opacity=".637"/><stop id="stop345" offset=".678" stop-color="#4A4A4A" stop-opacity=".499"/><stop id="stop347" offset=".769" stop-color="#737373" stop-opacity=".358"/><stop id="stop349" offset=".863" stop-color="#A6A6A6" stop-opacity=".213"/><stop id="stop351" offset=".956" stop-color="#E1E1E1" stop-opacity=".068"/><stop id="stop353" offset="1" stop-color="#FFF" stop-opacity="0"/></linearGradient><path id="path355" fill="url(#SVGID_13_)" d="M914.2,796.8l19.1-19.1L634.8,479.2c2,25.7,12.8,50.9,32.4,70.6L914.2,796.8z" opacity=".57"/></g><circle id="circle357" cx="745.5" cy="469.7" r="111" fill="#FFF"/><circle id="circle359" cx="305.9" cy="308.6" r="111" fill="#FFF"/><circle id="circle361" cx="305.9" cy="715.4" r="111" fill="#FFF"/></g></g></svg>