<svg xmlns="http://www.w3.org/2000/svg" xmlns:svg="http://www.w3.org/2000/svg" id="svg2" x="0" y="0" enable-background="new 0 0 1024 1024" version="1.1" viewBox="0 0 1024 1024" xml:space="preserve"><metadata id="metadata367"/><g id="studio_x5F_th"><g id="g14"><path id="path16" fill="#1E94D2" d="M1010,0H14C6.3,0,0,6.3,0,14v996c0,7.7,6.3,14,14,14h996c7.7,0,14-6.3,14-14V14C1024,6.3,1017.7,0,1010,0z"/><radialGradient id="SVGID_1_" cx="286.146" cy="147.03" r="974.928" gradientTransform="matrix(0.8026 0.5965 -0.3986 0.5364 115.0824 -102.5136)" gradientUnits="userSpaceOnUse"><stop id="stop19" offset=".355" stop-color="#000"/><stop id="stop21" offset=".425" stop-color="#050505" stop-opacity=".892"/><stop id="stop23" offset=".504" stop-color="#131313" stop-opacity=".768"/><stop id="stop25" offset=".589" stop-color="#2A2A2A" stop-opacity=".637"/><stop id="stop27" offset=".678" stop-color="#4A4A4A" stop-opacity=".499"/><stop id="stop29" offset=".769" stop-color="#737373" stop-opacity=".358"/><stop id="stop31" offset=".863" stop-color="#A6A6A6" stop-opacity=".213"/><stop id="stop33" offset=".956" stop-color="#E1E1E1" stop-opacity=".068"/><stop id="stop35" offset="1" stop-color="#FFF" stop-opacity="0"/></radialGradient><path id="path37" fill="url(#SVGID_1_)" d="M512,1024h498c7.7,0,14-6.3,14-14V572.7L810.6,369.6l-549.2,28.7l-59.8,204.3 L512,1024z" opacity=".57"/><g id="g39"><path id="path41" fill="#FFF" d="M261.5,545.9c0-59.9,48.6-108.5,108.5-108.5c60,0,108.5,48.6,108.5,108.5c0,59.9-48.6,108.5-108.5,108.5 C310,654.4,261.5,605.8,261.5,545.9z"/><path id="path43" fill="#FFF" d="M810.6,369.6h-11.4H498.3H222.9c-11.7,0-21.3,9.6-21.3,21.3v190.4c0,11.7,9.6,21.3,21.3,21.3h16v-56.7 c0-72.4,58.7-131.1,131.1-131.1c72.4,0,131.1,58.7,131.1,131.1v56.7h164.3h133.9h11.4c6.5,0.3,11.8-4.9,11.8-11.4V381.4 C822.4,374.9,817.1,369.6,810.6,369.6z"/></g></g></g></svg>