<svg xmlns="http://www.w3.org/2000/svg" xmlns:svg="http://www.w3.org/2000/svg" id="svg2" x="0" y="0" enable-background="new 0 0 1024 1024" version="1.1" viewBox="0 0 1024 1024" xml:space="preserve"><metadata id="metadata367"/><g id="upgrader"><g id="g78"><path id="path80" fill="#F48620" d="M1010,0H14C6.3,0,0,6.3,0,14v996c0,7.7,6.3,14,14,14h996c7.7,0,14-6.3,14-14V14C1024,6.3,1017.7,0,1010,0z"/><radialGradient id="SVGID_3_" cx="286.15" cy="337.881" r="857.095" gradientTransform="matrix(0.8026 0.5965 -0.3986 0.5364 191.16 -14.0406)" gradientUnits="userSpaceOnUse"><stop id="stop83" offset=".355" stop-color="#000"/><stop id="stop85" offset=".425" stop-color="#050505" stop-opacity=".892"/><stop id="stop87" offset=".504" stop-color="#131313" stop-opacity=".768"/><stop id="stop89" offset=".589" stop-color="#2A2A2A" stop-opacity=".637"/><stop id="stop91" offset=".678" stop-color="#4A4A4A" stop-opacity=".499"/><stop id="stop93" offset=".769" stop-color="#737373" stop-opacity=".358"/><stop id="stop95" offset=".863" stop-color="#A6A6A6" stop-opacity=".213"/><stop id="stop97" offset=".956" stop-color="#E1E1E1" stop-opacity=".068"/><stop id="stop99" offset="1" stop-color="#FFF" stop-opacity="0"/></radialGradient><path id="path101" fill="url(#SVGID_3_)" d="M512,1024h498c7.7,0,14-6.3,14-14V696.8L799.2,512l-558.7,0l-38.9,211.7L512,1024z" opacity=".57"/><g id="g103"><path id="path105" fill="#FFF" d="M370,579.8c-59.9,0-108.5,48.6-108.5,108.5c0,59.9,48.6,108.5,108.5,108.5c59.9,0,108.5-48.6,108.5-108.5 C478.5,628.4,429.9,579.8,370,579.8z"/><path id="path107" fill="#FFF" d="M810.6,512h-11.4H498.3H222.9c-11.7,0-21.3,9.6-21.3,21.3v190.4c0,11.7,9.6,21.3,21.3,21.3h16v-56.7 c0-72.4,58.7-131.1,131.1-131.1c72.4,0,131.1,58.7,131.1,131.1V745h164.3h133.9h11.4c6.5,0.3,11.8-4.9,11.8-11.4V523.8 C822.4,517.3,817.1,512,810.6,512z"/></g><polygon id="polygon109" fill="#FFF" points="569.4 341.8 569.4 111.7 454.6 111.7 454.6 341.8 372.5 341.8 512 481.3 651.5 341.8"/></g></g></svg>