<svg xmlns="http://www.w3.org/2000/svg" xmlns:xlink="http://www.w3.org/1999/xlink" id="Calque_1" x="0" y="0" enable-background="new 0 0 1024 1024" version="1.1" viewBox="0 0 1024 1024" xml:space="preserve"><style type="text/css">.st0{fill:#2292d1}.st1{fill:#fff}</style><path d="M1023.52,1024.25H1.27c-0.55,0-1-0.45-1-1V1c0-0.55,0.45-1,1-1h1022.25c0.55,0,1,0.45,1,1v1022.25	C1024.52,1023.8,1024.08,1024.25,1023.52,1024.25z" class="st0"/><g><circle cx="369.95" cy="539.08" r="112.15" class="st1"/><path d="M811.17,358.48H213.63c-8.01,0-14.57,6.56-14.57,14.57v204.42c0,8.01,6.56,14.57,14.57,14.57h28.44v-58.51 c0-71.65,58.08-129.73,129.73-129.73s129.73,58.08,129.73,129.73v58.51h309.64c8.01,0,14.57-6.56,14.57-14.57V373.04 C825.74,365.03,819.18,358.48,811.17,358.48z" class="st1"/></g></svg>