<svg xmlns="http://www.w3.org/2000/svg" xmlns:svg="http://www.w3.org/2000/svg" id="svg2" x="0" y="0" enable-background="new 0 0 256 256" version="1.1" viewBox="0 0 256 256" xml:space="preserve"><metadata id="metadata528"/><defs id="defs526"><radialGradient id="SVGID_17_" cx="237.172" cy="175.063" r="132.264" gradientTransform="matrix(1.0705,0,0,2.0436,-125.9022,-218.2464)" gradientUnits="userSpaceOnUse"><stop id="stop512" offset="0" stop-color="#E8639A"/><stop id="stop514" offset=".151" stop-color="#EB74A5" stop-opacity=".849"/><stop id="stop516" offset=".451" stop-color="#F1A0C2" stop-opacity=".549"/><stop id="stop518" offset=".868" stop-color="#FBE7F0" stop-opacity=".132"/><stop id="stop520" offset="1" stop-color="#FFF" stop-opacity="0"/></radialGradient></defs><g id="g485"><path id="path487" fill="#c8c8c8" d="m 128,166.3 c 0,0 4.3,0.3 6.8,-2.4 4.3,-4.6 2,-9.5 10,-9.7 l -33.5,0 c 8,0.2 5.6,5.1 10,9.7 2.6,2.8 6.7,2.4 6.7,2.4 l 0,0 z"/><path id="path491" fill="#221f1f" d="m 59.7,167.7 -18.4,0 c -1.9,0 -3.5,-1.6 -3.5,-3.5 l 0,-20 c 0,-1.9 1.6,-3.5 3.5,-3.5 l 18.4,0 c 1.9,0 3.5,1.6 3.5,3.5 l 0,20 c 0,2 -1.6,3.5 -3.5,3.5 z"/><path id="path493" fill="#221f1f" d="m 215.1,167.7 -18.4,0 c -1.9,0 -3.5,-1.6 -3.5,-3.5 l 0,-20 c 0,-1.9 1.6,-3.5 3.5,-3.5 l 18.4,0 c 1.9,0 3.5,1.6 3.5,3.5 l 0,20 c 0,2 -1.6,3.5 -3.5,3.5 z"/><path id="path495" d="m 35.8,157.9 c -2.6,0 -4.8,-2.1 -4.8,-4.8 l 0,-66.5 c 0,-2.6 2.1,-4.8 4.8,-4.8 l 184.5,0 c 2.6,0 4.8,2.1 4.8,4.8 l 0,66.5 c 0,2.6 -2.1,4.8 -4.8,4.8 l -184.5,0 z" opacity=".08"/><path id="path497" fill="#c8c8c8" d="m 220.2,155.9 -184.4,0 c -1.5,0 -2.8,-1.2 -2.8,-2.8 l 0,-66.5 c 0,-1.5 1.2,-2.8 2.8,-2.8 l 184.5,0 c 1.5,0 2.8,1.2 2.8,2.8 l 0,66.5 c -0.1,1.5 -1.3,2.8 -2.9,2.8 z"/><g id="g499" fill="#101010" fill-opacity="1" opacity="1"><rect id="rect501" width="21.8" height="8.8" x="117.1" y="114.3" fill="#101010" fill-opacity="1" opacity="1"/><rect id="rect503" width="18.3" height="8.8" x="75.5" y="114.3" fill="#101010" fill-opacity="1" opacity="1"/><rect id="rect505" width="14.6" height="8.8" x="39.5" y="114.3" fill="#101010" fill-opacity="1" opacity="1"/><rect id="rect507" width="18.3" height="8.8" x="162.6" y="114.3" fill="#101010" fill-opacity="1" opacity="1"/><rect id="rect509" width="14.6" height="8.8" x="202.3" y="114.3" fill="#101010" fill-opacity="1" opacity="1"/></g></g></svg>