<svg xmlns="http://www.w3.org/2000/svg" xmlns:svg="http://www.w3.org/2000/svg" id="svg4958" width="256" height="256" version="1.1" viewBox="0 0 256 256"><defs id="defs4960"><radialGradient id="SVGID_4_" cx="104.342" cy="184.23" r="4.376" gradientTransform="matrix(-1,0,0,-1,197.0062,368.4597)" gradientUnits="userSpaceOnUse"><stop id="stop105" offset=".304" stop-color="#EC2024"/><stop id="stop107" offset="1" stop-color="#FFF" stop-opacity="0"/></radialGradient><radialGradient id="SVGID_5_" cx="138.631" cy="69.942" r="3.806" gradientUnits="userSpaceOnUse"><stop id="stop116" offset=".304" stop-color="#EC2024"/><stop id="stop118" offset="1" stop-color="#FFF" stop-opacity="0"/></radialGradient><radialGradient id="SVGID_6_" cx="117.475" cy="69.942" r="3.806" gradientUnits="userSpaceOnUse"><stop id="stop123" offset=".304" stop-color="#EC2024"/><stop id="stop125" offset="1" stop-color="#FFF" stop-opacity="0"/></radialGradient><radialGradient id="SVGID_7_" cx="115.871" cy="74.223" r="4.378" gradientTransform="matrix(-0.9971,-0.07611635,0.07611635,-0.9971,204.0175,160.9997)" gradientUnits="userSpaceOnUse"><stop id="stop134" offset=".304" stop-color="#EC2024"/><stop id="stop136" offset="1" stop-color="#FFF" stop-opacity="0"/></radialGradient><radialGradient id="SVGID_8_" cx="86.498" cy="82.08" r="4.377" gradientTransform="matrix(-0.9971,-0.07611635,0.07611635,-0.9971,153.2758,179.5682)" gradientUnits="userSpaceOnUse"><stop id="stop145" offset=".304" stop-color="#EC2024"/><stop id="stop147" offset="1" stop-color="#FFF" stop-opacity="0"/></radialGradient><radialGradient id="SVGID_9_" cx="160.418" cy="70.823" r="4.378" gradientTransform="matrix(0.9971,-0.07611635,-0.07611635,-0.9971,7.3713,160.9997)" gradientUnits="userSpaceOnUse"><stop id="stop156" offset=".304" stop-color="#EC2024"/><stop id="stop158" offset="1" stop-color="#FFF" stop-opacity="0"/></radialGradient><radialGradient id="SVGID_10_" cx="131.045" cy="78.68" r="4.377" gradientTransform="matrix(0.9971,-0.07611635,-0.07611635,-0.9971,58.113,179.5682)" gradientUnits="userSpaceOnUse"><stop id="stop167" offset=".304" stop-color="#EC2024"/><stop id="stop169" offset="1" stop-color="#FFF" stop-opacity="0"/></radialGradient><radialGradient id="SVGID_11_" cx="30.416" cy="184.23" r="4.376" gradientTransform="matrix(1,0,0,-1,134.5997,368.4597)" gradientUnits="userSpaceOnUse"><stop id="stop178" offset=".304" stop-color="#EC2024"/><stop id="stop180" offset="1" stop-color="#FFF" stop-opacity="0"/></radialGradient></defs><metadata id="metadata4963"/><g id="layer1" transform="translate(0,-796.36216)"><path id="path63" fill="#eaeaea" fill-opacity="1" d="m 10.580002,1051.2822 c -5.3200001,0 -9.5000001,-4.18 -9.5000001,-9.5 l 0,-186.77004 c 0,-2.47 0.95,-4.94 2.85,-6.84 C 37.180002,815.49216 81.26,797.44216 128,797.44216 c 46.74,0 90.82,18.05 124.07,50.73 1.9,1.71 2.85,4.18 2.85,6.84 l 0,186.77004 c 0,5.32 -4.18,9.5 -9.5,9.5 l -234.839998,0 z" opacity="1"/><path id="path98" fill="#fff" d="m 128.19,803.14216 c -46.74,0 -89.109998,18.81 -120.0799981,49.02 -0.76,0.76 -1.14,1.71 -1.14,2.66 l 0,186.77004 c 0,2.09 1.71,3.8 3.8000001,3.8 l 234.839998,0 c 2.09,0 3.8,-1.71 3.8,-3.8 l 0,-186.58004 c 0,-0.95 -0.38,-2.09 -1.14,-2.66 -30.97,-30.4 -73.34,-49.21 -120.08,-49.21 z"/></g><g id="g4237" stroke="#eaeaea" stroke-opacity="1" transform="matrix(0.9405,0,0,0.9405,7.616,11.111745)"><polyline id="polyline5125" fill="none" stroke="#eaeaea" stroke-dasharray="1" stroke-miterlimit="10" stroke-opacity="1" points="25.1 41.4 28.6 41.4 28.6 52.2 25.1 52.2" class="st1" transform="matrix(8.64,0,0,8.64,-218.032,-217.59998)"/><polyline id="polyline5127" fill="none" stroke="#eaeaea" stroke-dasharray="1" stroke-miterlimit="10" stroke-opacity="1" points="55 52.2 51.5 52.2 51.5 41.4 55 41.4" class="st1" transform="matrix(8.64,0,0,8.64,-218.032,-217.59998)"/></g></svg>