<svg xmlns="http://www.w3.org/2000/svg" xmlns:svg="http://www.w3.org/2000/svg" id="Layer_1" x="0" y="0" enable-background="new 0 0 24 24" version="1.1" viewBox="0 0 24 24" xml:space="preserve"><metadata id="metadata21"/><style id="style3" type="text/css">.st0{fill:#fff}</style><g id="g5" opacity=".3"><path id="path7" d="M2.1,11.6v8h1.5v-1.5c0-2.8,2.2-5,5-5s5,2.2,5,5v1.5h8.5v-8H2.1z" class="st0"/><circle id="circle9" cx="8.6" cy="18.1" r="3" class="st0"/></g><g id="g11"><path id="path13" d="M20.2,3.1c-0.4,0-0.8,0.2-1.1,0.5h-1.2l0.7-1.1l-1.8-1l-3,5.2l1.8,1l1.2-2.1h2.3c0.3,0.3,0.7,0.5,1.1,0.5 c0.8,0,1.5-0.7,1.5-1.5C21.7,3.8,21,3.1,20.2,3.1z" class="st0"/><path id="path15" d="M7.4,3.6H5.1C4.8,3.3,4.4,3.1,4,3.1c-0.8,0-1.5,0.7-1.5,1.5c0,0.8,0.7,1.5,1.5,1.5c0.4,0,0.8-0.2,1.1-0.5h1.2 L5.7,6.7l1.7,1l3-5.2l-1.7-1L7.4,3.6z" class="st0"/></g></svg>