<svg xmlns="http://www.w3.org/2000/svg" xmlns:xlink="http://www.w3.org/1999/xlink" id="Layer_1" x="0" y="0" enable-background="new 0 0 24 24" version="1.1" viewBox="0 0 24 24" xml:space="preserve"><style type="text/css">.st0{fill:#000;opacity:.54}</style><g><path d="M2.1,11.6v8h1.5v-1.5c0-2.8,2.2-5,5-5s5,2.2,5,5v1.5h8.5v-8H2.1z" class="st0"/><circle cx="8.6" cy="18.1" r="3" class="st0"/></g><g><path d="M19.1,5.6c0.3,0.3,0.7,0.5,1.1,0.5c0.8,0,1.5-0.7,1.5-1.5c0-0.8-0.7-1.5-1.5-1.5c-0.4,0-0.8,0.2-1.1,0.5h-14 C4.8,3.3,4.4,3.1,4,3.1c-0.8,0-1.5,0.7-1.5,1.5c0,0.8,0.7,1.5,1.5,1.5c0.4,0,0.8-0.2,1.1-0.5H19.1z" class="st0"/></g></svg>