<svg xmlns="http://www.w3.org/2000/svg" xmlns:xlink="http://www.w3.org/1999/xlink" id="Calque_1" x="0" y="0" enable-background="new 0 0 100 100" version="1.1" viewBox="0 0 100 100" xml:space="preserve"><style type="text/css">.st0{fill:#0a9eeb}</style><path d="M50,0.6C22.8,0.6,0.6,22.9,0.6,50s22.2,49.4,49.4,49.4S99.4,77.3,99.4,50S77.3,0.6,50,0.6z M50,92.9	C26.4,92.9,7.1,73.8,7.1,50S26.5,7.1,50.1,7.1c23.7,0,42.9,19.2,42.9,42.9S73.8,92.9,50,92.9z" class="st0"/><path d="M64.9,31L50,45.8L35.2,31c-1.2-1.2-3.1-1.2-4.2,0c-1.2,1.2-1.2,3.1,0,4.2L45.8,50L31,64.9	c-1.2,1.2-1.2,3.1,0,4.2s3.1,1.2,4.2,0L50,54.3l14.8,14.8c1.2,1.2,3.1,1.2,4.2,0s1.2-3.1,0-4.2L54.3,50l14.8-14.8	c1.2-1.2,1.2-3.1,0-4.2C68,29.8,66.1,29.8,64.9,31z" class="st0"/></svg>