<svg xmlns="http://www.w3.org/2000/svg" xmlns:svg="http://www.w3.org/2000/svg" id="svg2" x="0" y="0" enable-background="new 0 0 256 256" version="1.1" viewBox="0 0 256 256" xml:space="preserve"><metadata id="metadata306"/><g id="tap"><g id="g266"><path id="path268" fill="#FFF" d="M184.1,190.2c0,0,3.4,0.2,5.4-1.9c3.4-3.7,1.5-7.5,7.8-7.6h-26.3c6.3,0.1,4.4,4,7.8,7.6 C180.8,190.5,184.1,190.2,184.1,190.2L184.1,190.2z"/><g id="g270" opacity=".08"><path id="path272" d="M79,182.7c-4.7,0-9.4-0.4-10.5-0.8s-1.9-6.7-1.9-11.4v-31.6c0-4.7,0.4-9.4,0.8-10.4s6.8-1.8,11.5-1.8h119.1 c4.7,0,9.4,0.4,10.5,0.8s1.9,6.6,1.9,11.4v31.6c0,4.7-0.4,9.4-0.8,10.4s-6.8,1.8-11.5,1.8H79z"/></g><g id="g274"><path id="path276" fill="#FFF" d="M206.7,181.7H70.4c-1.5,0-2.7-1.2-2.7-2.6v-48.8c0-1.4,1.2-2.6,2.7-2.6h136.4c1.5,0,2.7,1.2,2.7,2.6v48.8 C209.5,180.5,208.3,181.7,206.7,181.7z"/></g><circle id="circle278" cx="106.1" cy="162.6" r="32.6" opacity=".08"/><circle id="circle280" cx="106.1" cy="162.6" r="28.4" fill="#FFF" stroke="#000" stroke-miterlimit="10" stroke-width="6.251"/><rect id="rect282" width="11.3" height="5.1" x="182.9" y="145.4"/><rect id="rect284" width="5.6" height="5.1" x="203.8" y="145.4"/></g><g id="g286"><path id="path288" fill="#FFF" stroke="#000" stroke-miterlimit="10" stroke-width="4" d="M150.5,110.9c-7.5,0.7-26-3-36.2-0.2 c14.8-1.2,37.5,7.1,45.1,8.9c3.8,1,10.3,3.2,13.2,3.5c4.9,1,11.3-0.1,10.1-6.5c-0.1-0.7,0-3.2-1.8-4.5 C177.1,111.5,158.3,110.1,150.5,110.9z"/><path id="path290" fill="#FFF" stroke="#000" stroke-miterlimit="10" stroke-width="4" d="M33.8,86.6c15.2,34,9.5,37.2,39.5,44.7 c4,1,30.7,7,35.3,7.9c1.2,0.3,2.4,0.4,3.5,0.4c8,0,12.5-5.8,5.2-8.6c-7.7-3-8.4-4.4-13.6-5.7c-2.3-0.6-10.5,0.3-14.6-2 c10.9-3,14.3,0.1,23.5,0.1c12.5,0,24.7-1.1,34.1,0.8c7.5,1.5,28.4,1.6,29.7,1.6c3.6,0,4.2-4.7,0.5-8c-0.9-0.8-22.3-3.1-22.6-3.5 c-24.9-7.2-20-6.2-53.9-10.9c-2.9-0.9-7.4-1.8-12.2-3.5c-15.3-4.7-22-16.9-31.9-36.7c-0.1-0.2-0.4-0.3-0.7-0.3 C51.1,63,30.4,79.1,33.8,86.6z"/></g><g id="g292"><line id="line294" x1="144.2" x2="134.4" y1="88.2" y2="57.5" fill="none" stroke="#FFF" stroke-linecap="round" stroke-linejoin="round" stroke-miterlimit="10" stroke-width="6.351"/><line id="line296" x1="164.3" x2="167.7" y1="85.4" y2="46.6" fill="none" stroke="#FFF" stroke-linecap="round" stroke-linejoin="round" stroke-miterlimit="10" stroke-width="6.351"/><line id="line298" x1="186.1" x2="201.4" y1="90.3" y2="58.9" fill="none" stroke="#FFF" stroke-linecap="round" stroke-linejoin="round" stroke-miterlimit="10" stroke-width="6.351"/><line id="line300" x1="202.8" x2="231.5" y1="103.4" y2="83.3" fill="none" stroke="#FFF" stroke-linecap="round" stroke-linejoin="round" stroke-miterlimit="10" stroke-width="6.351"/></g></g></svg>